<svg width="120" height="45" viewBox="0 0 145 85" fill="none" xmlns="http://www.w3.org/2000/svg">
<path d="M21.2579 56.9026C13.3835 49.0282 13.3835 36.2612 21.2579 28.3868L28.3868 21.2579C36.2612 13.3835 49.0282 13.3835 56.9026 21.2579L64.0315 28.3868C71.9059 36.2612 71.9059 49.0282 64.0315 56.9026L56.9026 64.0315C49.0282 71.9059 36.2612 71.9059 28.3868 64.0315L21.2579 56.9026Z" fill="url(#paint0_linear)"/>
<path d="M38.9799 48.5331C37.838 48.5274 36.9081 47.5217 36.9029 46.2871L36.8728 39.1727C36.8458 32.7872 41.628 27.6156 47.5327 27.6448C53.4371 27.674 58.2623 32.8931 58.2893 39.2786C58.2946 40.5136 57.3735 41.5101 56.2315 41.5045C55.09 41.4988 54.16 40.4931 54.1548 39.2582C54.1382 35.3382 51.1759 32.1342 47.5513 32.1162C43.9261 32.0983 40.9907 35.2732 41.0073 39.1931L41.0374 46.3076C41.0433 47.5422 40.1218 48.5387 38.9799 48.5331Z" fill="white"/>
<path d="M39.0463 57.6445C33.142 57.6153 28.3164 52.3969 28.2894 46.011C28.2842 44.7761 29.2056 43.7799 30.3475 43.7856C31.4894 43.7912 32.419 44.7965 32.4243 46.0315C32.4408 49.9511 35.4032 53.1552 39.0277 53.1731C42.6526 53.191 45.5883 50.0161 45.5718 46.0966L45.5417 38.9817C45.5364 37.7468 46.4579 36.7502 47.5995 36.7559C48.7414 36.7615 49.671 37.7672 49.6762 39.0022L49.7063 46.117C49.7326 52.5029 44.951 57.6737 39.0463 57.6445Z" fill="white"/>
<path d="M80 33V48.5383H90.1595V45.475H83.5048V33H80Z" fill="#20123A"/>
<path d="M97.9624 49.8701L103.197 36.596H99.7813L96.9642 44.8091L93.8364 36.596H90.3094L95.2561 48.2941L94.9234 48.96C94.5906 49.6704 94.0583 50.0255 93.3484 50.0255C92.7939 50.0255 92.328 49.8258 91.7957 49.3818L90.3538 51.8457C91.3298 52.6448 92.328 53 93.5924 53C95.6554 53 97.1194 51.9789 97.9624 49.8701Z" fill="#20123A"/>
<path d="M112.322 36.4628C110.459 36.485 109.039 37.1953 108.196 38.6826V36.596H104.78V48.5383H108.196V42.6559C108.196 40.9023 109.217 39.6149 110.925 39.5927C112.389 39.5927 113.276 40.525 113.276 42.0344V48.5383H116.692V41.0355C116.692 38.2386 114.984 36.4628 112.322 36.4628Z" fill="#20123A"/>
<path d="M127.604 40.6582L129.911 38.9933C128.847 37.3951 127.028 36.485 124.743 36.485C121.083 36.485 118.62 38.9489 118.62 42.6115C118.62 46.2297 121.083 48.6715 124.698 48.6715C127.138 48.6715 129.002 47.6948 130 46.03L127.649 44.4317C127.05 45.364 126.096 45.8302 124.876 45.8302C123.212 45.8302 122.037 44.5205 122.037 42.5893C122.037 40.6804 123.212 39.3929 124.876 39.3929C126.052 39.3707 126.961 39.859 127.604 40.6582Z" fill="#20123A"/>
<defs>
<linearGradient id="paint0_linear" x1="15.5696" y1="42.2865" x2="73.0361" y2="42.2865" gradientUnits="userSpaceOnUse">
<stop stop-color="#FF1E48"/>
<stop offset="1" stop-color="#FF731A"/>
</linearGradient>
</defs>
</svg>
