<svg width="18" height="15" viewBox="0 0 18 15" fill="none" xmlns="http://www.w3.org/2000/svg">
<path fill-rule="evenodd" clip-rule="evenodd" d="M17.7569 6.94252L14.944 4.20817C14.1668 3.43909 13.0007 4.59272 13.7779 5.36207L14.7274 6.2981C14.9436 6.5112 14.8725 6.68402 14.5687 6.68402L5.29526 6.68402C4.83501 6.68402 4.4684 7.04929 4.4684 7.49988C4.4684 7.94955 4.8386 8.31574 5.29526 8.31574L14.5687 8.31574C14.8713 8.31574 14.9436 8.48856 14.7274 8.70174L13.7779 9.63796C13.0007 10.407 14.1668 11.5609 14.944 10.7919L17.753 8.08554C18.0814 7.76912 18.082 7.25853 17.7569 6.94252ZM12.901 12.8033C13.2767 12.4305 13.2767 11.8261 12.901 11.4534C12.5254 11.0806 11.9164 11.0806 11.5408 11.4534C9.34075 13.6368 5.77376 13.6368 3.5737 11.4534C1.37365 9.26998 1.37365 5.73002 3.5737 3.54663C5.77376 1.36324 9.34075 1.36324 11.5408 3.54663C11.9164 3.9194 12.5254 3.9194 12.901 3.54663C13.2767 3.17386 13.2767 2.56947 12.901 2.1967C9.94975 -0.732233 5.16476 -0.732233 2.21347 2.1967C-0.737822 5.12563 -0.737822 9.87437 2.21347 12.8033C5.16476 15.7322 9.94975 15.7322 12.901 12.8033Z" fill="#FC7373"/>
</svg>
