<svg width="25" height="25" viewBox="0 0 25 25" fill="none" xmlns="http://www.w3.org/2000/svg">
<g clip-path="url(#clip0)">
<path d="M24.4994 0.488281C24.4994 0.488281 24.4052 3.11669 23.3129 6.20702L18.7807 1.6748C21.871 0.582519 24.4994 0.488281 24.4994 0.488281Z" fill="#FF5249"/>
<path d="M18.7809 1.67529L23.3131 6.20751C22.6031 8.21825 21.4698 10.4243 19.6661 12.228C18.004 13.8902 16.0044 15.2207 13.9137 16.143L8.84534 11.0747C9.46252 9.67577 10.3239 8.18309 11.462 6.76952C11.8605 6.27489 12.2926 5.79003 12.7604 5.32226C14.5641 3.51855 16.7701 2.38525 18.7809 1.67529Z" fill="white"/>
<path d="M18.9751 6.01294C19.7378 6.77563 19.7378 8.01245 18.9751 8.77514C18.2124 9.53783 16.9761 9.53783 16.2129 8.77514C15.4502 8.01196 15.4502 6.77563 16.2129 6.01294C16.9756 5.25024 18.2124 5.25024 18.9751 6.01294Z" fill="#7BD8E8"/>
<path d="M18.2848 13.6089C20.8014 17.3838 16.0904 19.8237 13.4513 19.8237C14.8321 18.4429 14.4288 16.6582 14.4288 16.6582L13.9137 16.1431C15.3126 15.5259 16.8053 14.6645 18.2189 13.5264L18.2848 13.6089Z" fill="#FF5249"/>
<path d="M8.27793 14.6509L8.19883 14.5718C7.96543 14.3379 7.85068 13.999 7.93271 13.6787C8.13633 12.8857 8.43711 12.001 8.84531 11.0747L13.9137 16.143C12.9874 16.5513 12.1026 16.852 11.3097 17.0556C10.9893 17.1377 10.6505 17.0229 10.4166 16.7895L10.3375 16.7104L8.27793 14.6509Z" fill="#FF5249"/>
<path d="M11.3795 6.70338L11.462 6.76929C10.3238 8.18286 9.4625 9.67553 8.84531 11.0745L8.33018 10.5593C8.33018 10.5593 6.54551 10.156 5.16466 11.5369C5.16466 8.8977 7.60459 4.18678 11.3795 6.70338Z" fill="#FF5249"/>
<path d="M8.27793 14.6504L10.3375 16.71C10.1895 17.2954 9.83848 17.9116 9.30772 18.4424C8.16367 19.5864 5.16466 19.8232 5.16466 19.8232C5.16466 19.8232 5.40147 16.8242 6.54551 15.6802C7.07627 15.1494 7.69248 14.7983 8.27793 14.6504Z" fill="#FFDD78"/>
<path d="M13.1182 12.5724C13.3086 12.3815 13.3086 12.0724 13.1182 11.882C12.9272 11.691 12.6182 11.691 12.4272 11.882C12.2368 12.0724 12.2368 12.3815 12.4272 12.5724C12.6182 12.7628 12.9272 12.7628 13.1182 12.5724Z" fill="black"/>
<path d="M19.3326 9.12092C20.2866 8.16692 20.2868 6.62234 19.3326 5.66819C18.3785 4.71414 16.834 4.71409 15.8798 5.66819C14.9282 6.6198 14.9282 8.16863 15.88 9.12102C16.8319 10.0724 18.3808 10.0728 19.3326 9.12092ZM16.5704 6.35872C17.1428 5.78631 18.0696 5.78621 18.6421 6.35872C19.2145 6.93108 19.2146 7.85789 18.6421 8.43035C18.0711 9.00134 17.1417 9.00134 16.5705 8.43044C15.9995 7.85906 15.9994 6.92967 16.5704 6.35872Z" fill="black"/>
<path d="M4.98999 11.9877C5.05039 12.0128 5.11387 12.0249 5.17676 12.0249C5.30386 12.0249 5.42871 11.9753 5.52212 11.8819C6.50273 10.9013 7.71225 10.9626 8.10737 11.0146L8.27836 11.1856C7.94184 11.9864 7.67075 12.7826 7.47192 13.5571C7.40014 13.8374 7.42436 14.134 7.53105 14.4052C7.06094 14.6219 6.60737 14.94 6.21245 15.3349C4.95557 16.5919 4.70035 19.655 4.69009 19.7848C4.67886 19.9273 4.73052 20.0675 4.83155 20.1685C4.92349 20.2604 5.04785 20.3115 5.17676 20.3115C5.18955 20.3115 5.20239 20.3111 5.21524 20.31C5.34502 20.2998 8.4083 20.0446 9.66518 18.7877C10.06 18.3929 10.378 17.9394 10.5947 17.4694C10.8819 17.5823 11.1775 17.5963 11.4433 17.5281C12.2174 17.3294 13.0136 17.0584 13.8145 16.7218L13.9855 16.8928C14.0374 17.288 14.0987 18.4975 13.1181 19.478C12.9786 19.6176 12.9368 19.8277 13.0123 20.0101C13.0879 20.1925 13.2659 20.3115 13.4634 20.3115C15.396 20.3115 18.0979 19.1606 19.093 17.3011C19.5252 16.4937 19.8195 15.2162 18.8811 13.622C19.2789 13.2858 19.662 12.9343 20.0235 12.5728C21.6358 10.9605 22.9015 8.87347 23.7856 6.36977C24.8901 3.24487 24.9957 0.616166 24.9996 0.505814C25.0045 0.370317 24.9528 0.23892 24.8569 0.143022C24.761 0.0471727 24.6302 -0.00478036 24.4942 0.000346582C24.3838 0.00430165 21.7551 0.109966 18.6303 1.21441C16.1264 2.09849 14.0394 3.36426 12.4271 4.97656C12.0659 5.33784 11.7143 5.72094 11.3779 6.11894C9.78378 5.18056 8.50634 5.4748 7.69878 5.90698C5.83936 6.90209 4.68843 9.60404 4.68843 11.5367C4.68858 11.7341 4.80757 11.9122 4.98999 11.9877ZM8.97465 18.0971C8.30327 18.7685 6.72832 19.1226 5.73286 19.2672C5.87749 18.2717 6.23164 16.6968 6.90298 16.0255C7.27895 15.6495 7.71489 15.3644 8.15307 15.2039L9.79623 16.847C9.63569 17.2852 9.35068 17.7212 8.97465 18.0971ZM11.2007 16.5821C11.0594 16.6183 10.8957 16.5652 10.7741 16.4437C8.4039 14.0736 11.4464 17.1161 8.55669 14.2263C8.43491 14.1043 8.38178 13.9407 8.41787 13.7996C8.57426 13.1906 8.7788 12.5657 9.02753 11.9347L13.0654 15.9726C12.4344 16.2214 11.8096 16.4259 11.2007 16.5821ZM18.2322 16.8404C17.5924 18.0356 15.9817 18.9167 14.5138 19.2199C14.9818 18.3392 15.085 17.2181 14.914 16.5383C14.8743 16.3803 14.7713 16.301 14.7655 16.2916C15.9488 15.7185 17.0693 15.031 18.1095 14.2401C18.6177 15.1685 18.6595 16.0417 18.2322 16.8404ZM23.1109 5.30209L19.698 1.88921C21.5574 1.31167 23.1751 1.09541 23.9825 1.01768C23.9047 1.82525 23.6884 3.44287 23.1109 5.30209ZM13.1179 5.66708C14.5644 4.2205 16.4313 3.06924 18.6682 2.24053L22.7596 6.33193C21.931 8.56879 20.7797 10.4357 19.333 11.8823C18.893 12.3222 18.4193 12.7473 17.9248 13.1456C16.7363 14.1026 15.4281 14.9133 14.0324 15.5586L9.44155 10.9679C10.0869 9.57206 10.8975 8.26386 11.8544 7.07543C12.2531 6.58066 12.6781 6.10683 13.1179 5.66708ZM8.15976 6.76796C8.95854 6.34052 9.83163 6.38241 10.76 6.89057C9.96908 7.9307 9.28154 9.05131 8.70844 10.2347C8.70117 10.2302 8.61328 10.1197 8.45 10.0828C8.38286 10.0677 7.09092 9.78978 5.78013 10.4864C6.08345 9.01849 6.96445 7.40771 8.15976 6.76796Z" fill="black"/>
<path d="M10.3561 22.2407L11.7369 20.8594C11.9276 20.6686 11.9275 20.3595 11.7368 20.1688C11.5461 19.9782 11.2369 19.9783 11.0463 20.1689L9.6654 21.5503C9.47477 21.741 9.47482 22.0502 9.6655 22.2408C9.85627 22.4314 10.1654 22.4314 10.3561 22.2407Z" fill="black"/>
<path d="M3.4502 15.3345L4.83154 13.9537C5.02227 13.7631 5.02232 13.4539 4.83169 13.2632C4.64107 13.0724 4.33194 13.0724 4.14116 13.2631L2.75982 14.6439C2.56909 14.8345 2.56904 15.1437 2.75967 15.3344C2.95025 15.5251 3.25938 15.5253 3.4502 15.3345Z" fill="black"/>
<path d="M7.59386 20.8588L4.28625 24.1659C4.09553 24.3566 4.09553 24.6658 4.2862 24.8564C4.47678 25.0471 4.78601 25.0472 4.97673 24.8565L8.28434 21.5494C8.47506 21.3587 8.47506 21.0495 8.28439 20.8588C8.09381 20.6682 7.78459 20.6682 7.59386 20.8588Z" fill="black"/>
<path d="M3.68762 20.8588L0.380009 24.1659C0.189287 24.3566 0.189287 24.6658 0.37996 24.8564C0.570536 25.0471 0.879764 25.0472 1.07049 24.8565L4.3781 21.5494C4.56882 21.3587 4.56882 21.0495 4.37815 20.8588C4.18752 20.6682 3.87829 20.6682 3.68762 20.8588Z" fill="black"/>
<path d="M0.833696 20.7139L4.14082 17.4063C4.33149 17.2156 4.33149 16.9064 4.14077 16.7157C3.95015 16.5251 3.64092 16.5251 3.45024 16.7158L0.143121 20.0234C-0.0475524 20.2141 -0.0475524 20.5232 0.14317 20.7139C0.333843 20.9046 0.643022 20.9046 0.833696 20.7139Z" fill="black"/>
<path d="M14.4992 11.1915L15.1896 10.5011C15.3803 10.3104 15.3803 10.0012 15.1896 9.81049C14.9989 9.61981 14.6898 9.61981 14.499 9.81049L13.8086 10.5009C13.6179 10.6916 13.6179 11.0008 13.8086 11.1915C13.9993 11.3822 14.3085 11.3822 14.4992 11.1915Z" fill="black"/>
</g>
<defs>
<clipPath id="clip0">
<rect width="25" height="25" fill="white"/>
</clipPath>
</defs>
</svg>
