<svg width="20" height="20" viewBox="0 0 20 20" fill="none" xmlns="http://www.w3.org/2000/svg">
<path d="M19.7535 18.6207L15.2262 14.0517C17.9597 10.6897 17.7888 5.68966 14.6283 2.5C13.0053 0.862069 10.8698 0 8.56342 0C6.25706 0 4.12155 0.862069 2.49855 2.5C-0.832851 5.86207 -0.832851 11.2931 2.49855 14.6552C4.12155 16.2931 6.25706 17.1552 8.56342 17.1552C10.5281 17.1552 12.4073 16.4655 13.9449 15.1724L18.4722 19.7414C18.6431 19.9138 18.8993 20 19.0702 20C19.241 20 19.4973 19.9138 19.6681 19.7414C20.0952 19.4828 20.0952 18.9655 19.7535 18.6207ZM3.77986 13.4483C1.13182 10.7759 1.13182 6.37931 3.77986 3.7069C5.06117 2.41379 6.76959 1.72414 8.64884 1.72414C10.4427 1.72414 12.1511 2.41379 13.5178 3.7069C16.1659 6.37931 16.1659 10.7759 13.5178 13.4483C12.2365 14.7414 10.5281 15.431 8.64884 15.431C6.76959 15.5172 5.06117 14.7414 3.77986 13.4483Z" fill="#919191"/>
</svg>
