<svg width="29" height="28" viewBox="0 0 29 28" fill="none" xmlns="http://www.w3.org/2000/svg">
<path d="M5.52608 9.00203C4.56911 8.97561 3.62383 9.20765 2.79948 9.67129C1.97513 10.1349 1.30538 10.8113 0.867624 11.6221C0.429872 12.433 0.241995 13.3453 0.325706 14.2535C0.409418 15.1618 0.761301 16.0289 1.34069 16.7548C1.92007 17.4806 2.7033 18.0355 3.59986 18.3553C4.49641 18.675 5.46969 18.7467 6.40719 18.5619C7.3447 18.3771 8.20816 17.9435 8.89778 17.311C9.5874 16.6786 10.075 15.8733 10.3043 14.988H14.4687V16.6775C14.474 16.8493 14.5495 17.0124 14.679 17.1321C14.8085 17.2519 14.9819 17.3189 15.1623 17.3189C15.3428 17.3189 15.5162 17.2519 15.6457 17.1321C15.7752 17.0124 15.8507 16.8493 15.856 16.6775V14.988H18.4902V16.1828C18.4921 16.4883 18.6209 16.7807 18.8484 16.9961C19.0759 17.2115 19.3837 17.3324 19.7045 17.3324C20.0253 17.3324 20.3331 17.2115 20.5607 16.9961C20.7882 16.7807 20.917 16.4883 20.9189 16.1828V12.6751H10.3043C10.0389 11.6496 9.428 10.7352 8.56503 10.0719C7.70207 9.40851 6.63462 9.03269 5.52608 9.00203ZM5.31293 11.3029C5.66651 11.2945 6.01825 11.3538 6.34733 11.4773C6.67641 11.6007 6.97614 11.7858 7.22878 12.0215C7.48142 12.2572 7.68183 12.5388 7.81815 12.8496C7.95447 13.1604 8.02393 13.4941 8.02242 13.8309C8.02796 14.1649 7.96367 14.4966 7.8333 14.8067C7.70293 15.1168 7.50907 15.3991 7.26303 15.6372C7.01699 15.8753 6.72367 16.0643 6.40016 16.1933C6.07665 16.3224 5.72941 16.3889 5.37867 16.3889C5.02793 16.3889 4.68069 16.3224 4.35718 16.1933C4.03367 16.0643 3.74035 15.8753 3.49431 15.6372C3.24826 15.3991 3.05441 15.1168 2.92404 14.8067C2.79366 14.4966 2.72938 14.1649 2.73492 13.8309C2.73195 13.1721 3.00022 12.5385 3.48217 12.0658C3.96412 11.5932 4.62137 11.3193 5.31293 11.3029Z" fill="url(#paint0_linear)"/>
<path d="M6.81234 5.2522C8.49694 3.78398 10.5771 2.82549 12.8025 2.49198C15.028 2.15846 17.3041 2.46417 19.3571 3.37227C21.4101 4.28038 23.1525 5.75218 24.3749 7.61081C25.5974 9.46945 26.2477 11.6358 26.2477 13.8491C26.2477 16.0625 25.5974 18.2288 24.3749 20.0874C23.1525 21.946 21.4101 23.4179 19.3571 24.326C17.3041 25.2341 15.028 25.5398 12.8025 25.2063C10.5771 24.8728 8.49694 23.9142 6.81234 22.446C6.57408 22.2383 6.26166 22.1323 5.94382 22.1511C5.62598 22.1698 5.32875 22.312 5.11752 22.5462C4.90629 22.7805 4.79836 23.0877 4.81748 23.4002C4.83659 23.7127 4.98119 24.0049 5.21945 24.2126C7.25022 25.9825 9.75779 27.138 12.4406 27.5401C15.1234 27.9421 17.8672 27.5736 20.3421 26.4789C22.8169 25.3842 24.9175 23.6099 26.3911 21.3693C27.8647 19.1287 28.6486 16.5174 28.6486 13.8491C28.6486 11.1809 27.8647 8.56948 26.3911 6.32891C24.9175 4.08833 22.8169 2.31402 20.3421 1.2193C17.8672 0.124587 15.1234 -0.243923 12.4406 0.158129C9.75779 0.56018 7.25022 1.71566 5.21945 3.48561C4.98128 3.69331 4.83676 3.98553 4.81768 4.29799C4.79861 4.61045 4.90654 4.91753 5.11773 5.15176C5.32893 5.38599 5.6261 5.52817 5.94389 5.547C6.26168 5.56583 6.57406 5.45979 6.81234 5.2522Z" fill="url(#paint1_linear)"/>
<defs>
<linearGradient id="paint0_linear" x1="14.4774" y1="0" x2="14.4774" y2="27.6982" gradientUnits="userSpaceOnUse">
<stop stop-color="#D50101"/>
<stop offset="1" stop-color="#FF9801"/>
</linearGradient>
<linearGradient id="paint1_linear" x1="14.4774" y1="0" x2="14.4774" y2="27.6982" gradientUnits="userSpaceOnUse">
<stop stop-color="#D50101"/>
<stop offset="1" stop-color="#FF9801"/>
</linearGradient>
</defs>
</svg>
