<svg width="12" height="12" viewBox="0 0 12 12" fill="none" xmlns="http://www.w3.org/2000/svg">
<path d="M6 0C2.69147 0 0 2.69147 0 6C0 9.30853 2.69147 12 6 12C9.30853 12 12 9.30853 12 6C12 2.69147 9.30853 0 6 0Z" fill="#FFC107"/>
<path d="M6.49994 8.99997C6.49994 9.27609 6.27609 9.49994 5.99997 9.49994C5.72385 9.49994 5.5 9.27609 5.5 8.99997C5.5 8.72385 5.72385 8.5 5.99997 8.5C6.27609 8.5 6.49994 8.72385 6.49994 8.99997Z" fill="#ECEFF1"/>
<path d="M6.79147 6.32101C6.6145 6.4025 6.49997 6.58102 6.49997 6.77557V7.00006C6.49997 7.276 6.27649 7.50003 6 7.50003C5.72351 7.50003 5.50003 7.276 5.50003 7.00006V6.77557C5.50003 6.19202 5.84299 5.65707 6.37253 5.41254C6.88202 5.17807 7.24997 4.55551 7.24997 4.25C7.24997 3.56107 6.68948 3.00003 6 3.00003C5.31052 3.00003 4.75003 3.56107 4.75003 4.25C4.75003 4.52603 4.52646 4.75006 4.24997 4.75006C3.97348 4.75006 3.75 4.52603 3.75 4.25C3.75 3.00955 4.75946 2 6 2C7.24054 2 8.25 3.00955 8.25 4.25C8.25 4.92557 7.66397 5.91855 6.79147 6.32101Z" fill="#FAFAFA"/>
</svg>
