<?xml version="1.0" standalone="no"?><!DOCTYPE svg PUBLIC "-//W3C//DTD SVG 1.1//EN" "http://www.w3.org/Graphics/SVG/1.1/DTD/svg11.dtd"><svg t="1618917985295" class="icon" viewBox="0 0 1024 1024" version="1.1" xmlns="http://www.w3.org/2000/svg" p-id="5149" width="24" height="24" xmlns:xlink="http://www.w3.org/1999/xlink"><defs><style type="text/css"></style></defs><path d="M938.2 90.7c-27-24.2-68.6-22-92.8 5l-17.9 19.9c-38.6-45.5-96.1-74.5-160.4-74.5H318.3c-92.9 0-171.9 60.6-199.7 144.4h-30c-13.6 0-24.6 11-24.6 24.6 0 13.6 11 24.6 24.6 24.6h20c-0.4 5.5-0.7 11.1-0.7 16.7V307H88.6C75 307 64 318.1 64 331.7s11 24.6 24.6 24.6h19.3v72.3H88.6c-13.6 0-24.6 11-24.6 24.6 0 13.6 11 24.6 24.6 24.6h19.3v72.3H88.6c-13.6 0-24.6 11-24.6 24.6 0 13.6 11 24.6 24.6 24.6h19.3v72.3H88.6c-13.6 0-24.6 11-24.6 24.7 0 13.6 11 24.6 24.6 24.6h19.3v51.6c0 7 0.4 13.9 1 20.7H88.6c-13.6 0-24.6 11-24.6 24.6 0 13.6 11 24.6 24.6 24.6h31.3c28.9 81.7 106.9 140.4 198.3 140.4h348.9c116 0 210.3-94.4 210.3-210.4V256.7l65.7-73.2c24.3-27.1 22.1-68.6-4.9-92.8z m-98.9 681.8c0 94.9-77.2 172.1-172.1 172.1H318.3c-68.4 0-127.5-40.2-155.2-98.2 7.6 7.3 17.7 11.8 29 11.8 23.1 0 42-18.8 42-42 0-23.1-18.8-42-42-42-14.7 0-27.6 7.6-35.1 19h-9.5c-0.8-6.8-1.4-13.7-1.4-20.7v-51.6H157c7.5 11.4 20.4 19 35 19 23.1 0 42-18.8 42-42 0-23.1-18.8-42-42-42-13.2 0-24.8 6.2-32.5 15.7h-13.4v-72.3H157c7.5 11.4 20.4 19 35 19 23.1 0 42-18.8 42-42 0-23.1-18.8-42-42-42-13.2 0-24.8 6.2-32.5 15.7h-13.4v-72.3H157c7.5 11.4 20.4 19 35 19 23.1 0 42-18.8 42-42 0-23.1-18.8-42-42-42-13.2 0-24.8 6.2-32.5 15.7h-13.4v-72.3h9.1c7.1 13.2 20.8 22.3 36.8 22.3 23.1 0 42-18.8 42-42 0-23.1-18.8-42-42-42-11.6 0-22.2 4.8-29.8 12.4H146v-55.6c0-5.6 0.3-11.2 0.9-16.7h10c7.5 11.4 20.4 18.9 35 18.9 23.1 0 42-18.8 42-42 0-23.1-18.8-42-42-42-13.2 0-24.8 6.2-32.5 15.7h-0.2C185.1 122.9 246.6 79 318.1 79H667c54.4 0 102.9 25.5 134.5 65l-71.2 79.4H289.9c-4.4 0-8 3.6-8 8s3.6 8 8 8h426.2L639 325.8H289.9c-4.4 0-8 3.6-8 7.9 0 4.4 3.6 8 8 8h334.8l-100 111.5H289.9c-4.4 0-8 3.6-8 8s3.6 8 8 8h220.6c-3.4 4.1-5.7 8.2-7.1 12.3-13.1 19.8-30.9 47.8-48 76.9H285.2c-1.7 0-3.2 3.6-3.2 8s1.4 8 3.2 8h161.1c-20.5 36.1-38.3 72.2-42.9 95.6H284.8c-1.6 0-2.8 3.6-2.8 7.9 0 4.4 1.3 8 2.8 8h117.9c0.3 1.5 0.8 3 1.4 4.2 2.9 5.4 8.4 8.5 15 8.5 37.8 0 133.6-87.3 172.4-124.3h137.4c1.4 0 2.5-3.5 2.5-8 0-4.4-1.1-8-2.5-8H606.6c1-1 2.1-2.1 3.2-3.3l77.1-86h52.4c4.4 0 8-3.6 8-8s-3.6-8-8-8h-38.1l138.1-153.9v473.4z m-658.7 20.7h-8c5.3-4.5 12.1-7.3 19.5-7.3 16.7 0 30.3 13.6 30.3 30.3 0 16.7-13.6 30.3-30.3 30.3-5.4 0-10.4-1.6-14.8-4h3.3c13.6 0 24.6-11 24.6-24.6 0-13.7-11-24.7-24.6-24.7z m0-121.6h-3.3c4.4-2.5 9.4-4 14.8-4 16.7 0 30.3 13.6 30.3 30.3 0 16.7-13.6 30.3-30.3 30.3-7.5 0-14.2-2.8-19.5-7.3h8c13.6 0 24.6-11 24.6-24.6 0-13.6-11-24.7-24.6-24.7z m0-121.5h-3.3c4.4-2.5 9.4-4 14.8-4 16.7 0 30.3 13.6 30.3 30.3 0 16.7-13.6 30.3-30.3 30.3-7.5 0-14.2-2.8-19.5-7.3h8c13.6 0 24.6-11 24.6-24.6 0-13.7-11-24.7-24.6-24.7z m0-121.5h-3.3c4.4-2.5 9.4-4 14.8-4 16.7 0 30.3 13.6 30.3 30.3 0 16.7-13.6 30.3-30.3 30.3-7.5 0-14.2-2.8-19.5-7.3h8c13.6 0 24.6-11 24.6-24.6 0-13.7-11-24.7-24.6-24.7z m3.8-121.2c2.5-0.7 5-1.1 7.7-1.1 16.7 0 30.3 13.6 30.3 30.3 0 16.7-13.6 30.3-30.3 30.3-9.2 0-17.2-4.1-22.8-10.6h11.3c13.6 0 24.6-11 24.6-24.6 0-12.3-9-22.4-20.8-24.3z m-3.8-121.9h-3.3c4.4-2.5 9.4-4 14.8-4 16.7 0 30.3 13.6 30.3 30.3 0 16.7-13.6 30.3-30.3 30.3-7.5 0-14.2-2.8-19.5-7.3h8c13.6 0 24.6-11 24.6-24.6 0-13.7-11-24.7-24.6-24.7z m261.5 437.3c16.4-32.2 40.4-73.1 65.5-112.5 6.6 11.7 18.1 23.1 30.4 34.1 11.8 10.6 22.5 19.2 32.6 23.2-30.1 28.2-67.2 60.4-98 83l-30.5-27.8z" p-id="5150" fill="#ffffff"></path></svg>