<?xml version="1.0" standalone="no"?><!DOCTYPE svg PUBLIC "-//W3C//DTD SVG 1.1//EN" "http://www.w3.org/Graphics/SVG/1.1/DTD/svg11.dtd"><svg t="1619079428887" class="icon" viewBox="0 0 1024 1024" version="1.1" xmlns="http://www.w3.org/2000/svg" p-id="48303" xmlns:xlink="http://www.w3.org/1999/xlink" width="200" height="200"><defs><style type="text/css"></style></defs><path d="M477.696 34.816v166.912h146.432L477.696 34.816z m-36.864 0h-256c-40.448 0-73.216 37.376-73.216 83.456v500.224c0 46.08 32.768 83.456 73.216 83.456h366.08c40.448 0 73.216-37.376 73.216-83.456V243.2H440.832V34.816z" fill="#E7DEAC" p-id="48304"></path><path d="M752.128 295.424v171.008h171.008l-171.008-171.008z m-43.008 0H410.112c-47.104 0-85.504 38.4-85.504 85.504v512.512c0 47.104 38.4 85.504 85.504 85.504h427.008c47.104 0 85.504-38.4 85.504-85.504V508.928h-213.504V295.424zM219.136 263.68h106.496c8.192 0 14.848-6.656 14.848-14.848V142.336c0-8.192-6.656-14.848-14.848-14.848-8.192 0-14.848 6.656-14.848 14.848v70.144l-102.4-102.4c-5.632-5.632-15.36-5.632-21.504 0s-5.632 15.36 0 21.504l101.888 101.888H219.136c-4.096 0-7.68 1.536-10.752 4.608-2.56 2.56-4.608 6.656-4.608 10.752 0 8.192 6.656 14.848 15.36 14.848z" fill="#BDAE5A" p-id="48305"></path><path d="M451.072 771.072v-130.56h42.496c15.872 0 26.624 0.512 31.232 2.048 7.68 2.048 13.824 6.144 18.944 12.8s7.68 14.848 7.68 25.6c0 8.192-1.536 14.848-4.608 19.968-3.072 5.632-6.656 9.728-11.264 12.8-4.608 3.072-9.216 5.12-13.824 6.144-6.144 1.024-15.36 2.048-27.136 2.048h-17.408v49.152h-26.112z m26.624-108.544v36.864h14.336c10.24 0 17.408-0.512 20.992-2.048 3.584-1.536 6.144-3.584 8.192-6.656s3.072-6.144 3.072-10.24c0-4.608-1.536-8.704-4.096-11.776-2.56-3.072-6.144-5.12-10.752-5.632-3.072-0.512-9.216-1.024-18.944-1.024h-12.8zM572.928 771.072v-130.56h25.6l53.248 87.04v-87.04h24.576v130.56H650.24L597.504 686.08v84.992h-24.576zM764.928 722.944v-22.016h56.832V752.64c-5.632 5.12-13.312 10.24-24.064 14.336-10.24 4.096-20.992 6.144-31.744 6.144-13.824 0-25.6-3.072-35.84-8.704s-17.92-13.824-23.04-24.576-7.68-22.016-7.68-34.816c0-13.824 3.072-25.6 8.704-36.352 5.632-10.752 13.824-18.432 25.088-24.064 8.192-4.096 18.944-6.656 31.232-6.656 16.384 0 28.672 3.584 37.888 10.24 9.216 6.656 14.848 16.384 17.408 28.16l-26.112 5.12c-2.048-6.656-5.12-11.264-10.24-15.36s-11.264-5.632-18.944-5.632c-11.264 0-20.48 3.584-27.648 10.752-6.656 7.168-10.24 17.92-10.24 32.256 0 15.36 3.584 27.136 10.24 34.816s15.872 11.776 27.136 11.776c5.632 0 11.264-1.024 16.384-3.072 5.632-2.048 10.24-4.608 14.336-7.68v-16.384h-29.696z" fill="#FFFFFF" p-id="48306"></path></svg>