<?xml version="1.0" standalone="no"?><!DOCTYPE svg PUBLIC "-//W3C//DTD SVG 1.1//EN" "http://www.w3.org/Graphics/SVG/1.1/DTD/svg11.dtd"><svg t="1619079422715" class="icon" viewBox="0 0 1024 1024" version="1.1" xmlns="http://www.w3.org/2000/svg" p-id="48013" xmlns:xlink="http://www.w3.org/1999/xlink" width="200" height="200"><defs><style type="text/css"></style></defs><path d="M477.696 34.816v166.912h146.432L477.696 34.816z m-36.864 0h-256c-40.448 0-73.216 37.376-73.216 83.456v500.224c0 46.08 32.768 83.456 73.216 83.456h366.08c40.448 0 73.216-37.376 73.216-83.456V243.2H440.832V34.816z" fill="#BDAE5A" p-id="48014"></path><path d="M752.128 295.424v171.008h171.008l-171.008-171.008z m-43.008 0H410.112c-47.104 0-85.504 38.4-85.504 85.504v512.512c0 47.104 38.4 85.504 85.504 85.504h427.008c47.104 0 85.504-38.4 85.504-85.504V508.928h-213.504V295.424z" fill="#E7DEAC" p-id="48015"></path><path d="M176.64 194.56V116.736h25.088c9.728 0 15.872 0.512 18.944 1.024 4.608 1.024 8.192 3.584 11.264 7.68 3.072 4.096 4.608 9.216 4.608 15.36 0 4.608-1.024 8.704-2.56 12.288-1.536 3.072-4.096 5.632-6.656 7.68-2.56 2.048-5.632 3.072-8.192 3.584-3.584 0.512-9.216 1.024-16.384 1.024h-10.24V194.56h-15.872z m15.872-64.512v22.016h8.704c6.144 0 10.24-0.512 12.288-1.024 2.048-1.024 3.584-2.048 5.12-3.584s1.536-4.096 1.536-6.656c0-3.072-1.024-5.12-2.56-7.168-1.536-2.048-3.584-3.072-6.144-3.584-2.048-0.512-5.632-0.512-11.264-0.512h-7.68zM249.344 194.56V116.736h15.36L296.448 168.96V116.736h14.848V194.56h-15.872l-31.232-50.688V194.56h-14.848zM364.032 165.888v-13.312h33.792v31.232c-3.072 3.072-8.192 6.144-14.336 8.192-6.144 2.56-12.8 3.584-18.944 3.584-8.192 0-15.36-1.536-21.504-5.12-6.144-3.584-10.752-8.192-13.824-14.848-3.072-6.144-4.608-13.312-4.608-20.48 0-8.192 1.536-15.36 5.12-21.504s8.192-11.264 14.848-14.336c5.12-2.56 11.264-4.096 18.432-4.096 9.728 0 17.408 2.048 22.528 6.144 5.632 4.096 8.704 9.728 10.24 16.896l-15.36 3.072c-1.024-3.584-3.072-6.656-6.144-9.216-3.072-2.048-6.656-3.072-11.264-3.072-6.656 0-12.288 2.048-16.384 6.656-4.096 4.608-6.144 10.752-6.144 19.456 0 9.216 2.048 16.384 6.144 20.992 4.096 4.608 9.728 7.168 16.384 7.168 3.072 0 6.656-0.512 9.728-2.048s6.144-3.072 8.704-4.608v-9.728h-17.408z" fill="#FFFFFF" p-id="48016"></path><path d="M564.736 801.792h148.48c11.776 0 20.992-9.216 20.992-20.992v-148.48c0-11.776-9.216-20.992-20.992-20.992s-20.992 9.216-20.992 20.992v97.792l-142.336-142.336c-8.192-8.192-21.504-8.192-29.696 0s-8.192 21.504 0 29.696l142.336 142.336h-97.792c-5.632 0-11.264 2.56-14.848 6.144-3.584 3.584-6.144 9.216-6.144 14.848 0 11.264 9.216 20.992 20.992 20.992z" fill="#BDAE5A" p-id="48017"></path></svg>