<?xml version="1.0" encoding="utf-8"?>
<!-- Generator: Adobe Illustrator 22.0.0, SVG Export Plug-In . SVG Version: 6.00 Build 0)  -->
<svg version="1.1" xmlns="http://www.w3.org/2000/svg" xmlns:xlink="http://www.w3.org/1999/xlink" x="0px" y="0px"
	 viewBox="0 0 200 200" style="enable-background:new 0 0 200 200;" xml:space="preserve">
<style type="text/css">
	.st0{fill:#FFE5C6;}
	.st1{fill:#EFAE61;}
	.st2{fill:#FFFFFF;}
</style>
<path class="st0" d="M93.3,6.8v32.6h28.6L93.3,6.8z M86.1,6.8h-50c-7.9,0-14.3,7.3-14.3,16.3v97.7c0,9,6.4,16.3,14.3,16.3h71.5
	c7.9,0,14.3-7.3,14.3-16.3V47.5H86.1C86.1,47.5,86.1,6.8,86.1,6.8z"/>
<path class="st1" d="M146.9,57.7v33.4h33.4L146.9,57.7z M138.5,57.7H80.1c-9.2,0-16.7,7.5-16.7,16.7v100.1c0,9.2,7.5,16.7,16.7,16.7
	h83.4c9.2,0,16.7-7.5,16.7-16.7V99.4h-41.7V57.7z"/>
<path class="st1" d="M48.8,47.2H38.2c-1.1,0-2,0.9-2,2c0,1.1,0.9,2,2,2h10.6c1.1,0,2-0.9,2-2C50.8,48,49.9,47.2,48.8,47.2z"/>
<path class="st1" d="M56.7,47.2h-1.3c-1.1,0-2,0.9-2,2c0,1.1,0.9,2,2,2h1.3c1.1,0,2-0.9,2-2C58.7,48,57.8,47.2,56.7,47.2z"/>
<path class="st1" d="M70.6,33.9H38.8c-1.5,0-2.6,1.2-2.6,2.6c0,1.5,1.2,2.6,2.6,2.6h31.8c1.5,0,2.6-1.2,2.6-2.6
	C73.3,35.1,72.1,33.9,70.6,33.9z"/>
<path class="st1" d="M70.6,20.7H38.8c-1.5,0-2.6,1.2-2.6,2.6c0,1.5,1.2,2.6,2.6,2.6h31.8c1.5,0,2.6-1.2,2.6-2.6
	C73.3,21.8,72.1,20.7,70.6,20.7z"/>
<path class="st2" d="M119.4,145h-11l2.1,2.1c0.9,0.9,0.9,2.3,0,3.2c-0.8,0.9-2.2,0.9-3.1,0.1c0,0,0,0-0.1-0.1l-6-6.1
	c-0.2-0.2-0.4-0.5-0.5-0.8c-0.4-0.9-0.2-1.8,0.5-2.5l5.9-6.1c0.8-0.8,2.2-0.8,3,0c0.9,0.9,0.9,2.3,0.1,3.2l-2.3,2.4h11.3
	c1.2,0,2.2,1,2.2,2.3C121.6,144,120.6,145,119.4,145L119.4,145z M96.1,169.6c0.1,0,0.2,0,0.3,0h23.4c1.6,0,2.8-1.2,2.8-2.6
	s-1.2-2.6-2.8-2.6H98.3l0-43.4h21.6c1.6,0,2.8-1.1,2.8-2.6c0-1.5-1.2-2.6-2.8-2.6H96.4c-0.1,0-0.2,0-0.3,0c-1.2,0-2.2,1.2-2.2,2.6
	l0,48.7C93.9,168.5,94.9,169.6,96.1,169.6z M128.4,142.7c0-1.2,1-2.3,2.2-2.3h11.3l-2.3-2.4c-0.8-0.9-0.8-2.4,0.1-3.2
	c0.4-0.4,0.9-0.6,1.5-0.6c0.6,0,1.1,0.2,1.5,0.6l5.9,6.1c0.6,0.7,0.8,1.6,0.5,2.5c-0.1,0.3-0.3,0.5-0.5,0.8l-6,6.1
	c-0.4,0.4-1,0.7-1.5,0.7c-0.6,0-1.2-0.2-1.6-0.7c-0.9-0.9-0.8-2.3,0-3.2l2.1-2.1h-11C129.4,144.9,128.4,144,128.4,142.7
	C128.4,142.7,128.4,142.7,128.4,142.7L128.4,142.7z M156.1,167l0-48.7c0-1.4-1-2.6-2.2-2.6c-0.1,0-0.2,0-0.3,0h-23.4
	c-1.6,0-2.8,1.1-2.8,2.6c0,1.5,1.2,2.6,2.8,2.6h21.6l0,43.4h-21.5c-1.6,0-2.8,1.1-2.8,2.6c0,1.5,1.2,2.6,2.8,2.6h23.4
	c0.1,0,0.2,0,0.3,0C155.1,169.6,156.1,168.5,156.1,167L156.1,167z"/>
</svg>
