<?xml version="1.0" encoding="utf-8"?>
<!-- Generator: Adobe Illustrator 22.0.0, SVG Export Plug-In . SVG Version: 6.00 Build 0)  -->
<svg version="1.1" xmlns="http://www.w3.org/2000/svg" xmlns:xlink="http://www.w3.org/1999/xlink" x="0px" y="0px"
	 viewBox="0 0 200 200" style="enable-background:new 0 0 200 200;" xml:space="preserve">
<style type="text/css">
	.st0{fill:#D7EBFF;}
	.st1{fill:#4A7AAB;}
	.st2{fill:#FFFFFF;}
</style>
<path class="st0" d="M93.3,6.8v32.6h28.6L93.3,6.8z M86.1,6.8h-50c-7.9,0-14.3,7.3-14.3,16.3v97.7c0,9,6.4,16.3,14.3,16.3h71.5
	c7.9,0,14.3-7.3,14.3-16.3V47.5H86.1C86.1,47.5,86.1,6.8,86.1,6.8z"/>
<path class="st1" d="M146.9,57.7v33.4h33.4L146.9,57.7z M138.5,57.7H80.1c-9.2,0-16.7,7.5-16.7,16.7v100.1c0,9.2,7.5,16.7,16.7,16.7
	h83.4c9.2,0,16.7-7.5,16.7-16.7V99.4h-41.7V57.7z"/>
<path class="st1" d="M48.8,47.2H38.2c-1.1,0-2,0.9-2,2c0,1.1,0.9,2,2,2h10.6c1.1,0,2-0.9,2-2C50.8,48,49.9,47.2,48.8,47.2z"/>
<path class="st1" d="M56.7,47.2h-1.3c-1.1,0-2,0.9-2,2c0,1.1,0.9,2,2,2h1.3c1.1,0,2-0.9,2-2C58.7,48,57.8,47.2,56.7,47.2z"/>
<path class="st1" d="M70.6,33.9H38.8c-1.5,0-2.6,1.2-2.6,2.6c0,1.5,1.2,2.6,2.6,2.6h31.8c1.5,0,2.6-1.2,2.6-2.6
	C73.3,35.1,72.1,33.9,70.6,33.9z"/>
<path class="st1" d="M70.6,20.7H38.8c-1.5,0-2.6,1.2-2.6,2.6c0,1.5,1.2,2.6,2.6,2.6h31.8c1.5,0,2.6-1.2,2.6-2.6
	C73.3,21.8,72.1,20.7,70.6,20.7z"/>
<path class="st2" d="M148.6,118.9c0-0.6-0.2-0.9-0.6-1.3c-0.4-0.4-0.9-0.6-1.3-0.6H98.6c-0.4,0-0.9,0.2-1.3,0.6
	c-0.4,0.4-0.6,0.7-0.6,1.3v46.6c0,0.6,0.2,0.9,0.6,1.3c0.4,0.4,0.9,0.6,1.3,0.6h11.2c0.6,0,0.9-0.2,1.3-0.6c0.4-0.4,0.6-0.7,0.6-1.3
	c0-0.4-0.2-0.9-0.6-1.3c-0.4-0.4-0.7-0.6-1.3-0.6h-9.4v-13.3l11.4-9.4l9.5,6.4c0.2,0.2,0.6,0.4,0.9,0.4c0.4,0,0.7-0.2,0.9-0.2
	c0.4-0.2,0.6-0.4,0.7-0.7l9.4-15.9l11.2,9.5l0.2,0.2v3.2c0,0.4,0.2,0.9,0.6,1.3c0.4,0.4,0.7,0.6,1.3,0.6c0.4,0,0.9-0.2,1.3-0.6
	c0.4-0.4,0.6-0.9,0.6-1.3V118.9z M144.8,120.7v15l-10.7-9.2c-0.2-0.4-0.6-0.4-0.9-0.6c-0.4,0-0.7,0-1.1,0.2
	c-0.2,0.2-0.6,0.4-0.7,0.7l-9.5,16.3l-9.2-6c-0.4-0.4-0.6-0.4-1.1-0.4c-0.4,0-0.7,0.2-0.9,0.6l-10.1,8v-24.7H144.8L144.8,120.7z"/>
<path class="st2" d="M114,125.6c-0.7-0.7-1.5-1.1-2.4-1.1s-1.9,0.4-2.6,1.1c-0.6,0.7-0.9,1.5-0.9,2.6c0,0.9,0.4,1.7,0.9,2.4
	c0.7,0.7,1.7,1.1,2.6,1.1s1.7-0.4,2.4-1.1c0.7-0.7,1.1-1.5,1.1-2.4C115.1,127.1,114.7,126.4,114,125.6z M147.6,157.6
	c0.4-0.2,0.6-0.7,0.7-1.1c0-0.6-0.2-1.1-0.6-1.5c-6-6.7-12-7.5-18-1.9c-3.6,2.2-6.5,1.7-8.8-1.7c-0.4-0.6-0.7-0.7-1.3-0.7
	c-0.4-0.2-0.9,0-1.3,0.2c-0.6,0.4-0.7,0.7-0.7,1.1c-0.2,0.6,0,1.1,0.2,1.5c3.7,5.6,8.4,6.4,14,2.8l0.2-0.2c4.3-4.1,8.6-3.6,12.9,1.3
	c0.4,0.4,0.7,0.6,1.3,0.7C146.9,158.2,147.3,158,147.6,157.6L147.6,157.6z"/>
<path class="st2" d="M122,162.1c-0.2-0.6-0.7-0.6-1.1-0.7c-0.6-0.2-0.9,0-1.5,0.2c-0.4,0.4-0.6,0.7-0.7,1.1c0,0.6,0,0.9,0.4,1.5
	c1.7,2.6,3.9,4.3,6.2,4.7c2.2,0.6,4.9-0.2,7.7-2.1c0.2,0,0.2,0,0.4-0.2c4.3-3.9,8.6-3.6,12.9,1.5c0.2,0.4,0.7,0.6,1.3,0.6
	c0.4,0.2,0.9,0,1.3-0.4c0.4-0.4,0.6-0.7,0.6-1.3c0.2-0.6,0-0.9-0.4-1.3c-6-6.9-12-7.5-18.2-1.9h-0.2v0.2c-1.7,1.1-3.4,1.3-4.7,1.1
	C124.4,164.9,123.1,163.8,122,162.1L122,162.1z"/>
</svg>
