<svg id="Layer_1" data-name="Layer 1" xmlns="http://www.w3.org/2000/svg" viewBox="0 0 289.79 343.58"><title>hellok</title><path d="M165.2,3.6c-5,1.9-15,10.7-17.7,15.7l-1.8,3.4-10.1.7c-10.3.7-27.3,3.2-31,4.6-1.5.5-4.8-.6-12.1-4.3C81.1,18,70.9,14.3,64,13.4a15.17,15.17,0,0,0-9.3,1.4c-4,1.8-4.9,2.8-8.1,9.4C38.7,40.7,37.1,62,43,74.2l1.8,3.9L41,86.3C36,97,32.1,110.6,31.3,120l-.6,7.5-7.6.3c-12.9.5-17.6,1.4-17.9,3.7-.4,3.9,1,4.6,6.8,3.5a85.33,85.33,0,0,1,11.9-1h6.7l1.5,7.2c.9,4,1.9,8.1,2.3,9,.6,1.2.4,1.8-.5,1.8-2,0-13.5,5.6-14.4,7-.4.7.1,2,1.1,3.1,1.9,1.8,2,1.8,7.8-1.1,3.2-1.7,6.6-3,7.5-3s3.1,2.4,4.9,5.3a77.72,77.72,0,0,0,5.7,8.3l2.5,3.1-5.7,3.6a97.11,97.11,0,0,0-11.1,8.3l-5.3,4.7,2.2,2.3,2.2,2.4,4.4-4a93.46,93.46,0,0,1,11.4-8.6l7.1-4.6,2.6,2.4c5.7,5.3,16.6,11.6,28.1,16.3l5.4,2.2-3.9.8a96.8,96.8,0,0,0-20.9,7.3c-10.7,5.3-24.3,18-29.1,27.3-2.4,4.6-2.9,6.6-2.9,13.4,0,6.4.5,8.9,2.3,12.3,5.4,10.1,16.6,16.8,26.9,16l5.2-.5-.7,4.6c-.4,2.5-.7,12.9-.7,23.1,0,17.2.2,18.9,2.3,23.5C74.9,340.8,87.3,346,113,346c14.6,0,31.9-4.5,35.9-9.4,1-1.2,2.1-.8,6.2,2,8.8,5.9,14,6.9,34.9,6.8,16.6,0,19.1-.3,24.2-2.3a29,29,0,0,0,15.5-14.3c3.7-7.7,4.6-16.6,4-36.3l-.5-18,6.8.3c9.7.5,14.4-1.1,19.9-6.6,16-16,3.3-46-25.7-61a93.1,93.1,0,0,0-11.9-5.3l-4.2-1.2,6.4-3.2a75.79,75.79,0,0,0,22.2-16.8l5.9-6.4,7.5,3.2c4.1,1.7,9.4,4.2,11.7,5.4,4.2,2.1,4.4,2.2,5.8.4a7.48,7.48,0,0,0,1.4-2.9c0-1-13.3-7.8-20.2-10.3l-2.7-1,3.4-7.5c1.9-4.1,3.5-8.2,3.5-9.1a2.43,2.43,0,0,1,1.4-2.1c1.2-.5,15.7,2.5,19.7,4.1,1.2.5,1.9-.2,2.7-2.4l1.1-3-5.7-1.6c-3.1-.9-8.2-2.1-11.5-2.7-4.8-.8-5.7-1.3-5.2-2.7a71.06,71.06,0,0,0,1.2-10l.6-8.4,10.6.7c5.8.4,12.1.9,13.9,1.3,3.3.5,3.3.5,3-2.8s-.4-3.4-6.3-4c-3.3-.4-9.5-.7-13.7-.8-8.8-.1-7.7,1.2-9.8-12.1a133.24,133.24,0,0,0-3.4-14.5l-2.2-7,2.2-4.5c3.1-5.9,4.7-14.3,4-19.4-.7-4.5-3.8-10.4-6.6-12.3-1.2-.9-1.9-3.3-2.4-8.5-1.4-14.2-4.3-23.1-8.9-27.6-8-7.6-21.5-5.9-41.1,5.3-4.4,2.5-8,4.4-8.1,4.2-3.3-7.1-9.4-14.1-14.7-16.8S170.6,1.6,165.2,3.6Zm13.6,6c7,2.9,12.4,9.5,16.8,20.6,3,7.8,3,8.1-.4,9.4-2.4.9-3.1.8-4-.7-1.9-3-7.1-5.2-10.7-4.5s-9.1,6.1-10.1,10.2c-1.5,6,1.5,13.3,6.7,16.2,1.6,1,2.8,2.4,2.7,3.2-.4,2.1-13.4,6.3-19.6,6.3-6.4,0-9.8-2.1-12.7-7.9s-2.7-20.5.4-29.3c4.2-12,11.6-20.7,20-23.7C172.7,7.7,174.4,7.7,178.8,9.6Zm62.6,5.6c4.3,1.9,6.3,7.6,9.1,25.8l.4,2.5-8.6-.4a77.2,77.2,0,0,0-14.3.8c-5.7,1.1-5.9,1.1-10.2-1.9a25.4,25.4,0,0,0-8.7-3.8c-4-.7-4.4-1-6.1-5.4L201.2,28l5.7-3.4C222.9,15,234.2,11.9,241.4,15.2ZM73.1,22c3.4,1.2,11.1,4.6,17.2,7.6l11,5.6,6.1-1.5c6.6-1.7,18.2-3.3,28.7-4.1l6.6-.5-1.4,4.1c-2.5,7.2-2.8,19.9-.8,27.5,4.2,15.4,16.5,19.7,35.6,12.4,5-2,5.5-2,6.4-.5,4.4,7.3,12.7,12.4,20.1,12.4,3.7,0,4.3.3,4.8,2.6,1,4,5.1,9.8,9.2,13.2,9.3,7.6,20.8,5.8,33.2-5.3,3.5-3.2,5.3-4.2,5.6-3.3,3,8.6,5.7,25.9,4.2,26.3-.6.2-4.5.8-8.6,1.5s-7.6,1.2-7.7,1.4,0,1.6.3,3.3l.6,2.9,6.1-1.3a64.38,64.38,0,0,1,8.6-1.3c2.3,0,2.4.1,1.7,7.2-1.1,11.4-.9,11.2-7.2,10.4L248,142v3.4c0,3.5,0,3.5,5,3.8l5,.3-3.5,7.9a71.49,71.49,0,0,1-4.2,8.7c-.5.5-3.2.1-6.1-.7s-5.5-1.4-5.7-1.2a11.8,11.8,0,0,0-1,3c-.7,2.6-.4,2.8,4,3.9l4.7,1.2-5.4,5.5c-10,10.3-24.8,18.3-41.3,22.3-28.2,6.8-77.3,3.9-106.1-6.2C83,190.3,69,183.2,64.1,179.2l-3.4-2.9,4.7-1.3c4.4-1.2,4.7-1.5,4.1-3.9a18.87,18.87,0,0,0-1.1-3.1c-.3-.2-3.3.5-6.7,1.7-4.7,1.6-6.5,1.9-7.5,1-2.5-2.1-10.4-13.8-9.8-14.5.4-.3,3.6-.8,7.1-1,6.5-.4,6.5-.5,6.5-3.4v-3l-8.7.3-8.7.4-1.2-4c-.6-2.2-1.4-5.8-1.8-7.9l-.7-3.9,8,.7,8.1.6v-2.9c0-3.4-1.7-4.1-10.4-4.1H36.7l.7-6.9c1.2-13.3,8.6-33.6,17.7-48.4A48.56,48.56,0,0,0,58,67.6a9.79,9.79,0,0,0-2.4-2c-2.5-1.5-2.5-1.5-4.9,2.5l-2.4,4-1.2-4.5c-1.7-7-1.4-20.3.8-28.8,2.1-8.3,6.3-17.3,8.3-18.1C59.2,19.5,67.5,20.1,73.1,22ZM186.2,42.4c1.7,1.2,1.7,1.4-.1,3a20.83,20.83,0,0,0-3.6,5.6c-1,2.2-2.1,4-2.5,4-1.3,0-3.8-3.5-4-5.5-.4-3.4-.1-4.4,2-6.5A6.15,6.15,0,0,1,186.2,42.4Zm25.1,3c14.2,6.1,14.1,26.2-.2,32.2-17.5,7.3-33.2-14.2-20.3-28A18.6,18.6,0,0,1,211.3,45.4Zm40.4,5.5c7.8,3.6,9.7,12.7,5.3,24.6-1.8,4.6-3.9,7.6-9.4,13.1-8.1,8-12.5,10.4-19,10.4-3.9,0-5.2-.6-8.7-3.7a35.46,35.46,0,0,1-6-7.4L212,84.1l2.1-1.2a4.7,4.7,0,0,1,4.6,0c3.6,1.6,10.1,1.3,13.4-.6s5.9-6.8,5.9-11c0-3.9-3.5-9.3-7-10.6a5,5,0,0,1-3.3-3.6c-.3-1.4-.8-3.6-1.2-4.8-.6-1.9-.3-2.2,2.7-2.6C238.4,48.6,247.6,49.1,251.7,50.9ZM230,67.9c2.6,5-.4,11.1-5.5,11.1-1.4,0-2.5-.2-2.5-.6a21.29,21.29,0,0,1,2.5-4.2c1.4-2,2.5-4.7,2.5-5.9C227,65.5,228.6,65.3,230,67.9ZM110.1,205.1c4.4,1,4.6,1.2,6.2,6.3,1.9,5.9,7.9,13.5,13.7,17.1,10.1,6.4,25.9,7.2,36.6,2a35.53,35.53,0,0,0,16.3-16.2c2.1-4.6,2.9-5.3,6-5.9,2-.3,5-1,6.8-1.4,3.2-.8,3.3-.7,7.9,6.3a148,148,0,0,1,23.9,72.3l.7,10.1-3.9.6c-2.1.4-19,1-37.6,1.3l-33.7.7v-3.1c0-2.9-.3-3.2-3-3.2s-3,.3-3,3.2v3.3l-28.2-.6c-15.6-.4-32.5-.7-37.6-.8l-9.4-.1.7-6.8c1.3-13.7,4.7-31.6,8.1-42.2,4.5-14.1,8.1-22.2,15.6-34.8,4.6-7.6,6.6-10.1,7.8-9.7A38.13,38.13,0,0,0,110.1,205.1Zm118.4,6.3c14.5,7,14.3,6.1,4.1,14.7-4.8,4.1-9.1,7.5-9.7,7.7s-1.7-1.6-2.8-4-4.4-8.7-7.5-14.2A102.34,102.34,0,0,1,207,205C207,203.4,219.7,207.2,228.5,211.4ZM93,205.3c0,.2-1.9,3.7-4.2,7.8s-5.6,10.4-7.3,14-3.1,6.6-3.2,6.8c-.4.6-18.3-14.1-18.3-15.1,0-1.8,9.9-7,18.5-9.7C89.7,205.5,93,204.7,93,205.3Zm44.7,3.7c7.1.6,19,1,26.6.8s13.7-.1,13.7.2c0,1.3-4,6.8-7,9.8-6,5.7-11.4,7.7-21,7.7-7.3,0-9.2-.4-13.6-2.7-5.6-3-10.9-8.4-13-13.4-1.8-4.2-1.7-4.7.1-4C124.3,207.7,130.7,208.4,137.7,209Zm-69,25.8c4.8,3.8,7,6.2,6.7,7.2-.3.8-2.1,7.3-3.9,14.5-3.8,14.6-4.4,15.3-13,14-10.9-1.6-20.2-12.9-19.2-23.1.7-6.7,3.7-12.5,9.9-19.1l5.1-5.3,3.6,3C59.9,227.7,64.7,231.6,68.7,234.8ZM251,228.2c10.7,13.4,12.8,26.4,5.7,34.5-4,4.5-8.2,6.3-14.9,6.3-8.3,0-9.5-.6-10.2-5.1-.4-2.2-2-8.2-3.6-13.3s-3-9.5-3-9.8,3.3-3,7.3-6.1a114.59,114.59,0,0,0,10.1-8.6c1.7-1.7,3.3-3.1,3.8-3.1S248.8,225.3,251,228.2ZM121.8,304.6l25.3.7-.3,12.6-.3,12.5-4,2.8c-8.4,5.8-27.4,8.2-44.8,5.5-13.6-2.1-18.4-4.7-22.1-11.9-2.3-4.6-2.9-7.3-3.4-14.9l-.5-9.2,12.4.6C90.9,303.7,107.9,304.3,121.8,304.6ZM228,306.2c0,13.2-4.8,24.6-12.2,29.1-4.2,2.6-6.1,3-18,4-20.7,1.6-34.8-1.1-42-8-2.7-2.6-2.8-2.9-2.8-14.5V305l9.3-.1c5-.1,18-.5,28.7-.9s23.4-.7,28.3-.8l8.7-.2Z" transform="translate(-5.14 -2.42)"/><path d="M85.5,130.6C78.9,137.7,82.6,152,91,152c6.1,0,10.1-7.3,8.5-15.6C98.1,128.6,90.3,125.4,85.5,130.6Zm9.4,3c5.9,7.6-1.4,20.1-7.6,13-3.6-4.2-2.7-13.8,1.4-14.9C92.2,130.8,92.9,131,94.9,133.6Z" transform="translate(-5.14 -2.42)"/><path d="M202.9,131.9c-7.2,7.2-1.6,22,7.6,19.7,7.9-2,8.7-17.9,1-21.4C207.6,128.4,206.1,128.7,202.9,131.9Zm9.7,2.8c2.1,2.8,1.7,9.6-.6,12.1-2.6,2.7-4.4,2.8-7,.2s-2.7-9.5-.3-12.2C206.8,132.5,210.9,132.5,212.6,134.7Z" transform="translate(-5.14 -2.42)"/><path d="M144.9,149.5c-6.2,2.7-9,11.1-5.3,16.3,5.2,7.5,20,6.7,23.8-1.3,2-4.1,2-5.8.2-9.4C160.5,149.2,151.7,146.6,144.9,149.5Zm12.5,7.1A5.39,5.39,0,0,1,159,160c0,4.7-10.2,6.8-14,3-2.4-2.4-2.5-3.8-.3-6.2S155.1,154.3,157.4,156.6Z" transform="translate(-5.14 -2.42)"/></svg>