<svg id="Icons" xmlns="http://www.w3.org/2000/svg" viewBox="0 0 1638.28 1638.28"><defs><style>.cls-1{fill:#cf2e2e;}.cls-2{fill:#fff;}</style></defs><title>Untitled-2</title><path class="cls-1" d="M1636.69,409.74c0,708.05-463.63,1102.54-756,1216.78a174.34,174.34,0,0,1-125.89,0C389.74,1483.82-.89,1044.84-.89,409.74c0-62.08,39.9-118.06,101-141.74l655-256C771.81,5.53,800,.28,818.07.28S864.33,5.53,881,12l655,256C1596.79,291.68,1636.69,347.66,1636.69,409.74Z"/><circle class="cls-2" cx="819.18" cy="1248.15" r="141.57"/><path class="cls-2" d="M869.33,997.09H817.12V610h0V222.9h18.12c42.64,0,167.3,36.91,167.3,79.55L946.86,919.57A77.75,77.75,0,0,1,869.33,997.09Z"/><path class="cls-2" d="M766.83,997.09H819V610h0V222.9H800.92c-42.64,0-167.3,36.91-167.3,79.55L689.3,919.57A77.75,77.75,0,0,0,766.83,997.09Z"/></svg>