<svg id="_LOGO" data-name="// LOGO" xmlns="http://www.w3.org/2000/svg" viewBox="0 0 562 567"><defs><style>.cls-1{fill:#44c0f0;}.cls-2{fill:#fff;}</style></defs><title>E-Maerket Logo</title><rect class="cls-1" x="5.1" y="5.09" width="556.9" height="556.9" rx="67.2"/><path class="cls-2" d="M123.38,276.31H74.24a4.76,4.76,0,0,1-4.07-7.25c7.24-11.82,24.91-36.4,58.55-61l.06-.05c1.15-1,36.6-31.94,99.07-44.69,0,0,86.68-20.44,170.45,18.43,0,0,70.07,35,99.35,87.47a4.77,4.77,0,0,1-4.18,7.07h-21A19,19,0,0,1,456,266.76c-6.17-10.85-19.79-29.65-47.66-49.62,0,0-50.37-37.19-129.39-29.34,0,0-45,3.28-82.26,26.61l-.08.05c-1.05.5-23.66,11.71-56.58,53.76A21.15,21.15,0,0,1,123.38,276.31Z"/><path class="cls-2" d="M444,295.67h49.14a4.77,4.77,0,0,1,4.08,7.25c-7.25,11.81-24.91,36.38-58.54,61a.39.39,0,0,0-.1.08c-1.43,1.26-36.85,32-99.05,44.67,0,0-86.68,20.44-170.45-18.43,0,0-70.07-35-99.35-87.46a4.77,4.77,0,0,1,4.18-7.07H94.88a19,19,0,0,1,16.52,9.55c6.17,10.84,19.79,29.65,47.66,49.61,0,0,50.37,37.19,129.39,29.35,0,0,45-3.28,82.23-26.6l.14-.08c1.34-.65,23.87-12,56.55-53.75A21.14,21.14,0,0,1,444,295.67Z"/><path class="cls-2" d="M333.48,306.81a16.91,16.91,0,0,0-13.8,7.23,43,43,0,0,1-22.15,16.64s-27.06,9.78-47-13l102.46-46a8.61,8.61,0,0,0,4.44-10.8A77.84,77.84,0,1,0,359,312.2a4.23,4.23,0,0,0-4.07-5.5ZM240.1,289.23a43.66,43.66,0,0,1,77.27-27.87L240.62,296A44.26,44.26,0,0,1,240.1,289.23Z"/></svg>
