<svg width="27" height="27" viewBox="0 0 27 27" fill="none" xmlns="http://www.w3.org/2000/svg">
<path d="M23.625 0H3.37499C1.51104 0 0 1.51103 0 3.37499V23.625C0 25.4889 1.51103 27 3.37499 27H23.625C25.4889 27 27 25.4889 27 23.625V3.37499C27 1.51104 25.4889 0 23.625 0Z" fill="#939393"/>
<path d="M16.4501 14.079C18.2867 11.4856 17.6725 7.89443 15.079 6.05827C12.4856 4.2221 8.89443 4.83591 7.05827 7.42979C5.2221 10.0232 5.83591 13.6139 8.42979 15.4501C10.2809 16.7607 12.7282 16.8616 14.6806 15.7085L18.9229 19.9253C19.3809 20.4075 20.1431 20.4268 20.6252 19.9688C21.1074 19.5112 21.1267 18.7491 20.6691 18.2669C20.6546 18.2515 20.6406 18.2375 20.6252 18.223L16.4501 14.079ZM11.7507 14.4721C9.70128 14.4726 8.03975 12.8124 8.03843 10.763C8.03799 8.71357 9.69821 7.05203 11.748 7.05115C13.7948 7.05027 15.4555 8.70787 15.4594 10.7546C15.4629 12.8045 13.8036 14.4686 11.7533 14.4721C11.7524 14.4721 11.752 14.4721 11.7507 14.4721Z" fill="white"/>
</svg>
