<svg width="29" height="29" viewBox="0 0 29 29" fill="none" xmlns="http://www.w3.org/2000/svg">
<path d="M14.2512 2.7832C20.726 2.7832 25.9749 8.02849 25.9749 14.4989C25.9749 20.9692 20.726 26.2145 14.2512 26.2145C7.77646 26.2145 2.52759 20.9692 2.52759 14.4989C2.52759 8.02849 7.77646 2.7832 14.2512 2.7832Z" fill="#DE5833"/>
<path d="M14.251 28.2414C21.8461 28.2414 28.0031 22.0886 28.0031 14.4987C28.0031 6.90882 21.8461 0.755981 14.251 0.755981C6.65595 0.755981 0.498901 6.90882 0.498901 14.4987C0.498901 22.0886 6.65595 28.2414 14.251 28.2414ZM14.251 27.0962C7.28884 27.0962 1.64491 21.4561 1.64491 14.4987C1.64491 7.54128 7.28884 1.90121 14.251 1.90121C21.2132 1.90121 26.8571 7.54128 26.8571 14.4987C26.8571 21.4561 21.2132 27.0962 14.251 27.0962Z" fill="#DE5833"/>
<path d="M9.73856 7.7345C9.68083 7.75671 9.62601 7.7799 9.57853 7.80481C8.00897 8.63116 7.31565 10.5613 7.72883 12.8742C8.10598 14.979 9.6518 22.1703 10.3596 25.5527C10.5662 25.6252 10.7754 25.6926 10.9871 25.7538C10.3568 22.7085 8.63636 14.7286 8.23493 12.4874C7.828 10.2074 8.22393 8.57142 9.73856 7.7345Z" fill="#D5D7D8"/>
<path d="M16.09 24.3264C16.0641 24.3437 16.0332 24.3598 16.0003 24.3756C15.9759 24.47 15.9387 24.5417 15.8844 24.5777C15.5603 24.7926 14.6446 24.9009 14.1612 24.7926C14.078 24.7741 14.015 24.7436 13.9658 24.7017C13.1404 25.1597 11.9534 25.7694 11.7123 25.632C11.3357 25.4162 11.2811 22.5639 11.3357 21.864C11.3755 21.3356 13.2329 22.1915 14.1364 22.6404C14.3361 22.4539 14.8255 22.3292 15.2587 22.2868C14.6042 20.695 14.1215 18.8743 14.4174 17.5832C14.0084 17.2984 13.4664 16.6379 13.5792 15.9485C13.6662 15.4237 15.0231 14.431 15.9838 14.371C16.9467 14.3103 17.2468 14.324 18.049 14.1321C18.0891 14.1225 18.1333 14.1119 18.1795 14.1008C18.6733 12.366 17.4889 9.34801 16.1679 8.02733C15.7372 7.59695 15.0751 7.32607 14.329 7.18308C14.0421 6.78958 13.5792 6.41334 12.924 6.06492C11.7073 5.41941 10.2037 5.15661 8.80292 5.39428C8.78112 5.39795 8.7591 5.40064 8.73741 5.40453C8.96435 5.42523 9.48372 5.89432 9.69274 5.92516C9.6512 5.95331 9.60027 5.97714 9.54372 5.9986C9.34754 6.07322 9.08089 6.11851 8.87122 6.20392C8.68098 6.28124 8.53778 6.39156 8.54005 6.58857C9.66685 6.47588 10.9016 6.65381 11.9401 7.1146C11.8621 7.12355 11.7852 7.13433 11.7084 7.14512C10.9719 7.24864 10.295 7.4393 9.80594 7.69713C9.78296 7.7091 9.76116 7.72204 9.73861 7.73445C8.22398 8.57137 7.82805 10.2074 8.23498 12.4873C8.63641 14.7285 10.368 22.832 10.9984 25.8773C12.0346 26.177 13.0035 26.4165 14.1364 26.4165C15.0981 26.4165 16.2548 26.2035 17.1492 25.9852C16.8351 25.3799 16.431 24.7105 16.1819 24.2305C16.1487 24.2701 16.1225 24.3047 16.09 24.3264ZM16.7238 12.8352C16.3133 12.8352 15.9784 12.5016 15.9784 12.089C15.9784 11.6784 16.3133 11.3446 16.7238 11.3446C17.1365 11.3446 17.4701 11.6784 17.4701 12.089C17.4701 12.5016 17.1365 12.8352 16.7238 12.8352ZM17.1728 10.0306C17.1728 10.0306 16.7026 9.76221 16.3378 9.76674C15.588 9.77655 15.3838 10.1076 15.3838 10.1076C15.3838 10.1076 15.5097 9.31846 16.4684 9.47676C16.9882 9.56314 17.1728 10.0306 17.1728 10.0306ZM9.26779 11.0008C9.26779 11.0008 8.93014 10.2489 9.83001 9.88039C10.7308 9.51181 11.1695 10.0901 11.1695 10.0901C11.1695 10.0901 10.5153 9.79445 9.87932 10.1939C9.24438 10.5929 9.26779 11.0008 9.26779 11.0008ZM10.0545 12.6035C10.0545 12.124 10.4424 11.736 10.9228 11.736C11.4019 11.736 11.7904 12.124 11.7904 12.6035C11.7904 13.083 11.4019 13.4706 10.9228 13.4706C10.4424 13.4708 10.0545 13.083 10.0545 12.6035Z" fill="white"/>
<path d="M11.7905 12.6035C11.7905 12.1241 11.402 11.7361 10.9229 11.7361C10.4425 11.7361 10.0546 12.1241 10.0546 12.6035C10.0546 13.0831 10.4425 13.4709 10.9229 13.4706C11.402 13.4706 11.7905 13.0831 11.7905 12.6035ZM11.3073 12.5398C11.1841 12.5401 11.0827 12.4389 11.0827 12.3144C11.0827 12.1896 11.1837 12.0892 11.3073 12.0892C11.4318 12.0892 11.5328 12.1896 11.5328 12.3144C11.5328 12.4389 11.4318 12.5398 11.3073 12.5398Z" fill="#2D4F8E"/>
<path d="M11.3072 12.0891C11.1836 12.0891 11.0826 12.1895 11.0826 12.3143C11.0826 12.4387 11.184 12.54 11.3072 12.5397C11.4317 12.5397 11.5327 12.4387 11.5327 12.3143C11.5327 12.1895 11.4317 12.0891 11.3072 12.0891Z" fill="white"/>
<path d="M16.7237 11.3447C16.3132 11.3447 15.9784 11.6785 15.9784 12.0891C15.9784 12.5017 16.3132 12.8354 16.7237 12.8354C17.1365 12.8354 17.47 12.5017 17.47 12.0891C17.47 11.6785 17.1365 11.3447 16.7237 11.3447ZM17.0547 12.0342C16.9495 12.0342 16.8626 11.9487 16.8626 11.8413C16.8626 11.7353 16.9495 11.6483 17.0547 11.6483C17.1644 11.6483 17.2486 11.7353 17.2486 11.8413C17.2486 11.9487 17.1644 12.0342 17.0547 12.0342Z" fill="#2D4F8E"/>
<path d="M17.0546 11.6482C16.9494 11.6482 16.8625 11.7352 16.8625 11.8412C16.8625 11.9486 16.9494 12.0341 17.0546 12.0341C17.1644 12.0341 17.2485 11.9486 17.2485 11.8412C17.2485 11.7352 17.1644 11.6482 17.0546 11.6482Z" fill="white"/>
<path d="M11.1695 10.0902C11.1695 10.0902 10.7308 9.51183 9.82996 9.88041C8.9301 10.2489 9.26775 11.0008 9.26775 11.0008C9.26775 11.0008 9.24433 10.5929 9.87928 10.1939C10.5153 9.79447 11.1695 10.0902 11.1695 10.0902Z" fill="url(#paint0_linear)"/>
<path d="M16.4684 9.47692C15.5096 9.31862 15.3838 10.1078 15.3838 10.1078C15.3838 10.1078 15.588 9.77671 16.3377 9.76689C16.7026 9.76236 17.1727 10.0308 17.1727 10.0308C17.1727 10.0308 16.9882 9.5633 16.4684 9.47692Z" fill="url(#paint1_linear)"/>
<path d="M15.9838 14.3711C15.0231 14.431 13.6662 15.4238 13.5792 15.9485C13.4664 16.6379 14.0084 17.2984 14.4174 17.5832C14.4184 17.584 14.4196 17.5849 14.4207 17.5857C14.8296 17.8699 17.5521 18.7877 18.9028 18.7623C20.255 18.736 22.4758 17.9084 22.2319 17.2454C21.9891 16.5821 19.7835 17.8306 17.4831 17.6175C15.7794 17.4593 15.4787 16.6966 15.8559 16.1395C16.3304 15.4393 17.1947 16.2723 18.6202 15.8461C20.0478 15.421 22.0444 14.6601 22.7852 14.2458C24.498 13.2915 22.0684 12.8958 21.4946 13.1605C20.9506 13.4117 19.0572 13.8892 18.1794 14.1008C18.1333 14.1119 18.0891 14.1225 18.049 14.1321C17.2468 14.3241 16.9467 14.3104 15.9838 14.3711Z" fill="#FDD209"/>
<path d="M13.8382 23.0704C13.8382 22.971 13.9181 22.8832 14.045 22.8082C14.0486 22.7479 14.0814 22.6918 14.1364 22.6404C13.2329 22.1915 11.3756 21.3356 11.3357 21.864C11.2811 22.564 11.3357 25.4162 11.7123 25.632C11.9534 25.7694 13.1404 25.1597 13.9658 24.7017C13.7277 24.4989 13.8382 24.0065 13.8382 23.0704Z" fill="#65BC46"/>
<path d="M16.1701 24.2259C16.174 24.2275 16.1782 24.2291 16.1821 24.2306C16.9217 24.5158 18.394 25.0527 18.7137 24.9355C19.1448 24.7708 19.0369 21.328 18.5531 21.2184C18.1654 21.1324 16.6816 22.1773 16.0978 22.6029C16.201 23.0387 16.326 23.9018 16.1701 24.2259Z" fill="#65BC46"/>
<path d="M14.3666 24.5413C13.8816 24.4339 14.0437 23.9489 14.0437 22.819C14.0437 22.8153 14.0447 22.8118 14.045 22.8081C13.9181 22.8831 13.8381 22.9709 13.8381 23.0703C13.8381 24.0064 13.7276 24.4988 13.9658 24.7016C14.015 24.7436 14.078 24.7741 14.1612 24.7925C14.6446 24.9008 15.5602 24.7925 15.8844 24.5776C15.9387 24.5416 15.9759 24.47 16.0003 24.3755C15.6209 24.5571 14.8107 24.6422 14.3666 24.5413Z" fill="#43A244"/>
<path d="M14.1364 22.6404C14.0814 22.6918 14.0486 22.7479 14.045 22.8082C14.0448 22.8118 14.0437 22.8154 14.0437 22.819C14.0437 23.949 13.8816 24.4339 14.3667 24.5413C14.8107 24.6422 15.6209 24.5572 16.0003 24.3756C16.0333 24.3598 16.0641 24.3436 16.09 24.3264C16.1225 24.3047 16.1487 24.2701 16.17 24.2259C16.3259 23.9017 16.2009 23.0386 16.0977 22.6028C16.0749 22.507 16.0533 22.4315 16.036 22.3873C15.9914 22.2771 15.6481 22.2487 15.2587 22.2868C14.8255 22.3291 14.3361 22.4539 14.1364 22.6404Z" fill="#65BC46"/>
<defs>
<linearGradient id="paint0_linear" x1="10.6001" y1="11.0008" x2="9.20569" y2="11.0008" gradientUnits="userSpaceOnUse">
<stop stop-color="#394A9F"/>
<stop offset="1" stop-color="#6176B9"/>
</linearGradient>
<linearGradient id="paint1_linear" x1="16.654" y1="10.1078" x2="15.3838" y2="10.1078" gradientUnits="userSpaceOnUse">
<stop stop-color="#394A9F"/>
<stop offset="1" stop-color="#6176B9"/>
</linearGradient>
</defs>
</svg>
