<svg width="27" height="27" viewBox="0 0 27 27" fill="none" xmlns="http://www.w3.org/2000/svg">
<g clip-path="url(#clip0)">
<path d="M25.2419 13.4788C25.2419 12.4127 25.1569 11.6348 24.973 10.828H13.0135V15.6398H20.0335C19.892 16.8356 19.1277 18.6365 17.4293 19.8466L17.4055 20.0076L21.1869 22.9895L21.4488 23.0161C23.8549 20.7542 25.2419 17.4263 25.2419 13.4788Z" fill="#4285F4"/>
<path d="M13.0135 26.1569C16.4526 26.1569 19.3399 25.0043 21.4488 23.0162L17.4292 19.8466C16.3536 20.6102 14.9099 21.1432 13.0135 21.1432C9.645 21.1432 6.78607 18.8814 5.76694 15.7551L5.61756 15.768L1.68564 18.8655L1.63422 19.011C3.72887 23.2466 8.03147 26.1569 13.0135 26.1569Z" fill="#34A853"/>
<path d="M5.7669 15.7553C5.498 14.9485 5.34237 14.084 5.34237 13.1908C5.34237 12.2976 5.498 11.4332 5.75276 10.6264L5.74563 10.4546L1.76445 7.30737L1.63419 7.37044C0.77088 9.12809 0.275513 11.1019 0.275513 13.1908C0.275513 15.2798 0.77088 17.2535 1.63419 19.0111L5.7669 15.7553Z" fill="#FBBC05"/>
<path d="M13.0134 5.23813C15.4053 5.23813 17.0187 6.28982 17.9387 7.16869L21.5336 3.59579C19.3258 1.50682 16.4526 0.224609 13.0134 0.224609C8.03146 0.224609 3.72887 3.13475 1.63422 7.37031L5.75278 10.6263C6.78606 7.50002 9.64499 5.23813 13.0134 5.23813Z" fill="#EB4335"/>
</g>
<defs>
<clipPath id="clip0">
<rect width="26.0216" height="26.0216" fill="white" transform="translate(0.274292 0.224609)"/>
</clipPath>
</defs>
</svg>
