<svg width="27" height="27" viewBox="0 0 27 27" fill="none" xmlns="http://www.w3.org/2000/svg">
<path d="M23.0432 0.265625H3.52699C1.73058 0.265625 0.274292 1.72191 0.274292 3.51832V23.0345C0.274292 24.8309 1.73057 26.2872 3.52699 26.2872H23.0432C24.8396 26.2872 26.2959 24.8309 26.2959 23.0345V3.51832C26.2959 1.72191 24.8396 0.265625 23.0432 0.265625Z" fill="#6001D2"/>
<path fill-rule="evenodd" clip-rule="evenodd" d="M12.2347 9.21057L10.0698 14.4309L7.92346 9.21057H4.34015L8.33427 18.1771L6.89712 21.4082H10.4057L15.7246 9.21057H12.2347Z" fill="#F7F2FF"/>
<path fill-rule="evenodd" clip-rule="evenodd" d="M16.4463 13.99C15.158 13.99 14.1912 14.9586 14.1912 16.0858C14.1912 17.1948 15.1201 18.1108 16.3704 18.1108C17.6593 18.1108 18.6255 17.1599 18.6255 16.0152C18.6255 14.8881 17.6972 13.99 16.4463 13.99Z" fill="#F7F2FF"/>
<mask id="mask0" mask-type="alpha" maskUnits="userSpaceOnUse" x="15" y="5" width="8" height="9">
<path d="M15.4043 5.22058H22.946V13.2152H15.4043V5.22058Z" fill="white"/>
</mask>
<g mask="url(#mask0)">
<path fill-rule="evenodd" clip-rule="evenodd" d="M18.9667 5.22058L15.4043 13.2152H19.3838L22.946 5.22058H18.9667Z" fill="#F7F2FF"/>
</g>
</svg>
