
	<svg xmlns="http://www.w3.org/2000/svg" xmlns:xlink="http://www.w3.org/1999/xlink" version="1.1" width="128" height="128" viewBox="0 0 100 100">


		<defs>
			<linearGradient id="Gradient_2" gradientUnits="userSpaceOnUse" x1="50" y1="50" x2="50" y2="0" spreadMethod="pad">
			<stop offset="0%" stop-color="#FFFFFF" stop-opacity="0.7"/>
			<stop offset="100%" stop-color="#FFFFFF" stop-opacity="0.1"/>
		</linearGradient><linearGradient id="Gradient_3" gradientUnits="userSpaceOnUse" x1="50" y1="75" x2="50" y2="0" spreadMethod="pad">
			<stop offset="0%" stop-color="#FFFFFF" stop-opacity="0.1"/>
			<stop offset="100%" stop-color="#FFFFFF" stop-opacity="0.7"/>
		</linearGradient><g id="background">
			<path fill="url(#background-gradient)" stroke="none" d=" M 93.35 75 L 93.35 25 50 0 6.65 25 6.65 75 50 100 93.35 75 Z"/>
		</g><mask id="mask">
			<path fill="#FFFFFF" stroke="none" d=" M 93.35 75 L 93.35 25 50 0 6.65 25 6.65 75 50 100 93.35 75 Z"/>
		</mask><g id="gloss-top">
			<path fill="url(#Gradient_2)" stroke="none" d=" M 93.35 25.05 L 93.35 25 50 0 6.65 25 6.65 25.05 50 50 93.35 25.05 Z"/>
		</g><g id="gloss-right">
			<path fill="url(#Gradient_3)" stroke="none" d=" M 93.35 75 L 93.35 25 50 0 6.65 25 93.35 75 Z"/>
		</g><g id="gloss-left">
			<path fill="url(#Gradient_3)" stroke="none" d=" M 6.65 25 L 6.65 75 93.35 25 50 0 6.65 25 Z"/>
		</g>
			
	<linearGradient id="background-gradient" x1="0" y1="0" y2="1" x2="0" >
		<stop stop-color="#009E74" offset="0%"/>
		<stop stop-color="#009E74" offset="100%"/>
	</linearGradient>

			
			
			<g transform="scale(0.3333333333333333) translate(0 0.00000762939453125)" id="picture"><path d="M205.923 171.985c-1.92-1.911-4.8-3.823-7.2-5.257-2.88-1.434-5.76-2.868-8.639-3.824l-.48 49.228c3.36-.478 6.24-1.433 9.12-2.867 2.88-1.434 5.28-2.868 7.2-5.258 1.92-1.911 3.84-4.301 4.8-7.169.96-2.867 1.92-5.735 1.92-9.08s-.48-6.214-1.92-9.082c-.96-2.39-2.88-4.779-4.8-6.69zm-35.038-81.728c-2.4.956-4.8 2.39-6.72 4.302-1.92 1.912-3.36 3.823-4.32 6.213-.96 2.39-1.92 5.257-1.92 8.125 0 3.346.48 6.691 1.92 9.081.96 2.868 2.88 4.78 4.8 6.691 1.92 1.912 4.32 3.824 6.72 5.257 2.4 1.434 5.28 2.868 8.16 3.824V87.39c-3.36.956-6.24 1.912-8.64 2.867zm13.92-54.963c-63.838 0-115.197 51.14-115.197 114.706s51.359 114.706 115.196 114.706S300 213.566 300 150 248.642 35.294 184.804 35.294zm45.598 162.022c-2.4 4.78-5.76 9.081-9.6 12.427-3.84 3.345-8.64 6.213-13.92 8.125-5.28 1.911-11.04 3.345-16.799 4.301v16.25l-10.08 1.912v-17.684h-.96c-3.36 0-7.68-.478-12.48-.956s-9.599-1.912-13.919-3.345c-4.32-1.912-8.16-4.302-11.52-7.17-3.36-3.345-4.799-7.169-4.799-12.426 0-2.39.48-4.301 1.44-5.735.96-1.434 1.92-2.868 3.84-3.824 1.44-.956 3.36-1.912 5.28-2.39 1.92-.477 3.84-.955 5.76-.955s3.84 0 5.76.478v4.301c0 7.17 1.92 12.426 5.279 15.772 3.84 3.346 9.12 5.735 15.84 6.213v-52.573c-5.28-1.912-10.56-4.302-15.84-6.691-5.28-2.39-9.6-5.258-13.44-8.603-3.84-3.346-7.2-7.17-9.6-11.949-2.4-4.301-3.36-10.037-3.36-16.25 0-6.213.96-11.47 3.36-16.25 2.4-4.78 5.28-8.603 9.12-11.47 3.84-2.868 8.16-5.736 13.44-7.17 5.28-1.911 10.56-2.867 16.32-3.345V61.103l11.039-1.434v18.162c3.36 0 7.2.478 12 .956 4.32.478 8.64 1.434 12.96 2.867 3.839 1.434 7.679 3.824 10.079 6.692 2.88 2.867 4.32 6.69 4.32 10.992 0 2.39-.48 3.824-1.44 5.736-.96 1.433-2.4 2.867-3.84 3.823s-3.36 1.912-5.28 2.39c-1.92.478-3.84.478-5.76.478s-3.84 0-5.76-.478v-4.302c0-5.735-1.44-10.036-4.8-13.382s-7.2-5.257-12.479-6.213v49.706c5.76 1.911 11.04 4.301 16.8 6.69 5.28 2.39 10.079 5.258 13.919 8.604 3.84 3.345 7.2 7.169 9.6 11.47 2.4 4.302 3.84 9.56 3.84 15.772-.96 7.17-1.92 12.905-4.32 17.684z M0 61.765h44.32v76.94h1.166l50.733-76.94h43.736L83.39 144.353l62.98 93.882H99.134l-53.649-84H44.32v84H0V61.765z"/></g>
			
	<linearGradient id="picture-gradient" x1="0" y1="0" y2="1" x2="0" >
		<stop stop-color="#ffffff" offset="0%"/>
		<stop stop-color="#f1ffcc" offset="100%"/>
	</linearGradient>

		</defs>

		

			<use xlink:href="#background" fill="url(#background-gradient)" />

		

			<g mask="url(#mask)">
				<g transform="
				        translate(
                                50 50
)
                            translate(0 0)  scale(0.6)  
                            translate(
                                -50 -50
)">
						<use xlink:href="#picture" fill="url(#picture-gradient)"  />
				</g>
			</g>

		

			<use xlink:href="#gloss-right" opacity="0.65" />


	</svg>
