<?xml version="1.0" encoding="utf-8"?>
<!-- Generator: Adobe Illustrator 22.0.0, SVG Export Plug-In . SVG Version: 6.00 Build 0)  -->
<svg version="1.1" id="图层_1" xmlns="http://www.w3.org/2000/svg" xmlns:xlink="http://www.w3.org/1999/xlink" x="0px" y="0px"
	 viewBox="0 0 200 200" style="enable-background:new 0 0 200 200;" xml:space="preserve">
<style type="text/css">
	.st0{fill:#FF7651;}
	.st1{fill:#5EA162;}
	.st2{fill:#FFFFFF;}
</style>
<path class="st0" d="M112.9,126.8H69.7v61.6c0,5.8,4.8,10.6,10.6,10.6h109c5.8,0,10.6-4.8,10.6-10.6v-109c0-5.8-4.8-10.6-10.6-10.6
	h-65v46.6C124.4,121.6,119.2,126.8,112.9,126.8L112.9,126.8z"/>
<path class="st0" d="M115.1,127.4H75.6v56.4c0,5.4,4.4,9.7,9.7,9.7H185c5.4,0,9.7-4.4,9.7-9.7V84c0-5.4-4.4-9.7-9.7-9.7h-59.6v42.6
	C125.5,122.6,120.8,127.4,115.1,127.4L115.1,127.4z"/>
<path class="st1" d="M9.9,131.1h110.8c5.4,0,9.7-4.4,9.7-9.7V10.6c0-5.4-4.4-9.7-9.7-9.7H9.9c-5.4,0-9.7,4.4-9.7,9.7v110.8
	C0.2,126.7,4.6,131.1,9.9,131.1z"/>
<path class="st1" d="M13.8,125.6h103.6c4.3,0,7.8-3.5,7.8-7.8V14.1c0-4.3-3.5-7.8-7.8-7.8H13.8C9.6,6.3,6,9.8,6,14.1v103.6
	C6,122,9.6,125.6,13.8,125.6z"/>
<path class="st2" d="M115,144.6h30.2c1.2,0,2.2-1,2.2-2.2s-1-2.2-2.2-2.2H115c-1.2,0-2.2,1-2.2,2.2S113.8,144.6,115,144.6z
	 M115,160.6h50.9c1.2,0,2.2-1,2.2-2.2s-1-2.2-2.2-2.2H115c-1.2,0-2.2,1-2.2,2.2S113.8,160.6,115,160.6z M165.9,176.8
	c1.2,0,2.2-1,2.2-2.2s-1-2.2-2.2-2.2H115c-1.2,0-2.2,1-2.2,2.2s1,2.2,2.2,2.2H165.9L165.9,176.8z M36,61.1h36c1.4,0,2.6-1.2,2.6-2.6
	c0-1.4-1.1-2.5-2.6-2.5H36c-1.4,0-2.6,1.2-2.6,2.6C33.4,60,34.6,61.1,36,61.1z M36,80.2h60.6c1.4,0,2.6-1.2,2.6-2.6S98,75,96.6,75
	H36c-1.4,0-2.6,1.2-2.6,2.6C33.4,79,34.6,80.2,36,80.2z M96.6,99.5c1.4,0,2.6-1.2,2.6-2.6c0-1.4-1.2-2.6-2.6-2.6H36
	c-1.4,0-2.6,1.2-2.6,2.6c0,1.4,1.2,2.6,2.6,2.6H96.6z"/>
<path class="st1" d="M153.6,43.1v0.2c0,2,1.6,3.7,3.7,3.7l24.2,1.8c2,0,3.7-1.8,3.7-3.7c0-2-1.8-3.7-3.7-3.7l-16-1.2L189.3,16
	c1.4-1.6,1.4-3.9-0.2-5.5c-1.6-1.4-3.7-1.4-5.3,0L160.3,34l-1.2-15.6c0-2.2-1.8-3.9-3.9-3.9c-2.1,0-3.9,1.8-3.9,3.9L153.6,43.1z"/>
<path class="st0" d="M46.3,154.7c-0.4-1.8-1.8-3.2-3.5-3.2l-24-2c-2,0-3.7,1.8-3.7,3.7c0,2,1.6,3.7,3.7,3.7l17.1,1.4L11,184
	c-1.6,1.6-1.6,4.1,0,5.7c1.4,1.6,3.9,1.6,5.3,0.2l0.2-0.2l23.3-23.8l1.2,16c0,2.2,1.8,3.9,3.9,3.9c2.2,0,3.9-1.8,3.9-3.9L47,156.7
	C46.9,155.9,46.7,155.3,46.3,154.7z"/>
</svg>
