<?xml version="1.0" encoding="utf-8"?>
<!-- Generator: Adobe Illustrator 22.0.0, SVG Export Plug-In . SVG Version: 6.00 Build 0)  -->
<svg version="1.1" id="图层_1" xmlns="http://www.w3.org/2000/svg" xmlns:xlink="http://www.w3.org/1999/xlink" x="0px" y="0px"
	 viewBox="0 0 200 200" style="enable-background:new 0 0 200 200;" xml:space="preserve">
<style type="text/css">
	.st0{fill:#C24CDB;}
	.st1{fill:#FFFFFF;}
</style>
<path class="st0" d="M109.8,124.9H65.5v63.2c0,6,4.9,10.9,10.9,10.9h111.8c6,0,10.9-4.9,10.9-10.9V76.3c0-6-4.9-10.9-10.9-10.9
	h-66.7v47.8C121.6,119.6,116.2,124.9,109.8,124.9L109.8,124.9z"/>
<path class="st0" d="M112,125.5H71.5v57.8c0,5.5,4.5,10,10,10h102.3c5.5,0,10-4.5,10-10V81c0-5.5-4.5-10-10-10h-61.1v43.7
	C122.7,120.6,117.9,125.5,112,125.5z"/>
<path class="st0" d="M71.5,125.5H112c5.9,0,10.8-4.9,10.8-10.8V38.9L87.4,3.5H11.6C5.7,3.5,0.8,8.4,0.8,14.3v100.4
	c0,5.9,4.9,10.8,10.8,10.8H71.5z M84.9,9.8l31.7,31.7v0.2h-24c-4.3,0-7.7-3.5-7.7-7.7V9.8z M6.9,114.7V14.3c0-2.4,2.2-4.7,4.7-4.7
	h67.1V34c0,7.5,6.1,13.8,13.8,13.8h24.2v66.9c0,2.6-2.2,4.7-4.7,4.7H11.6C8.9,119.4,6.9,117.2,6.9,114.7z"/>
<path class="st0" d="M33.5,53h35.3c1.4,0,2.6-1.2,2.6-2.6c0-1.4-1.2-2.6-2.6-2.6H33.5c-1.4,0-2.6,1.2-2.6,2.6
	C30.9,51.8,32.1,53,33.5,53z M33.5,71.7h59.3c1.4,0,2.6-1.1,2.5-2.6c0-1.4-1.2-2.6-2.6-2.6H33.5c-1.4,0-2.6,1.2-2.6,2.6
	S32.1,71.7,33.5,71.7z M92.8,90.6c1.4,0,2.6-1.2,2.5-2.6c0-1.4-1.2-2.6-2.6-2.6H33.5c-1.4,0-2.6,1.2-2.6,2.6s1.2,2.6,2.6,2.6H92.8z
	 M137,9.5h11.2c4,0,7.2,1.6,10,4.5c2.8,2.8,3.8,6.7,3.8,10.8V48l-7.6-7.7c-0.8-0.8-1.9-1-2.9-0.6c-1.4,0.6-2.1,2.2-1.5,3.6
	c0.1,0.3,0.3,0.6,0.6,0.9l12.1,12.2c1,1.1,2.8,1.1,3.8,0L179,43.8c1.1-1.1,1-2.8,0-3.9c-0.3-0.3-0.7-0.6-1.2-0.7
	c-0.9-0.3-1.9,0-2.6,0.7l-7.7,7.7V24.8c0-5.5-1.5-10.7-5.4-14.6c-3.8-3.9-8.4-6.1-13.9-6.1H137c-1,0-1.9,0.5-2.3,1.4
	c-0.5,0.8-0.5,1.9,0,2.7C135.1,9,136,9.5,137,9.5z"/>
<path class="st1" d="M152.9,127.8c0,5.5,4.4,10,9.8,10c5.4,0,9.8-4.5,9.8-10c0,0,0,0,0,0c0-5.5-4.4-10-9.8-10
	C157.3,117.8,152.9,122.3,152.9,127.8C152.9,127.8,152.9,127.8,152.9,127.8z"/>
<path class="st1" d="M172.8,173.2H91.7c8.9-13.3,24.6-35.4,28.6-35.4c3.9,0,17,17.9,23,24.1c0,0,7.6-10.5,11.7-10.5
	C159,151.5,172.8,173.1,172.8,173.2z"/>
</svg>
