<?xml version="1.0" standalone="no"?><!DOCTYPE svg PUBLIC "-//W3C//DTD SVG 1.1//EN" "http://www.w3.org/Graphics/SVG/1.1/DTD/svg11.dtd"><svg t="1612080041767" class="icon" viewBox="0 0 1024 1024" version="1.1" xmlns="http://www.w3.org/2000/svg" p-id="14695" width="24" height="24" xmlns:xlink="http://www.w3.org/1999/xlink"><defs><style type="text/css"></style></defs><path d="M184.692364 538.763636c111.173818-23.877818 96.023273-156.741818 92.695272-185.786181-5.445818-44.753455-58.112-123.019636-129.629091-116.829091C57.832727 244.224 44.683636 374.225455 44.683636 374.225455c-12.171636 60.090182 29.114182 188.462545 140.032 164.538181z m118.062545 231.098182c-3.258182 9.332364-10.519273 33.233455-4.235636 54.039273 12.404364 46.661818 52.898909 48.756364 52.898909 48.756364h58.228363v-142.312728h-62.347636c-27.997091 8.378182-41.518545 30.161455-44.544 39.517091z m88.273455-453.888c61.393455 0 111.034182-70.679273 111.034181-158.045091C502.062545 70.656 452.421818 0 391.028364 0c-61.323636 0-111.057455 70.632727-111.057455 157.928727 0 87.365818 49.757091 158.021818 111.057455 158.021818z m264.471272 10.426182c82.059636 10.658909 134.842182-76.916364 145.338182-143.290182 10.705455-66.304-42.263273-143.290182-100.352-156.532363-58.228364-13.358545-130.909091 79.895273-137.541818 140.706909-7.912727 74.309818 10.635636 148.596364 92.555636 159.115636z m201.076364 390.213818s-126.976-98.210909-201.099636-204.404363c-100.468364-156.555636-243.2-92.858182-290.955637-13.21891-47.522909 79.592727-121.623273 129.954909-132.142545 143.290182-10.682182 13.125818-153.367273 90.158545-121.693091 230.865455 31.650909 140.613818 142.941091 137.937455 142.941091 137.937454s81.989818 8.075636 177.105454-13.218909c95.185455-21.108364 177.105455 5.259636 177.105455 5.259637s222.301091 74.449455 283.112727-68.840728c60.741818-143.36-34.373818-217.669818-34.373818-217.669818z m-380.322909 213.271273h-144.523636c-62.394182-12.450909-87.249455-55.04-90.391273-62.301091-3.072-7.377455-20.805818-41.588364-11.403637-99.84 26.949818-87.272727 103.842909-93.509818 103.84291-93.509818h76.939636v-94.557091l65.512727 1.000727v349.207273h0.023273z m269.149091-1.000727h-166.306909c-64.442182-16.616727-67.444364-62.417455-67.444364-62.417455V682.589091l67.444364-1.093818v165.259636c4.119273 17.640727 26.018909 20.829091 26.018909 20.829091h68.538182v-185.018182h71.749818v246.318546z m235.403636-490.984728c0-31.767273-26.368-127.394909-124.229818-127.394909-98.001455 0-111.104 90.251636-111.104 154.065455 0 60.881455 5.143273 145.873455 126.882909 143.173818 121.786182-2.699636 108.450909-137.937455 108.450909-169.844364z" fill="#3245DF" p-id="14696"></path></svg>