<?xml version="1.0" standalone="no"?><!DOCTYPE svg PUBLIC "-//W3C//DTD SVG 1.1//EN" "http://www.w3.org/Graphics/SVG/1.1/DTD/svg11.dtd"><svg t="1612857202555" class="icon" viewBox="0 0 1024 1024" version="1.1" xmlns="http://www.w3.org/2000/svg" p-id="3034" width="24" height="24" xmlns:xlink="http://www.w3.org/1999/xlink"><defs><style type="text/css"></style></defs><path d="M810.666667 938.666667H213.333333a128 128 0 0 1-128-128v-170.666667a42.666667 42.666667 0 0 1 85.333334 0v170.666667a42.666667 42.666667 0 0 0 42.666666 42.666666h597.333334a42.666667 42.666667 0 0 0 42.666666-42.666666v-170.666667a42.666667 42.666667 0 0 1 85.333334 0v170.666667a128 128 0 0 1-128 128z" p-id="3035" fill="#ffffff"></path><path d="M512 682.666667a42.666667 42.666667 0 0 1-30.293333-12.373334l-213.333334-213.333333a42.666667 42.666667 0 0 1 60.586667-60.586667l183.04 183.466667 183.04-183.466667a42.666667 42.666667 0 0 1 60.586667 60.586667l-213.333334 213.333333A42.666667 42.666667 0 0 1 512 682.666667z" p-id="3036" fill="#ffffff"></path><path d="M512 682.666667a42.666667 42.666667 0 0 1-42.666667-42.666667V128a42.666667 42.666667 0 0 1 85.333334 0v512a42.666667 42.666667 0 0 1-42.666667 42.666667z" p-id="3037" fill="#ffffff"></path></svg>