<svg xmlns="http://www.w3.org/2000/svg" viewBox="0 0 1024 1024"><path d="M910.222222 0H113.777778C51.2 0 0 51.2 0 113.777778v796.444444c0 62.577778 51.2 113.777778 113.777778 113.777778h796.444444c62.577778 0 113.777778-51.2 113.777778-113.777778V113.777778c0-62.577778-51.2-113.777778-113.777778-113.777778z m-79.644444 278.755556h-85.333334c-68.266667 0-79.644444 34.133333-79.644444 79.644444V455.111111h159.288889l-22.755556 159.288889h-136.533333V1024H506.311111v-409.6H364.088889V455.111111h136.533333V335.644444c0-136.533333 85.333333-210.488889 204.8-210.488888 56.888889 0 108.088889 5.688889 125.155556 5.688888v147.911112z" fill="#485A96"></path></svg>