<?xml version="1.0" standalone="no"?><!DOCTYPE svg PUBLIC "-//W3C//DTD SVG 1.1//EN" "http://www.w3.org/Graphics/SVG/1.1/DTD/svg11.dtd"><svg t="1607413607558" class="icon" viewBox="0 0 1024 1024" version="1.1" xmlns="http://www.w3.org/2000/svg" p-id="1883" xmlns:xlink="http://www.w3.org/1999/xlink" width="24" height="24"><defs><style type="text/css"></style></defs><path d="M839.68 757.76a143.36 143.36 0 1 1-286.63808-4.77184 61.44 61.44 0 0 0-82.08384 0A143.36 143.36 0 1 1 184.32 757.76H163.84a40.96 40.96 0 1 1 0-81.92h46.1824A143.19616 143.19616 0 0 1 327.68 614.4a143.1552 143.1552 0 0 1 115.54816 58.49088 143.6672 143.6672 0 0 1 137.54368 0A143.1552 143.1552 0 0 1 696.32 614.4a143.19616 143.19616 0 0 1 117.6576 61.44H860.16a40.96 40.96 0 1 1 0 81.92h-20.48z m-512-81.92a81.92 81.92 0 0 0-81.92 81.92 20.48 20.48 0 0 0 40.96 0 40.96 40.96 0 0 1 40.96-40.96 20.48 20.48 0 0 0 0-40.96z m-14.7456-552.96h398.1312a81.92 81.92 0 0 1 80.34304 65.86368l43.6224 218.03008a40.96 40.96 0 0 0 27.19744 30.8224l72.31488 24.10496A40.96 40.96 0 0 1 962.56 500.57216V512a40.96 40.96 0 0 1-40.96 40.96H102.4a40.96 40.96 0 0 1-40.96-40.96v-11.42784a40.96 40.96 0 0 1 28.01664-38.87104l72.2944-24.10496a40.96 40.96 0 0 0 27.2384-30.8224l43.60192-218.03008A81.92 81.92 0 0 1 312.91392 122.88z m48.80384 245.76a20.48 20.48 0 0 0 20.41856-18.78016l11.93984-143.36A20.48 20.48 0 0 0 373.69856 184.32h-60.78464a20.48 20.48 0 0 0-20.0704 16.46592l-28.672 143.36a20.48 20.48 0 0 0 20.0704 24.49408h77.49632z" p-id="1884" fill="#5F6368"></path></svg>