<svg xmlns="http://www.w3.org/2000/svg"  width="24" height="24"  viewBox="0 0 1024 1024"><path d="M515.333333 514.8c9.2-20.666667 149.866667-339.066667 159.466667-383.066667 9.866667-45.333333-64.4-100-64.4-100S529.2 48.8 512.533333 89.333333c-18.666667-38.533333-94.133333-57.2-94.133333-57.2s-76.133333 52-67.866667 97.733334c8 44.266667 154.933333 364.666667 164.266667 385.066666v0.933334s0-0.133333 0.133333-0.4c0.133333 0.4 0.266667 0.533333 0.266667 0.533333s0.133333-0.4 0.133333-1.2z" fill="#FFDB00"></path><path d="M514.533333 517.733333c1.066667 0.4 1.733333 0.666667 1.733334 0.666667s-0.8-0.933333-2.4-2.666667c-11.6-32.4-126-351.066667-149.866667-388.133333-25.066667-39.066667-116.266667-25.2-116.266667-25.2s-44 67.333333-29.2 108c-40.266667-15.2-108.266667 25.733333-108.266666 25.733333S93.2 326.666667 131.466667 353.2C167.733333 378.4 482.666667 504.8 513.866667 517.333333l1.066666 1.066667s-0.266667-0.266667-0.4-0.666667z" fill="#F7B100"></path><path d="M514.4 518.266667c-11.6-5.6-335.6-162.666667-380.133333-172.4-45.333333-9.866667-100 64.4-100 64.4s16.533333 78.533333 55.6 97.066666c-39.733333 17.066667-58.933333 95.066667-58.933334 95.066667s52 76.133333 97.733334 67.866667c45.733333-8.266667 387.6-151.733333 387.6-151.733334s-0.666667-0.266667-1.866667-0.266666z" fill="#E95513"></path><path d="M504.666667 528.666667c6.4-6.533333 10.133333-10.266667 10.133333-10.266667S164.4 640.666667 125.333333 665.866667c-39.066667 25.066667-25.2 116.266667-25.2 116.266666s68 44.4 108.666667 29.066667c-16.666667 40.133333 25.2 109.466667 25.2 109.466667s90.533333 17.066667 117.066667-21.2c26.533333-38.133333 165.2-381.066667 165.2-381.066667s-4.266667 3.733333-11.6 10.266667z" fill="#6A3906"></path><path d="M669.066667 901.733333c-8.266667-45.733333-152.933333-383.466667-152.933334-383.466666s-0.4 7.866667-1.2 21.466666c-0.133333-13.6-0.266667-21.466667-0.266666-21.466666S354.666667 849.866667 344.8 895.333333c-9.866667 45.333333 64.4 100 64.4 100s78-16.4 96.8-55.2c16.933333 39.866667 95.2 59.2 95.2 59.2s76.133333-51.866667 67.866667-97.6z" fill="#004E7B"></path><path d="M919.466667 796.666667s17.066667-90.533333-21.2-117.066667c-38.133333-26.533333-382.133333-161.333333-382.133334-161.333333s3.866667 4.266667 10.666667 11.733333c-7.733333-7.466667-12.133333-11.733333-12.133333-11.733333s124.8 347.2 149.866666 386.266666c25.066667 39.066667 116.266667 25.2 116.266667 25.2s43.866667-67.066667 29.333333-107.866666c40.266667 16.666667 109.333333-25.2 109.333334-25.2z" fill="#036EB7"></path><path d="M940.933333 522.133333c39.733333-17.2 58.933333-95.066667 58.933334-95.066666s-52-76.133333-97.733334-67.866667c-45.733333 8.266667-385.866667 159.066667-385.866666 159.066667h0.266666-1.733333s336.266667 155.333333 381.733333 165.2c45.333333 9.866667 100-64.4 100-64.4s-16.533333-78.4-55.6-96.933334z" fill="#2CA6E0"></path><path d="M919.866667 248.266667s-64.933333-42.4-105.733334-30c11.6-40.666667-26.933333-104.533333-26.933333-104.533334s-90.533333-17.066667-117.066667 21.2c-25.2 36.266667-141.466667 350-152.933333 380.933334-1.466667 1.6-2.266667 2.533333-2.266667 2.533333s0.533333-0.266667 1.6-0.666667c-0.133333 0.4-0.266667 0.533333-0.266666 0.533334l0.8-0.8c29.6-11.2 340.4-129.066667 377.6-153.066667 39.066667-24.933333 25.2-116.133333 25.2-116.133333z" fill="#8DC21F"></path></svg>