<?xml version="1.0" standalone="no"?><!DOCTYPE svg PUBLIC "-//W3C//DTD SVG 1.1//EN" "http://www.w3.org/Graphics/SVG/1.1/DTD/svg11.dtd"><svg t="1611504413636" class="icon" viewBox="0 0 1024 1024" version="1.1" xmlns="http://www.w3.org/2000/svg" p-id="6561" width="24" height="24" xmlns:xlink="http://www.w3.org/1999/xlink"><defs><style type="text/css"></style></defs><path d="M208.011636 0h608A208.011636 208.011636 0 0 1 1024 208.011636v608A207.988364 207.988364 0 0 1 816.011636 1024H208.011636A207.988364 207.988364 0 0 1 0 816.011636V208.011636A207.988364 207.988364 0 0 1 208.011636 0z" fill="#F2725E" p-id="6562"></path><path d="M746.053818 277.922909H277.946182a58.507636 58.507636 0 0 0-58.507637 58.530909v351.092364a58.507636 58.507636 0 0 0 58.507637 58.530909h468.107636a58.530909 58.530909 0 0 0 58.530909-58.530909V336.453818a58.554182 58.554182 0 0 0-58.530909-58.530909z m19.502546 279.226182a78.126545 78.126545 0 0 0-84.689455 17.128727l-52.363636 52.363637c-1.070545-1.210182-1.861818-2.536727-3.025455-3.677091l-165.701818-165.725091a78.103273 78.103273 0 0 0-110.475636 0l-90.856728 90.856727v-172.637091a58.507636 58.507636 0 0 1 58.507637-58.530909h390.097454a58.507636 58.507636 0 0 1 58.507637 58.530909v181.690182z m-126.789819-181.666909c-37.678545 0-68.282182 30.557091-68.282181 68.258909a68.282182 68.282182 0 0 0 136.564363-0.023273 68.235636 68.235636 0 0 0-68.282182-68.235636z" fill="#FFFFFF" p-id="6563"></path></svg>