<?xml version="1.0" standalone="no"?><!DOCTYPE svg PUBLIC "-//W3C//DTD SVG 1.1//EN" "http://www.w3.org/Graphics/SVG/1.1/DTD/svg11.dtd"><svg t="1609072900896" class="icon" viewBox="0 0 1024 1024" version="1.1" xmlns="http://www.w3.org/2000/svg" p-id="7515" width="24" height="24" xmlns:xlink="http://www.w3.org/1999/xlink"><defs><style type="text/css"></style></defs><path d="M0 0" p-id="7516" fill="#ffffff"></path><path d="M443.357867 527.906133c-2.935467-1.672533-12.663467-2.537244-16.042667-2.537244-3.6864 0-17.749333 1.467733-17.749333 6.109867v207.36c0 6.0416 15.940267 6.155378 16.349866 6.155377 3.1744 0 9.454933-0.785067 12.0832-2.332444l194.1504-103.970133c1.695289-0.955733 3.549867-2.048 3.8912-2.491734-0.648533 0.238933-2.1504-2.139022-6.7584-4.8128l-185.924266-103.480889z" p-id="7517" fill="#ffffff"></path><path d="M955.733333 238.626133H716.8v-51.5072C716.8 84.104533 629.623467 0.273067 512 0.273067S307.2 82.602667 307.2 183.876267v54.749866H59.733333c-11.810133 0-25.6 26.5216-25.6 38.331734v725.333333c0 11.844267 13.789867 21.4016 25.6 21.4016H955.733333c11.810133 0 34.133333-9.557333 34.133334-21.4016v-725.333333c0-11.810133-22.3232-38.331733-34.133334-38.331734z m-614.4-54.749866C341.333333 106.154667 417.8944 42.939733 512 42.939733s170.666667 64.682667 170.666667 144.1792v51.5072H341.333333v-54.749866z m313.275734 491.986489l-192.512 103.947377c-8.635733 4.983467-21.230933 7.816533-31.914667 7.816534-30.0032 0-54.749867-20.957867-54.749867-48.8448V531.456c0-27.818667 25.326933-48.810667 56.149334-48.810667 10.922667 0 22.596267 2.7648 31.778133 8.0896l186.88 103.469511c18.352356 10.672356 29.013333 26.282667 29.013333 42.9056-0.136533 15.507911-8.874667 29.582222-24.644266 38.752712z" p-id="7518" fill="#ffffff"></path></svg>