<svg width="31" height="30" viewBox="0 0 31 30" fill="none" xmlns="http://www.w3.org/2000/svg">
<path fill-rule="evenodd" clip-rule="evenodd" d="M19.3483 1.75011C14.088 1.72498 9.77286 6.182 9.79728 11.7562L9.82638 18.3964C9.82976 19.1675 10.4252 19.7427 11.0878 19.7459C11.7442 19.749 12.3269 19.1887 12.3231 18.4224L12.294 11.7818C12.2763 7.73768 15.4215 4.40459 19.3735 4.42347C23.3186 4.44232 26.4856 7.79639 26.5033 11.836C26.5066 12.6076 27.1023 13.1827 27.7643 13.1858C28.4205 13.189 29.0033 12.6289 29 11.8617C28.9755 6.28284 24.6145 1.77526 19.3483 1.75011ZM8.2973 11.7628C8.2695 5.41733 13.2001 0.220719 19.3555 0.250124C25.5045 0.279499 30.4722 5.51428 30.5 11.8551C30.5067 13.3931 29.3087 14.6932 27.7572 14.6858C26.2122 14.6784 25.01 13.3762 25.0033 11.8426C24.9889 8.56497 22.4287 5.93808 19.3663 5.92345C16.3095 5.90885 13.7797 8.50225 13.794 11.7753L13.8231 18.415C13.8231 18.4152 13.8231 18.4149 13.8231 18.415C13.8305 19.9532 12.6317 21.2533 11.0806 21.2459C9.5355 21.2385 8.33311 19.9364 8.32639 18.4029L8.2973 11.7628ZM19.4128 10.2538C18.757 10.2507 18.1738 10.8108 18.1772 11.578L18.2063 18.2185C18.224 22.2624 15.0784 25.5954 11.1268 25.5765C7.18172 25.5577 4.01476 22.2036 3.99707 18.1643C3.99369 17.3928 3.39847 16.818 2.73598 16.8148C2.07952 16.8117 1.49665 17.3718 1.50001 18.1387C1.52446 23.7178 5.88575 28.2247 11.152 28.2499C16.4123 28.275 20.7268 23.8187 20.703 18.2442C20.703 18.2441 20.703 18.2442 20.703 18.2442L20.6739 11.6036C20.6706 10.8319 20.0752 10.2569 19.4128 10.2538ZM16.6772 11.5845C16.6705 10.0464 17.8689 8.74639 19.42 8.7538C20.9654 8.76118 22.1672 10.0635 22.1739 11.5971L22.203 18.2376C22.2301 24.5832 17.3002 29.7793 11.1448 29.7499C4.99591 29.7205 0.0278111 24.4865 2.8285e-05 18.1453C-0.00671175 16.6069 1.1919 15.3074 2.74314 15.3149C4.28834 15.3222 5.49033 16.6241 5.49705 18.1578C5.51141 21.435 8.07164 24.0619 11.134 24.0765C14.1906 24.0911 16.7207 21.4977 16.7063 18.2251L16.6772 11.5845Z" fill="url(#paint0_linear)"/>
<defs>
<linearGradient id="paint0_linear" x1="15.25" y1="0.25" x2="15.25" y2="29.75" gradientUnits="userSpaceOnUse">
<stop stop-color="#D50101"/>
<stop offset="1" stop-color="#FF9801"/>
</linearGradient>
</defs>
</svg>
