<?xml version="1.0" encoding="utf-8"?>
<!-- Generator: Adobe Illustrator 22.0.0, SVG Export Plug-In . SVG Version: 6.00 Build 0)  -->
<svg version="1.1" xmlns="http://www.w3.org/2000/svg" xmlns:xlink="http://www.w3.org/1999/xlink" x="0px" y="0px"
	 viewBox="0 0 200 200" style="enable-background:new 0 0 200 200;" xml:space="preserve">
<style type="text/css">
	.st0{fill:#C2E5C3;}
	.st1{fill:#5EA162;}
	.st2{fill:#FFFFFF;}
</style>
<path class="st0" d="M93.3,6.8v32.6h28.6L93.3,6.8z M86.1,6.8h-50c-7.9,0-14.3,7.3-14.3,16.3v97.7c0,9,6.4,16.3,14.3,16.3h71.5
	c7.9,0,14.3-7.3,14.3-16.3V47.5H86.1C86.1,47.5,86.1,6.8,86.1,6.8z"/>
<path class="st1" d="M146.9,57.7v33.4h33.4L146.9,57.7z M138.5,57.7H80.1c-9.2,0-16.7,7.5-16.7,16.7v100.1c0,9.2,7.5,16.7,16.7,16.7
	h83.4c9.2,0,16.7-7.5,16.7-16.7V99.4h-41.7V57.7z"/>
<path class="st2" d="M97.7,152.5l29.9-29.9l12,12l-29.9,29.9L97.7,152.5z M147.1,127.1c2.1-2.1-0.4-6.3-3-8.9l-2.1-2.1
	c-2.1-2.1-5.1-3.4-7.2-1.3l-4.7,4.7l12.3,12.3L147.1,127.1z M91.7,170.7l14.8-3l-11.8-12.3L91.7,170.7z M129.7,152.1l-4.2,4.2h25.4
	v-4.2H129.7z M117,164.8h33.9v-4.2h-29.6L117,164.8z"/>
<path class="st1" d="M48.8,47.2H38.2c-1.1,0-2,0.9-2,2c0,1.1,0.9,2,2,2h10.6c1.1,0,2-0.9,2-2C50.8,48,49.9,47.2,48.8,47.2z"/>
<path class="st1" d="M56.7,47.2h-1.3c-1.1,0-2,0.9-2,2c0,1.1,0.9,2,2,2h1.3c1.1,0,2-0.9,2-2C58.7,48,57.8,47.2,56.7,47.2z"/>
<path class="st1" d="M70.6,33.9H38.8c-1.5,0-2.6,1.2-2.6,2.6c0,1.5,1.2,2.6,2.6,2.6h31.8c1.5,0,2.6-1.2,2.6-2.6
	C73.3,35.1,72.1,33.9,70.6,33.9z"/>
<path class="st1" d="M70.6,20.7H38.8c-1.5,0-2.6,1.2-2.6,2.6c0,1.5,1.2,2.6,2.6,2.6h31.8c1.5,0,2.6-1.2,2.6-2.6
	C73.3,21.8,72.1,20.7,70.6,20.7z"/>
</svg>
