<?xml version="1.0" encoding="utf-8"?>
<!-- Generator: Adobe Illustrator 22.0.0, SVG Export Plug-In . SVG Version: 6.00 Build 0)  -->
<svg version="1.1" xmlns="http://www.w3.org/2000/svg" xmlns:xlink="http://www.w3.org/1999/xlink" x="0px" y="0px"
	 viewBox="0 0 200 200" style="enable-background:new 0 0 200 200;" xml:space="preserve">
<style type="text/css">
	.st0{fill:#FF5F76;}
	.st1{fill:#FFD3D9;}
	.st2{fill:#FFFFFF;}
</style>
<path class="st0" d="M93.3,6.8v32.6h28.6L93.3,6.8z M86.1,6.8h-50c-7.9,0-14.3,7.3-14.3,16.3v97.7c0,9,6.4,16.3,14.3,16.3h71.5
	c7.9,0,14.3-7.3,14.3-16.3V47.5H86.1C86.1,47.5,86.1,6.8,86.1,6.8z"/>
<path class="st1" d="M146.9,57.7v33.4h33.4L146.9,57.7z M138.5,57.7H80.1c-9.2,0-16.7,7.5-16.7,16.7v100.1c0,9.2,7.5,16.7,16.7,16.7
	h83.4c9.2,0,16.7-7.5,16.7-16.7V99.4h-41.7V57.7z"/>
<path class="st0" d="M110.3,156.6h29c2.3,0,4.1-1.8,4.1-4.1v-29c0-2.3-1.8-4.1-4.1-4.1s-4.1,1.8-4.1,4.1v19.1l-27.8-27.8
	c-1.6-1.6-4.2-1.6-5.8,0c-1.6,1.6-1.6,4.2,0,5.8l27.8,27.8h-19.1c-1.1,0-2.2,0.5-2.9,1.2c-0.7,0.7-1.2,1.8-1.2,2.9
	C106.2,154.7,108,156.6,110.3,156.6z"/>
<path class="st2" d="M47.3,22.1l-0.2-0.2c-0.6-0.6-1.5-0.6-2.1,0c0,0,0,0,0,0l-9.4,9.4c-0.3,0.3-0.4,0.6-0.4,1c0,0.4,0.2,0.8,0.4,1
	l9.4,9.4c0.6,0.6,1.5,0.6,2.1,0l0.2-0.2c0.6-0.6,0.6-1.5,0-2.1l-8.2-8.2l8.2-8.2C47.9,23.5,47.9,22.6,47.3,22.1 M58.5,21.5l-0.3-0.1
	c-0.8-0.3-1.6,0.1-1.9,0.9c0,0,0,0,0,0l-6.9,19c-0.3,0.8,0.1,1.6,0.9,1.9c0,0,0,0,0,0l0.3,0.1c0.8,0.3,1.6-0.1,1.9-0.9c0,0,0,0,0,0
	l6.9-19C59.7,22.7,59.3,21.8,58.5,21.5 M73.4,31.3L64,21.9c-0.6-0.6-1.5-0.6-2.1,0c0,0,0,0,0,0l-0.2,0.2c-0.6,0.6-0.6,1.5,0,2.1
	l8.2,8.2l-8.2,8.2c-0.6,0.6-0.6,1.5,0,2.1c0,0,0,0,0,0l0.2,0.2c0.6,0.6,1.5,0.6,2.1,0l9.4-9.4c0.3-0.3,0.4-0.7,0.4-1
	C73.9,31.9,73.7,31.6,73.4,31.3"/>
</svg>
