<?xml version="1.0" standalone="no"?><!DOCTYPE svg PUBLIC "-//W3C//DTD SVG 1.1//EN" "http://www.w3.org/Graphics/SVG/1.1/DTD/svg11.dtd"><svg t="1619079431310" class="icon" viewBox="0 0 1024 1024" version="1.1" xmlns="http://www.w3.org/2000/svg" p-id="48447" xmlns:xlink="http://www.w3.org/1999/xlink" width="200" height="200"><defs><style type="text/css"></style></defs><path d="M477.696 34.816v166.912h146.432L477.696 34.816z m-36.864 0h-256c-40.448 0-73.216 37.376-73.216 83.456v500.224c0 46.08 32.768 83.456 73.216 83.456h366.08c40.448 0 73.216-37.376 73.216-83.456V243.2H440.832V34.816z" fill="#BD5ABA" p-id="48448"></path><path d="M752.128 295.424v171.008h171.008l-171.008-171.008z m-43.008 0H410.112c-47.104 0-85.504 38.4-85.504 85.504v512.512c0 47.104 38.4 85.504 85.504 85.504h427.008c47.104 0 85.504-38.4 85.504-85.504V508.928h-213.504V295.424z" fill="#FFBEFD" p-id="48449"></path><path d="M564.736 801.792h148.48c11.776 0 20.992-9.216 20.992-20.992v-148.48c0-11.776-9.216-20.992-20.992-20.992s-20.992 9.216-20.992 20.992v97.792l-142.336-142.336c-8.192-8.192-21.504-8.192-29.696 0s-8.192 21.504 0 29.696l142.336 142.336h-97.792c-5.632 0-11.264 2.56-14.848 6.144-3.584 3.584-6.144 9.216-6.144 14.848 0 11.264 9.216 20.992 20.992 20.992z" fill="#BD5ABA" p-id="48450"></path><path d="M160.768 240.128l61.44-96.256c3.072-4.608 9.728-6.144 14.848-3.072 1.024 0.512 2.048 1.536 2.56 2.56l24.576 32.256c3.584 4.608 10.24 5.632 15.36 2.048 0.512-0.512 1.024-0.512 1.024-1.024l10.752-10.752c4.096-4.096 10.752-4.096 15.36 0 0.512 0.512 0.512 0.512 0.512 1.024l60.416 73.216H160.768zM298.496 112.64c0 11.264 9.216 20.992 20.992 20.992 11.264 0 20.992-9.216 20.992-20.992s-9.216-20.992-20.992-20.992-20.992 9.728-20.992 20.992z" fill="#FFFFFF" p-id="48451"></path></svg>