<?xml version="1.0" encoding="utf-8"?>
<!-- Generator: Adobe Illustrator 22.0.0, SVG Export Plug-In . SVG Version: 6.00 Build 0)  -->
<svg version="1.1" xmlns="http://www.w3.org/2000/svg" xmlns:xlink="http://www.w3.org/1999/xlink" x="0px" y="0px"
	 viewBox="0 0 200 200" style="enable-background:new 0 0 200 200;" xml:space="preserve">
<style type="text/css">
	.st0{fill:#FFD3D9;}
	.st1{fill:#FF5F76;}
	.st2{fill:#FFFFFF;}
</style>
<path class="st0" d="M93.3,6.8v32.6h28.6L93.3,6.8z M86.1,6.8h-50c-7.9,0-14.3,7.3-14.3,16.3v97.7c0,9,6.4,16.3,14.3,16.3h71.5
	c7.9,0,14.3-7.3,14.3-16.3V47.5H86.1C86.1,47.5,86.1,6.8,86.1,6.8z"/>
<path class="st1" d="M146.9,57.7v33.4h33.4L146.9,57.7z M138.5,57.7H80.1c-9.2,0-16.7,7.5-16.7,16.7v100.1c0,9.2,7.5,16.7,16.7,16.7
	h83.4c9.2,0,16.7-7.5,16.7-16.7V99.4h-41.7V57.7z"/>
<path class="st1" d="M42.8,51.5h20.8c1.6,0,2.9-1.3,2.9-2.9V27.8c0-1.6-1.3-2.9-2.9-2.9c-1.6,0-2.9,1.3-2.9,2.9v13.7l-20-20
	c-1.1-1.1-3-1.1-4.2,0c-1.2,1.1-1.1,3,0,4.2l19.9,19.9H42.8c-0.8,0-1.5,0.3-2.1,0.9c-0.5,0.5-0.9,1.3-0.9,2.1
	C39.8,50.2,41.1,51.5,42.8,51.5z"/>
<path class="st2" d="M110.3,121.6l-0.3-0.3c-1-1-2.6-1-3.6,0c0,0,0,0,0,0l-16.6,16.6c-0.5,0.5-0.8,1.1-0.8,1.8
	c0,0.7,0.3,1.3,0.8,1.8l16.6,16.6c1,1,2.6,1,3.6,0l0.3-0.3c1-1,1-2.6,0-3.6l-14.4-14.5l14.4-14.4
	C111.3,124.3,111.3,122.6,110.3,121.6 M130.1,120.7l-0.4-0.2c-1.3-0.5-2.8,0.2-3.3,1.5c0,0,0,0,0,0l-12.1,33.3
	c-0.5,1.3,0.2,2.8,1.5,3.3c0,0,0,0,0,0l0.4,0.2c1.3,0.5,2.8-0.2,3.3-1.5c0,0,0,0,0,0l12.2-33.3C132.1,122.7,131.4,121.2,130.1,120.7
	 M156.2,137.9l-16.6-16.6c-1-1-2.6-1-3.6,0c0,0,0,0,0,0l-0.3,0.3c-1,1-1,2.6,0,3.6l14.4,14.5l-14.4,14.4c-1,1-1,2.6,0,3.6
	c0,0,0,0,0,0l0.3,0.3c1,1,2.6,1,3.6,0l16.6-16.6c0.5-0.5,0.8-1.2,0.8-1.8C157,139,156.7,138.4,156.2,137.9"/>
</svg>
