<?xml version="1.0" standalone="no"?><!DOCTYPE svg PUBLIC "-//W3C//DTD SVG 1.1//EN" "http://www.w3.org/Graphics/SVG/1.1/DTD/svg11.dtd"><svg t="1619079433260" class="icon" viewBox="0 0 1024 1024" version="1.1" xmlns="http://www.w3.org/2000/svg" p-id="48592" xmlns:xlink="http://www.w3.org/1999/xlink" width="200" height="200"><defs><style type="text/css"></style></defs><path d="M477.696 34.816v166.912h146.432L477.696 34.816z m-36.864 0h-256c-40.448 0-73.216 37.376-73.216 83.456v500.224c0 46.08 32.768 83.456 73.216 83.456h366.08c40.448 0 73.216-37.376 73.216-83.456V243.2H440.832V34.816z" fill="#FFBEFD" p-id="48593"></path><path d="M752.128 295.424v171.008h171.008l-171.008-171.008z m-43.008 0H410.112c-47.104 0-85.504 38.4-85.504 85.504v512.512c0 47.104 38.4 85.504 85.504 85.504h427.008c47.104 0 85.504-38.4 85.504-85.504V508.928h-213.504V295.424zM219.136 263.68h106.496c8.192 0 14.848-6.656 14.848-14.848V142.336c0-8.192-6.656-14.848-14.848-14.848-8.192 0-14.848 6.656-14.848 14.848v70.144l-102.4-102.4c-5.632-5.632-15.36-5.632-21.504 0s-5.632 15.36 0 21.504l101.888 101.888H219.136c-4.096 0-7.68 1.536-10.752 4.608-2.56 2.56-4.608 6.656-4.608 10.752 0 8.192 6.656 14.848 15.36 14.848z" fill="#BD5ABA" p-id="48594"></path><path d="M453.12 819.712l104.448-162.816c5.632-8.192 16.384-10.752 25.088-5.632 1.536 1.024 3.584 2.56 4.608 4.096l41.984 54.784c6.144 8.192 17.408 9.728 25.6 3.584 0.512-0.512 1.536-1.024 2.048-1.536l17.92-18.432c7.168-7.168 18.432-7.168 25.6 0 0.512 0.512 1.024 1.024 1.024 1.536l101.888 123.904H453.12zM686.08 604.16c0 19.456 15.872 35.84 35.84 35.84 19.456 0 35.84-15.872 35.84-35.84s-15.872-35.84-35.84-35.84c-19.968 0.512-35.84 16.384-35.84 35.84z" fill="#FFFFFF" p-id="48595"></path></svg>