<?xml version="1.0" standalone="no"?><!DOCTYPE svg PUBLIC "-//W3C//DTD SVG 1.1//EN" "http://www.w3.org/Graphics/SVG/1.1/DTD/svg11.dtd"><svg t="1619079438208" class="icon" viewBox="0 0 1024 1024" version="1.1" xmlns="http://www.w3.org/2000/svg" p-id="48881" xmlns:xlink="http://www.w3.org/1999/xlink" width="200" height="200"><defs><style type="text/css"></style></defs><path d="M477.696 34.816v166.912h146.432L477.696 34.816z m-36.864 0h-256c-40.448 0-73.216 37.376-73.216 83.456v500.224c0 46.08 32.768 83.456 73.216 83.456h366.08c40.448 0 73.216-37.376 73.216-83.456V243.2H440.832V34.816z" fill="#FFD8BB" p-id="48882"></path><path d="M752.128 295.424v171.008h171.008l-171.008-171.008z m-43.008 0H410.112c-47.104 0-85.504 38.4-85.504 85.504v512.512c0 47.104 38.4 85.504 85.504 85.504h427.008c47.104 0 85.504-38.4 85.504-85.504V508.928h-213.504V295.424z" fill="#FA8024" p-id="48883"></path><path d="M552.448 813.568v-221.696h71.68c27.136 0 45.056 1.024 53.248 3.072 12.8 3.072 23.552 10.752 31.744 21.504s12.8 25.6 12.8 43.008c0 13.824-2.56 25.088-7.168 34.304-5.12 9.216-11.264 16.384-18.944 22.016s-15.36 8.704-23.04 10.752c-10.752 2.048-26.112 3.072-46.592 3.072h-29.184v83.456h-44.544z m44.544-183.808v62.976h24.576c17.408 0 29.184-1.024 35.328-3.584 6.144-2.56 10.752-6.144 13.824-10.752s5.12-10.752 5.12-17.408c0-8.192-2.56-14.848-7.168-19.968-4.608-5.12-10.752-8.704-17.92-9.728-5.12-1.024-15.872-1.536-32.256-1.536h-21.504z" fill="#FFFFFF" p-id="48884"></path><path d="M219.136 263.68h106.496c8.192 0 14.848-6.656 14.848-14.848V142.336c0-8.192-6.656-14.848-14.848-14.848s-14.848 6.656-14.848 14.848v70.144l-102.4-102.4c-5.632-5.632-15.36-5.632-21.504 0s-5.632 15.36 0 21.504l101.888 101.888H219.136c-4.096 0-7.68 1.536-10.752 4.608-2.56 2.56-4.608 6.656-4.608 10.752 0 8.192 6.656 14.848 15.36 14.848z" fill="#FA8024" p-id="48885"></path></svg>