<?xml version="1.0" standalone="no"?><!DOCTYPE svg PUBLIC "-//W3C//DTD SVG 1.1//EN" "http://www.w3.org/Graphics/SVG/1.1/DTD/svg11.dtd"><svg t="1619079435847" class="icon" viewBox="0 0 1024 1024" version="1.1" xmlns="http://www.w3.org/2000/svg" p-id="48736" xmlns:xlink="http://www.w3.org/1999/xlink" width="200" height="200"><defs><style type="text/css"></style></defs><path d="M477.696 34.816v166.912h146.432L477.696 34.816z m-36.864 0h-256c-40.448 0-73.216 37.376-73.216 83.456v500.224c0 46.08 32.768 83.456 73.216 83.456h366.08c40.448 0 73.216-37.376 73.216-83.456V243.2H440.832V34.816z" fill="#FA8024" p-id="48737"></path><path d="M752.128 295.424v171.008h171.008l-171.008-171.008z m-43.008 0H410.112c-47.104 0-85.504 38.4-85.504 85.504v512.512c0 47.104 38.4 85.504 85.504 85.504h427.008c47.104 0 85.504-38.4 85.504-85.504V508.928h-213.504V295.424z" fill="#FFD8BB" p-id="48738"></path><path d="M226.304 254.464v-143.36h46.592c17.408 0 29.184 0.512 34.304 2.048 8.192 2.048 14.848 6.656 20.48 13.824 5.632 7.168 8.192 16.384 8.192 27.648 0 8.704-1.536 16.384-4.608 22.016-3.072 6.144-7.168 10.752-12.288 14.336-5.12 3.584-9.728 5.632-14.848 6.656-6.656 1.536-16.896 2.048-30.208 2.048h-18.944v54.272h-28.672z m28.672-119.296v40.448h15.872c11.264 0 18.944-0.512 23.04-2.048 4.096-1.536 6.656-4.096 9.216-7.168 2.048-3.072 3.072-6.656 3.072-11.264 0-5.12-1.536-9.728-4.608-12.8-3.072-3.584-7.168-5.632-11.776-6.144-3.584-0.512-10.24-1.024-20.992-1.024h-13.824z" fill="#FFFFFF" p-id="48739"></path><path d="M564.736 801.792h148.48c11.776 0 20.992-9.216 20.992-20.992v-148.48c0-11.776-9.216-20.992-20.992-20.992s-20.992 9.216-20.992 20.992v97.792l-142.336-142.336c-8.192-8.192-21.504-8.192-29.696 0s-8.192 21.504 0 29.696l142.336 142.336h-97.792c-5.632 0-11.264 2.56-14.848 6.144-3.584 3.584-6.144 9.216-6.144 14.848 0 11.264 9.216 20.992 20.992 20.992z" fill="#FA8024" p-id="48740"></path></svg>