<?xml version="1.0" encoding="utf-8"?>
<!-- Generator: Adobe Illustrator 22.0.0, SVG Export Plug-In . SVG Version: 6.00 Build 0)  -->
<svg version="1.1" xmlns="http://www.w3.org/2000/svg" xmlns:xlink="http://www.w3.org/1999/xlink" x="0px" y="0px"
	 viewBox="0 0 200 200" style="enable-background:new 0 0 200 200;" xml:space="preserve">
<style type="text/css">
	.st0{fill:#C6F2B7;}
	.st1{fill:#49A728;}
	.st2{fill:#FFFFFF;}
</style>
<path class="st0" d="M93.3,6.8v32.6h28.6L93.3,6.8z M86.1,6.8h-50c-7.9,0-14.3,7.3-14.3,16.3v97.7c0,9,6.4,16.3,14.3,16.3h71.5
	c7.9,0,14.3-7.3,14.3-16.3V47.5H86.1C86.1,47.5,86.1,6.8,86.1,6.8z"/>
<path class="st1" d="M146.9,57.7v33.4h33.4L146.9,57.7z M138.5,57.7H80.1c-9.2,0-16.7,7.5-16.7,16.7v100.1c0,9.2,7.5,16.7,16.7,16.7
	h83.4c9.2,0,16.7-7.5,16.7-16.7V99.4h-41.7V57.7z"/>
<path class="st1" d="M48.8,47.2H38.2c-1.1,0-2,0.9-2,2c0,1.1,0.9,2,2,2h10.6c1.1,0,2-0.9,2-2C50.8,48,49.9,47.2,48.8,47.2z"/>
<path class="st1" d="M56.7,47.2h-1.3c-1.1,0-2,0.9-2,2c0,1.1,0.9,2,2,2h1.3c1.1,0,2-0.9,2-2C58.7,48,57.8,47.2,56.7,47.2z"/>
<path class="st1" d="M70.6,33.9H38.8c-1.5,0-2.6,1.2-2.6,2.6c0,1.5,1.2,2.6,2.6,2.6h31.8c1.5,0,2.6-1.2,2.6-2.6
	C73.3,35.1,72.1,33.9,70.6,33.9z"/>
<path class="st1" d="M70.6,20.7H38.8c-1.5,0-2.6,1.2-2.6,2.6c0,1.5,1.2,2.6,2.6,2.6h31.8c1.5,0,2.6-1.2,2.6-2.6
	C73.3,21.8,72.1,20.7,70.6,20.7z"/>
<path class="st2" d="M111,143.5l2.2-2.2c-1-3.3-1.2-6.7-0.4-10c2.4-10.3,12.6-16.7,22.9-14.3c10.3,2.4,16.7,12.6,14.3,22.9
	c-2.4,10.3-12.6,16.7-22.9,14.3c-0.6-0.1-1.1-0.3-1.6-0.5l-17.7,17.8c-0.4,0.4-0.9,0.6-1.4,0.5l-9.2-0.9c-0.8-0.1-1.4-0.7-1.6-1.5
	l-1.3-8.3c-0.1-0.6,0.1-1.1,0.5-1.5l2.2-2.3v-5.3c0-1,0.8-1.8,1.8-1.8h0h2.8v-5.3c0-1,0.8-1.8,1.8-1.8h0L111,143.5L111,143.5z
	 M129.4,143.2c4.1,1,8.3-1.5,9.3-5.6c1-4.1-1.5-8.3-5.6-9.3c-0.1,0-0.1,0-0.2,0c-4.1-0.9-8.2,1.7-9.1,5.9
	C122.9,138.2,125.4,142.2,129.4,143.2L129.4,143.2z M117.4,148.9l-14.2,13.8c-0.7,0.7-0.7,1.8,0,2.5c0.7,0.7,1.8,0.7,2.5,0
	l14.2-13.8c0.7-0.7,0.7-1.8,0-2.5C119.2,148.2,118.1,148.2,117.4,148.9z"/>
</svg>
