<svg xmlns="http://www.w3.org/2000/svg" width="20" height="20" viewBox="0 0 20 20">
  <path fill="#3B3F4B" d="M15.25,2.5 L4.75,2.5 C3.9175,2.5 3.25,3.175 3.25,4 L3.25,14.5 C3.25,15.325 3.9175,16 4.75,16 L7.75,16 L10,18.25 L12.25,16 L15.25,16 C16.075,16 16.75,15.325 16.75,14.5 L16.75,4 C16.75,3.175 16.075,2.5 15.25,2.5 Z M10.75,14.5 L9.25,14.5 L9.25,13 L10.75,13 L10.75,14.5 Z M12.3025,8.6875 L11.6275,9.3775 C11.0875,9.925 10.75,10.375 10.75,11.5 L9.25,11.5 L9.25,11.125 C9.25,10.3 9.5875,9.55 10.1275,9.0025 L11.0575,8.0575 C11.335,7.7875 11.5,7.4125 11.5,7 C11.5,6.175 10.825,5.5 10,5.5 C9.175,5.5 8.5,6.175 8.5,7 L7,7 C7,5.3425 8.3425,4 10,4 C11.6575,4 13,5.3425 13,7 C13,7.66 12.73,8.26 12.3025,8.6875 Z"/>
</svg>
