<svg width="242" height="127" viewBox="0 0 242 127" fill="none" xmlns="http://www.w3.org/2000/svg">
<g filter="url(#filter0_ddd)">
<path d="M20 22H222V87.3566C222 92.6825 217.682 97 212.357 97H29.6434C24.3175 97 20 92.6825 20 87.3566V22Z" fill="white"/>
</g>
<rect opacity="0.05" x="20" y="53" width="202" height="35" fill="black"/>
<path d="M37.5833 62.5V64.0833H42.7972L32.8704 74.0163L33.9837 75.1296L43.9167 65.2028V70.4167H45.5V62.5H37.5833ZM29.6667 65.6667C27.9163 65.6667 26.5 67.083 26.5 68.8333V78.3333C26.5 80.0837 27.9163 81.5 29.6667 81.5H39.1667C40.917 81.5 42.3333 80.0837 42.3333 78.3333V70.4167L40.75 72V78.3333C40.75 79.2054 40.0387 79.9167 39.1667 79.9167H29.6667C28.7946 79.9167 28.0833 79.2054 28.0833 78.3333V68.8333C28.0833 67.9613 28.7946 67.25 29.6667 67.25H36L37.5833 65.6667H29.6667Z" fill="#1D6CE3"/>
<path d="M54.7175 70.2121V75.5H53.7884V70.2121H54.7175ZM54.9159 68.5522C54.9159 68.6427 54.8968 68.7279 54.8585 68.808C54.8237 68.8845 54.775 68.9541 54.7123 69.0168C54.6532 69.0759 54.5818 69.1229 54.4983 69.1577C54.4183 69.1925 54.333 69.2099 54.2425 69.2099C54.152 69.2099 54.0668 69.1925 53.9867 69.1577C53.9102 69.1229 53.8423 69.0759 53.7832 69.0168C53.724 68.9541 53.677 68.8845 53.6422 68.808C53.6074 68.7279 53.59 68.6427 53.59 68.5522C53.59 68.4617 53.6074 68.3764 53.6422 68.2964C53.677 68.2129 53.724 68.1415 53.7832 68.0824C53.8423 68.0197 53.9102 67.971 53.9867 67.9362C54.0668 67.9014 54.152 67.884 54.2425 67.884C54.333 67.884 54.4183 67.9014 54.4983 67.9362C54.5818 67.971 54.6532 68.0197 54.7123 68.0824C54.775 68.1415 54.8237 68.2129 54.8585 68.2964C54.8968 68.3764 54.9159 68.4617 54.9159 68.5522ZM57.1212 70.9795C57.236 70.8507 57.3578 70.7341 57.4866 70.6297C57.6153 70.5253 57.7511 70.4366 57.8937 70.3635C58.0399 70.287 58.193 70.2295 58.3531 70.1913C58.5167 70.1495 58.6924 70.1286 58.8803 70.1286C59.1692 70.1286 59.4232 70.1773 59.6424 70.2748C59.8652 70.3687 60.0496 70.5045 60.1958 70.6819C60.3454 70.8559 60.4585 71.0665 60.5351 71.3136C60.6116 71.5606 60.6499 71.8338 60.6499 72.1331V75.5H59.7155V72.1331C59.7155 71.7329 59.6233 71.4232 59.4389 71.2039C59.2579 70.9812 58.9812 70.8699 58.6089 70.8699C58.334 70.8699 58.0764 70.936 57.8363 71.0682C57.5997 71.2005 57.3804 71.3797 57.1786 71.6059V75.5H56.2442V70.2121H56.8028C56.935 70.2121 57.0168 70.2765 57.0481 70.4053L57.1212 70.9795ZM65.1455 71.0839C65.1038 71.1604 65.0394 71.1987 64.9524 71.1987C64.9002 71.1987 64.841 71.1796 64.7749 71.1413C64.7088 71.103 64.627 71.0613 64.5296 71.016C64.4356 70.9673 64.3225 70.9238 64.1903 70.8855C64.058 70.8438 63.9014 70.8229 63.7205 70.8229C63.5639 70.8229 63.4229 70.8438 63.2977 70.8855C63.1724 70.9238 63.0645 70.9777 62.974 71.0473C62.887 71.1169 62.8192 71.1987 62.7704 71.2927C62.7252 71.3832 62.7026 71.4823 62.7026 71.5902C62.7026 71.7259 62.7409 71.839 62.8174 71.9295C62.8975 72.02 63.0019 72.0983 63.1306 72.1644C63.2594 72.2305 63.4055 72.2897 63.5691 72.3419C63.7327 72.3906 63.8997 72.4446 64.0702 72.5037C64.2442 72.5594 64.413 72.622 64.5766 72.6916C64.7401 72.7612 64.8863 72.8482 65.015 72.9526C65.1438 73.057 65.2465 73.1858 65.323 73.3389C65.4031 73.4886 65.4431 73.6695 65.4431 73.8818C65.4431 74.1254 65.3996 74.3516 65.3126 74.5604C65.2256 74.7657 65.0968 74.9449 64.9263 75.0981C64.7558 75.2477 64.547 75.366 64.2999 75.453C64.0528 75.54 63.7675 75.5835 63.4438 75.5835C63.0749 75.5835 62.7409 75.5244 62.4416 75.406C62.1423 75.2842 61.8883 75.1294 61.6795 74.9415L61.8987 74.5865C61.9265 74.5413 61.9596 74.5065 61.9979 74.4821C62.0362 74.4577 62.0849 74.4456 62.144 74.4456C62.2067 74.4456 62.2728 74.4699 62.3424 74.5186C62.412 74.5674 62.4955 74.6213 62.593 74.6805C62.6939 74.7396 62.8157 74.7936 62.9584 74.8423C63.101 74.891 63.2785 74.9154 63.4908 74.9154C63.6718 74.9154 63.8301 74.8927 63.9658 74.8475C64.1015 74.7988 64.2146 74.7344 64.3051 74.6544C64.3956 74.5743 64.4617 74.4821 64.5035 74.3777C64.5487 74.2733 64.5713 74.1619 64.5713 74.0436C64.5713 73.8975 64.5313 73.7774 64.4513 73.6834C64.3747 73.586 64.2721 73.5042 64.1433 73.4381C64.0145 73.3685 63.8666 73.3093 63.6996 73.2606C63.536 73.2084 63.3673 73.1545 63.1933 73.0988C63.0227 73.0431 62.854 72.9805 62.6869 72.9109C62.5234 72.8378 62.3772 72.7473 62.2484 72.6394C62.1197 72.5316 62.0153 72.3993 61.9352 72.2427C61.8587 72.0826 61.8204 71.8895 61.8204 71.6633C61.8204 71.4615 61.8622 71.2683 61.9457 71.0839C62.0292 70.896 62.151 70.7324 62.3111 70.5932C62.4712 70.4505 62.6678 70.3374 62.9009 70.2539C63.1341 70.1704 63.4003 70.1286 63.6996 70.1286C64.0476 70.1286 64.3591 70.1843 64.634 70.2957C64.9124 70.4035 65.1525 70.5532 65.3543 70.7446L65.1455 71.0839ZM70.9305 70.2121V75.5H70.3772C70.245 75.5 70.1614 75.4356 70.1266 75.3069L70.0536 74.7379C69.8239 74.9919 69.5664 75.1972 69.281 75.3538C68.9956 75.507 68.6685 75.5835 68.2996 75.5835C68.0108 75.5835 67.755 75.5365 67.5323 75.4426C67.3131 75.3451 67.1286 75.2094 66.979 75.0354C66.8293 74.8614 66.7162 74.6509 66.6397 74.4038C66.5666 74.1567 66.5301 73.8835 66.5301 73.5843V70.2121H67.4592V73.5843C67.4592 73.9845 67.5497 74.2942 67.7307 74.5134C67.9151 74.7327 68.1952 74.8423 68.5711 74.8423C68.846 74.8423 69.1018 74.7779 69.3384 74.6491C69.5785 74.5169 69.7995 74.3359 70.0014 74.1063V70.2121H70.9305ZM73.286 71.2718C73.453 70.9099 73.6583 70.628 73.9019 70.4262C74.1455 70.2208 74.4431 70.1182 74.7945 70.1182C74.9059 70.1182 75.012 70.1304 75.113 70.1547C75.2174 70.1791 75.3096 70.2174 75.3896 70.2696L75.3218 70.9638C75.3009 71.0508 75.2487 71.0943 75.1652 71.0943C75.1164 71.0943 75.0451 71.0839 74.9511 71.063C74.8572 71.0421 74.751 71.0317 74.6327 71.0317C74.4657 71.0317 74.316 71.056 74.1838 71.1048C74.055 71.1535 73.9385 71.2266 73.8341 71.324C73.7331 71.418 73.6409 71.5363 73.5574 71.679C73.4774 71.8182 73.4043 71.9782 73.3382 72.1592V75.5H72.4038V70.2121H72.9362C73.0371 70.2121 73.1067 70.2313 73.145 70.2696C73.1833 70.3078 73.2094 70.374 73.2233 70.4679L73.286 71.2718ZM78.9909 73.1197C78.5628 73.1336 78.1974 73.1684 77.8947 73.2241C77.5954 73.2763 77.35 73.3459 77.1586 73.4329C76.9707 73.5199 76.8333 73.6225 76.7463 73.7409C76.6627 73.8592 76.621 73.9914 76.621 74.1376C76.621 74.2768 76.6436 74.3968 76.6888 74.4978C76.7341 74.5987 76.795 74.6822 76.8715 74.7483C76.9516 74.811 77.0438 74.8579 77.1482 74.8893C77.2561 74.9171 77.3709 74.931 77.4927 74.931C77.6563 74.931 77.8059 74.9154 77.9416 74.884C78.0774 74.8492 78.2044 74.8005 78.3227 74.7379C78.4445 74.6752 78.5593 74.6004 78.6672 74.5134C78.7786 74.4264 78.8865 74.3272 78.9909 74.2159V73.1197ZM75.9894 70.9586C76.2817 70.6767 76.5966 70.4662 76.9342 70.327C77.2717 70.1878 77.6458 70.1182 78.0565 70.1182C78.3523 70.1182 78.615 70.1669 78.8447 70.2643C79.0744 70.3618 79.2675 70.4975 79.4241 70.6715C79.5807 70.8455 79.699 71.056 79.7791 71.3031C79.8591 71.5502 79.8991 71.8216 79.8991 72.1174V75.5H79.4868C79.3963 75.5 79.3267 75.4861 79.278 75.4582C79.2292 75.4269 79.191 75.3678 79.1631 75.2808L79.0587 74.7796C78.9195 74.9084 78.7838 75.0232 78.6516 75.1242C78.5193 75.2216 78.3801 75.3051 78.234 75.3747C78.0878 75.4408 77.9312 75.4913 77.7642 75.5261C77.6006 75.5644 77.4179 75.5835 77.2161 75.5835C77.0107 75.5835 76.8176 75.5557 76.6366 75.5C76.4557 75.4408 76.2973 75.3538 76.1616 75.239C76.0294 75.1242 75.9232 74.9797 75.8432 74.8057C75.7666 74.6283 75.7284 74.4195 75.7284 74.1793C75.7284 73.9705 75.7858 73.7704 75.9006 73.579C76.0155 73.3842 76.2016 73.2119 76.4592 73.0623C76.7167 72.9126 77.0525 72.7908 77.4666 72.6969C77.8807 72.5994 78.3888 72.5437 78.9909 72.5298V72.1174C78.9909 71.7068 78.9021 71.3971 78.7246 71.1883C78.5472 70.976 78.2879 70.8699 77.9469 70.8699C77.7172 70.8699 77.524 70.8994 77.3674 70.9586C77.2143 71.0143 77.0803 71.0787 76.9655 71.1517C76.8541 71.2213 76.7567 71.2857 76.6732 71.3449C76.5931 71.4006 76.5131 71.4284 76.4331 71.4284C76.3704 71.4284 76.3165 71.4127 76.2712 71.3814C76.226 71.3466 76.1877 71.3049 76.1564 71.2561L75.9894 70.9586ZM82.1915 70.9795C82.3063 70.8507 82.4281 70.7341 82.5569 70.6297C82.6856 70.5253 82.8213 70.4366 82.964 70.3635C83.1102 70.287 83.2633 70.2295 83.4234 70.1913C83.5869 70.1495 83.7627 70.1286 83.9506 70.1286C84.2394 70.1286 84.4935 70.1773 84.7127 70.2748C84.9354 70.3687 85.1199 70.5045 85.266 70.6819C85.4157 70.8559 85.5288 71.0665 85.6053 71.3136C85.6819 71.5606 85.7202 71.8338 85.7202 72.1331V75.5H84.7858V72.1331C84.7858 71.7329 84.6936 71.4232 84.5091 71.2039C84.3282 70.9812 84.0515 70.8699 83.6792 70.8699C83.4042 70.8699 83.1467 70.936 82.9066 71.0682C82.67 71.2005 82.4507 71.3797 82.2489 71.6059V75.5H81.3145V70.2121H81.873C82.0053 70.2121 82.0871 70.2765 82.1184 70.4053L82.1915 70.9795ZM90.8161 71.1517C90.7883 71.19 90.7604 71.2196 90.7326 71.2405C90.7048 71.2614 90.6665 71.2718 90.6178 71.2718C90.5656 71.2718 90.5081 71.2509 90.4455 71.2092C90.3829 71.1639 90.3046 71.1152 90.2106 71.063C90.1201 71.0108 90.007 70.9638 89.8713 70.9221C89.7391 70.8768 89.5755 70.8542 89.3806 70.8542C89.1196 70.8542 88.8899 70.9012 88.6916 70.9951C88.4932 71.0856 88.3262 71.2179 88.1905 71.3919C88.0582 71.5659 87.9573 71.7764 87.8877 72.0235C87.8216 72.2706 87.7885 72.5472 87.7885 72.8535C87.7885 73.1736 87.8251 73.459 87.8981 73.7095C87.9712 73.9566 88.0739 74.1654 88.2061 74.3359C88.3418 74.503 88.5037 74.6317 88.6916 74.7222C88.883 74.8092 89.097 74.8527 89.3336 74.8527C89.5598 74.8527 89.746 74.8266 89.8922 74.7744C90.0383 74.7187 90.1584 74.6578 90.2524 74.5917C90.3498 74.5256 90.4298 74.4664 90.4925 74.4142C90.5586 74.3586 90.623 74.3307 90.6856 74.3307C90.7622 74.3307 90.8213 74.3603 90.8631 74.4195L91.1241 74.7588C91.0093 74.9014 90.8788 75.0232 90.7326 75.1242C90.5864 75.2251 90.4281 75.3103 90.2576 75.3799C90.0905 75.4461 89.9148 75.4948 89.7304 75.5261C89.5459 75.5574 89.358 75.5731 89.1666 75.5731C88.836 75.5731 88.528 75.5122 88.2427 75.3904C87.9608 75.2686 87.7154 75.0928 87.5066 74.8632C87.2978 74.63 87.1343 74.3446 87.016 74.0071C86.8976 73.6695 86.8385 73.285 86.8385 72.8535C86.8385 72.4602 86.8924 72.0966 87.0003 71.7625C87.1117 71.4284 87.2717 71.1413 87.4805 70.9012C87.6928 70.6576 87.9521 70.4679 88.2583 70.3322C88.568 70.1965 88.923 70.1286 89.3232 70.1286C89.6956 70.1286 90.0227 70.1895 90.3046 70.3113C90.5899 70.4296 90.8422 70.5984 91.0615 70.8177L90.8161 71.1517ZM95.5689 72.2793C95.5689 72.0635 95.5376 71.8669 95.475 71.6894C95.4158 71.5084 95.3271 71.3536 95.2087 71.2248C95.0939 71.0926 94.953 70.9917 94.7859 70.9221C94.6189 70.849 94.4292 70.8124 94.2169 70.8124C93.7715 70.8124 93.4183 70.9429 93.1573 71.2039C92.8998 71.4615 92.7397 71.8199 92.677 72.2793H95.5689ZM96.3206 74.7588C96.2058 74.898 96.0683 75.0198 95.9082 75.1242C95.7481 75.2251 95.5759 75.3086 95.3914 75.3747C95.2105 75.4408 95.0226 75.4896 94.8277 75.5209C94.6328 75.5557 94.4397 75.5731 94.2483 75.5731C93.8829 75.5731 93.5453 75.5122 93.2356 75.3904C92.9293 75.2651 92.6631 75.0841 92.4369 74.8475C92.2142 74.6074 92.0402 74.3116 91.9149 73.9601C91.7896 73.6086 91.727 73.2049 91.727 72.7491C91.727 72.3802 91.7827 72.0357 91.894 71.7155C92.0089 71.3953 92.1724 71.1187 92.3847 70.8855C92.597 70.6489 92.8563 70.4644 93.1625 70.3322C93.4687 70.1965 93.8133 70.1286 94.1961 70.1286C94.5127 70.1286 94.8051 70.1826 95.073 70.2904C95.3445 70.3948 95.5776 70.548 95.7725 70.7498C95.9709 70.9482 96.1257 71.1952 96.2371 71.491C96.3484 71.7834 96.4041 72.1174 96.4041 72.4933C96.4041 72.6394 96.3885 72.7369 96.3571 72.7856C96.3258 72.8343 96.2667 72.8587 96.1797 72.8587H92.6457C92.6562 73.1928 92.7014 73.4833 92.7814 73.7304C92.865 73.9775 92.9798 74.1846 93.126 74.3516C93.2721 74.5152 93.4461 74.6387 93.648 74.7222C93.8498 74.8023 94.076 74.8423 94.3266 74.8423C94.5597 74.8423 94.7598 74.8162 94.9269 74.764C95.0974 74.7083 95.2435 74.6491 95.3653 74.5865C95.4871 74.5239 95.5881 74.4664 95.6681 74.4142C95.7516 74.3586 95.823 74.3307 95.8821 74.3307C95.9587 74.3307 96.0178 74.3603 96.0596 74.4195L96.3206 74.7588ZM100.133 71.9765H102.712V72.7647H100.133V71.9765Z" fill="#585858"/>
<path d="M110.886 69.3247C110.844 69.3978 110.799 69.4518 110.75 69.4866C110.705 69.5179 110.647 69.5335 110.578 69.5335C110.505 69.5335 110.425 69.5074 110.338 69.4552C110.254 69.3996 110.153 69.3387 110.035 69.2725C109.917 69.2064 109.777 69.1473 109.617 69.0951C109.461 69.0394 109.275 69.0115 109.059 69.0115C108.864 69.0115 108.693 69.0359 108.547 69.0846C108.401 69.1299 108.278 69.1942 108.177 69.2778C108.079 69.3613 108.006 69.4622 107.957 69.5805C107.909 69.6954 107.884 69.8224 107.884 69.9616C107.884 70.1391 107.933 70.287 108.03 70.4053C108.131 70.5236 108.264 70.6245 108.427 70.708C108.591 70.7916 108.777 70.8664 108.986 70.9325C109.195 70.9986 109.409 71.07 109.628 71.1465C109.847 71.2196 110.061 71.3066 110.27 71.4075C110.479 71.505 110.665 71.6302 110.828 71.7834C110.992 71.933 111.122 72.1174 111.22 72.3367C111.321 72.5559 111.371 72.8221 111.371 73.1353C111.371 73.4764 111.312 73.7965 111.194 74.0958C111.079 74.3916 110.908 74.6509 110.682 74.8736C110.459 75.0928 110.186 75.2668 109.863 75.3956C109.539 75.5209 109.168 75.5835 108.751 75.5835C108.511 75.5835 108.274 75.5592 108.041 75.5104C107.808 75.4652 107.583 75.3991 107.368 75.3121C107.155 75.2251 106.955 75.1207 106.767 74.9989C106.579 74.8771 106.412 74.7414 106.266 74.5917L106.678 73.9183C106.713 73.8696 106.759 73.8296 106.814 73.7983C106.87 73.7635 106.929 73.7461 106.992 73.7461C107.079 73.7461 107.173 73.7826 107.274 73.8557C107.374 73.9253 107.495 74.0036 107.634 74.0906C107.773 74.1776 107.935 74.2576 108.119 74.3307C108.307 74.4003 108.532 74.4351 108.793 74.4351C109.193 74.4351 109.502 74.3412 109.722 74.1532C109.941 73.9618 110.051 73.6887 110.051 73.3337C110.051 73.1353 110 72.9735 109.899 72.8482C109.802 72.723 109.671 72.6186 109.508 72.535C109.344 72.448 109.158 72.375 108.949 72.3158C108.74 72.2566 108.528 72.1923 108.312 72.1227C108.097 72.0531 107.884 71.9695 107.675 71.8721C107.467 71.7747 107.281 71.6476 107.117 71.491C106.953 71.3344 106.821 71.1396 106.72 70.9064C106.623 70.6698 106.574 70.3792 106.574 70.0347C106.574 69.7597 106.628 69.4918 106.736 69.2308C106.847 68.9698 107.007 68.7384 107.216 68.5365C107.425 68.3347 107.682 68.1729 107.989 68.0511C108.295 67.9293 108.646 67.8684 109.043 67.8684C109.489 67.8684 109.899 67.938 110.275 68.0772C110.651 68.2164 110.971 68.4112 111.236 68.6618L110.886 69.3247ZM115.823 72.2062C115.823 72.0391 115.798 71.8825 115.75 71.7364C115.704 71.5867 115.635 71.4562 115.541 71.3449C115.447 71.2335 115.327 71.1465 115.181 71.0839C115.038 71.0178 114.871 70.9847 114.679 70.9847C114.307 70.9847 114.013 71.0908 113.797 71.3031C113.585 71.5154 113.449 71.8164 113.39 72.2062H115.823ZM113.364 72.984C113.385 73.2589 113.434 73.4973 113.51 73.6991C113.587 73.8975 113.688 74.0628 113.813 74.195C113.938 74.3238 114.086 74.4212 114.257 74.4873C114.431 74.55 114.622 74.5813 114.831 74.5813C115.04 74.5813 115.219 74.5569 115.368 74.5082C115.522 74.4595 115.654 74.4055 115.765 74.3464C115.88 74.2872 115.979 74.2333 116.063 74.1846C116.15 74.1358 116.233 74.1115 116.313 74.1115C116.421 74.1115 116.501 74.1515 116.553 74.2315L116.924 74.7013C116.781 74.8684 116.621 75.0093 116.444 75.1242C116.266 75.2355 116.08 75.326 115.885 75.3956C115.694 75.4617 115.497 75.5087 115.295 75.5365C115.097 75.5644 114.904 75.5783 114.716 75.5783C114.344 75.5783 113.997 75.5174 113.677 75.3956C113.357 75.2703 113.079 75.0876 112.842 74.8475C112.605 74.6039 112.419 74.3046 112.283 73.9497C112.148 73.5912 112.08 73.1771 112.08 72.7073C112.08 72.3419 112.139 71.9991 112.257 71.679C112.376 71.3553 112.544 71.0752 112.764 70.8385C112.986 70.5984 113.256 70.4088 113.573 70.2696C113.893 70.1304 114.253 70.0608 114.653 70.0608C114.991 70.0608 115.302 70.1147 115.588 70.2226C115.873 70.3305 116.118 70.4888 116.324 70.6976C116.529 70.9029 116.689 71.157 116.804 71.4597C116.922 71.759 116.981 72.1018 116.981 72.4881C116.981 72.6829 116.961 72.8152 116.919 72.8848C116.877 72.9509 116.797 72.984 116.679 72.984H113.364ZM120.778 73.2136C120.406 73.231 120.093 73.2641 119.839 73.3128C119.585 73.3581 119.381 73.4172 119.228 73.4903C119.075 73.5634 118.965 73.6486 118.899 73.7461C118.833 73.8435 118.8 73.9497 118.8 74.0645C118.8 74.2907 118.866 74.4525 118.998 74.55C119.134 74.6474 119.31 74.6961 119.525 74.6961C119.79 74.6961 120.018 74.6491 120.209 74.5552C120.404 74.4577 120.594 74.3116 120.778 74.1167V73.2136ZM117.824 70.8907C118.44 70.327 119.181 70.0451 120.047 70.0451C120.361 70.0451 120.641 70.0973 120.888 70.2017C121.135 70.3026 121.344 70.4453 121.514 70.6297C121.685 70.8107 121.814 71.0282 121.901 71.2822C121.991 71.5363 122.036 71.8147 122.036 72.1174V75.5H121.452C121.33 75.5 121.236 75.4826 121.17 75.4478C121.104 75.4095 121.051 75.3347 121.013 75.2233L120.898 74.8371C120.763 74.9589 120.63 75.0667 120.502 75.1607C120.373 75.2512 120.239 75.3277 120.1 75.3904C119.96 75.453 119.811 75.5 119.651 75.5313C119.494 75.5661 119.32 75.5835 119.129 75.5835C118.903 75.5835 118.694 75.5539 118.502 75.4948C118.311 75.4321 118.146 75.3399 118.006 75.2181C117.867 75.0963 117.759 74.9449 117.683 74.764C117.606 74.583 117.568 74.3725 117.568 74.1324C117.568 73.9966 117.591 73.8627 117.636 73.7304C117.681 73.5947 117.754 73.4659 117.855 73.3441C117.959 73.2223 118.093 73.1075 118.257 72.9996C118.421 72.8917 118.621 72.7978 118.857 72.7177C119.097 72.6377 119.376 72.5733 119.692 72.5246C120.009 72.4724 120.371 72.4411 120.778 72.4306V72.1174C120.778 71.759 120.702 71.4945 120.549 71.324C120.395 71.15 120.174 71.063 119.886 71.063C119.677 71.063 119.503 71.0874 119.364 71.1361C119.228 71.1848 119.108 71.2405 119.003 71.3031C118.899 71.3623 118.803 71.4162 118.716 71.4649C118.633 71.5137 118.539 71.538 118.434 71.538C118.344 71.538 118.267 71.5154 118.205 71.4702C118.142 71.4214 118.092 71.3658 118.053 71.3031L117.824 70.8907ZM124.467 71.0734C124.634 70.7533 124.832 70.5027 125.062 70.3218C125.292 70.1373 125.563 70.0451 125.876 70.0451C126.123 70.0451 126.322 70.099 126.471 70.2069L126.388 71.1726C126.37 71.2353 126.344 71.2805 126.31 71.3083C126.278 71.3327 126.235 71.3449 126.179 71.3449C126.127 71.3449 126.049 71.3362 125.944 71.3188C125.843 71.3014 125.744 71.2927 125.647 71.2927C125.504 71.2927 125.377 71.3136 125.266 71.3553C125.154 71.3971 125.053 71.458 124.963 71.538C124.876 71.6146 124.797 71.7085 124.728 71.8199C124.662 71.9313 124.599 72.0583 124.54 72.201V75.5H123.251V70.1443H124.007C124.14 70.1443 124.232 70.1686 124.284 70.2174C124.336 70.2626 124.371 70.3461 124.389 70.4679L124.467 71.0734ZM130.829 71.277C130.791 71.3257 130.752 71.364 130.714 71.3919C130.679 71.4197 130.627 71.4336 130.558 71.4336C130.491 71.4336 130.427 71.4145 130.364 71.3762C130.302 71.3344 130.227 71.2892 130.14 71.2405C130.053 71.1883 129.949 71.143 129.827 71.1048C129.708 71.063 129.561 71.0421 129.383 71.0421C129.157 71.0421 128.958 71.0839 128.788 71.1674C128.617 71.2474 128.475 71.364 128.36 71.5171C128.249 71.6703 128.165 71.8564 128.109 72.0757C128.054 72.2914 128.026 72.5368 128.026 72.8117C128.026 73.0971 128.055 73.3511 128.115 73.5738C128.177 73.7965 128.266 73.9845 128.381 74.1376C128.496 74.2872 128.635 74.4021 128.798 74.4821C128.962 74.5587 129.146 74.5969 129.352 74.5969C129.557 74.5969 129.722 74.5726 129.848 74.5239C129.976 74.4717 130.084 74.416 130.171 74.3568C130.258 74.2942 130.333 74.2385 130.396 74.1898C130.462 74.1376 130.535 74.1115 130.615 74.1115C130.719 74.1115 130.798 74.1515 130.85 74.2315L131.22 74.7013C131.078 74.8684 130.923 75.0093 130.756 75.1242C130.589 75.2355 130.415 75.326 130.234 75.3956C130.056 75.4617 129.872 75.5087 129.681 75.5365C129.493 75.5644 129.305 75.5783 129.117 75.5783C128.786 75.5783 128.475 75.5174 128.182 75.3956C127.89 75.2703 127.634 75.0894 127.415 74.8527C127.196 74.6161 127.022 74.3272 126.893 73.9862C126.768 73.6417 126.705 73.2502 126.705 72.8117C126.705 72.4185 126.761 72.0548 126.872 71.7207C126.987 71.3832 127.154 71.0926 127.373 70.849C127.593 70.6019 127.864 70.4088 128.188 70.2696C128.511 70.1304 128.884 70.0608 129.305 70.0608C129.705 70.0608 130.055 70.1251 130.354 70.2539C130.657 70.3827 130.928 70.5671 131.168 70.8072L130.829 71.277ZM133.318 70.7185C133.527 70.5236 133.757 70.3653 134.007 70.2435C134.258 70.1217 134.552 70.0608 134.889 70.0608C135.182 70.0608 135.441 70.1112 135.667 70.2121C135.893 70.3096 136.081 70.4488 136.231 70.6297C136.384 70.8072 136.499 71.0212 136.575 71.2718C136.655 71.5189 136.695 71.7921 136.695 72.0913V75.5H135.406V72.0913C135.406 71.7642 135.331 71.5119 135.182 71.3344C135.032 71.1535 134.804 71.063 134.498 71.063C134.275 71.063 134.066 71.1135 133.871 71.2144C133.677 71.3153 133.492 71.4528 133.318 71.6268V75.5H132.029V67.7431H133.318V70.7185ZM141.797 70.1443V75.5H140.502V70.1443H141.797ZM141.974 68.5835C141.974 68.6949 141.951 68.7993 141.906 68.8967C141.861 68.9941 141.8 69.0794 141.724 69.1525C141.65 69.2256 141.563 69.2847 141.463 69.33C141.362 69.3717 141.254 69.3926 141.139 69.3926C141.028 69.3926 140.921 69.3717 140.82 69.33C140.723 69.2847 140.638 69.2256 140.565 69.1525C140.492 69.0794 140.432 68.9941 140.387 68.8967C140.345 68.7993 140.325 68.6949 140.325 68.5835C140.325 68.4687 140.345 68.3608 140.387 68.2599C140.432 68.1589 140.492 68.0719 140.565 67.9989C140.638 67.9258 140.723 67.8684 140.82 67.8266C140.921 67.7814 141.028 67.7587 141.139 67.7587C141.254 67.7587 141.362 67.7814 141.463 67.8266C141.563 67.8684 141.65 67.9258 141.724 67.9989C141.8 68.0719 141.861 68.1589 141.906 68.2599C141.951 68.3608 141.974 68.4687 141.974 68.5835ZM144.317 70.802C144.425 70.6941 144.538 70.5949 144.656 70.5045C144.778 70.4105 144.905 70.3322 145.037 70.2696C145.173 70.2034 145.317 70.153 145.47 70.1182C145.624 70.0799 145.791 70.0608 145.972 70.0608C146.264 70.0608 146.523 70.1112 146.749 70.2121C146.976 70.3096 147.164 70.4488 147.313 70.6297C147.466 70.8072 147.581 71.0212 147.658 71.2718C147.738 71.5189 147.778 71.7921 147.778 72.0913V75.5H146.488V72.0913C146.488 71.7642 146.414 71.5119 146.264 71.3344C146.114 71.1535 145.886 71.063 145.58 71.063C145.357 71.063 145.149 71.1135 144.954 71.2144C144.759 71.3153 144.574 71.4528 144.4 71.6268V75.5H143.111V70.1443H143.899C144.066 70.1443 144.176 70.2226 144.228 70.3792L144.317 70.802ZM158.242 67.9519V75.5H157.522C157.41 75.5 157.316 75.4826 157.24 75.4478C157.167 75.4095 157.095 75.3469 157.026 75.2599L153.085 70.2278C153.105 70.4575 153.116 70.6698 153.116 70.8646V75.5H151.879V67.9519H152.615C152.674 67.9519 152.724 67.9554 152.766 67.9623C152.811 67.9658 152.85 67.9762 152.881 67.9936C152.916 68.0076 152.949 68.0302 152.98 68.0615C153.011 68.0893 153.046 68.1276 153.085 68.1763L157.041 73.2293C157.031 73.1075 157.022 72.9874 157.015 72.8691C157.008 72.7508 157.005 72.6412 157.005 72.5403V67.9519H158.242ZM163.007 72.2062C163.007 72.0391 162.982 71.8825 162.933 71.7364C162.888 71.5867 162.819 71.4562 162.725 71.3449C162.631 71.2335 162.511 71.1465 162.364 71.0839C162.222 71.0178 162.055 70.9847 161.863 70.9847C161.491 70.9847 161.197 71.0908 160.981 71.3031C160.769 71.5154 160.633 71.8164 160.574 72.2062H163.007ZM160.548 72.984C160.569 73.2589 160.617 73.4973 160.694 73.6991C160.771 73.8975 160.872 74.0628 160.997 74.195C161.122 74.3238 161.27 74.4212 161.441 74.4873C161.615 74.55 161.806 74.5813 162.015 74.5813C162.224 74.5813 162.403 74.5569 162.552 74.5082C162.705 74.4595 162.838 74.4055 162.949 74.3464C163.064 74.2872 163.163 74.2333 163.247 74.1846C163.334 74.1358 163.417 74.1115 163.497 74.1115C163.605 74.1115 163.685 74.1515 163.737 74.2315L164.108 74.7013C163.965 74.8684 163.805 75.0093 163.628 75.1242C163.45 75.2355 163.264 75.326 163.069 75.3956C162.878 75.4617 162.681 75.5087 162.479 75.5365C162.281 75.5644 162.088 75.5783 161.9 75.5783C161.528 75.5783 161.181 75.5174 160.861 75.3956C160.541 75.2703 160.263 75.0876 160.026 74.8475C159.789 74.6039 159.603 74.3046 159.467 73.9497C159.332 73.5912 159.264 73.1771 159.264 72.7073C159.264 72.3419 159.323 71.9991 159.441 71.679C159.56 71.3553 159.728 71.0752 159.948 70.8385C160.17 70.5984 160.44 70.4088 160.757 70.2696C161.077 70.1304 161.437 70.0608 161.837 70.0608C162.175 70.0608 162.486 70.1147 162.772 70.2226C163.057 70.3305 163.302 70.4888 163.508 70.6976C163.713 70.9029 163.873 71.157 163.988 71.4597C164.106 71.759 164.165 72.1018 164.165 72.4881C164.165 72.6829 164.144 72.8152 164.103 72.8848C164.061 72.9509 163.981 72.984 163.863 72.984H160.548ZM172.709 70.1443L171.007 75.5H169.974C169.855 75.5 169.773 75.4234 169.728 75.2703L168.768 72.1749C168.736 72.0705 168.707 71.9678 168.679 71.8669C168.655 71.7625 168.634 71.6581 168.616 71.5537C168.596 71.6581 168.571 71.7642 168.543 71.8721C168.519 71.9765 168.491 72.0809 168.46 72.1853L167.484 75.2703C167.442 75.4234 167.35 75.5 167.207 75.5H166.215L164.519 70.1443H165.547C165.641 70.1443 165.721 70.1669 165.787 70.2121C165.853 70.2574 165.897 70.3148 165.918 70.3844L166.685 73.245C166.723 73.4016 166.756 73.5547 166.784 73.7043C166.815 73.854 166.842 74.0036 166.862 74.1532C166.901 74.0036 166.941 73.854 166.983 73.7043C167.028 73.5547 167.075 73.4016 167.123 73.245L168.011 70.374C168.032 70.3044 168.072 70.2469 168.131 70.2017C168.194 70.1565 168.268 70.1338 168.355 70.1338H168.924C169.015 70.1338 169.091 70.1565 169.154 70.2017C169.22 70.2469 169.264 70.3044 169.285 70.374L170.146 73.245C170.191 73.4016 170.233 73.5564 170.271 73.7095C170.313 73.8592 170.353 74.0088 170.391 74.1585C170.436 73.8627 170.501 73.5582 170.584 73.245L171.373 70.3844C171.397 70.3148 171.44 70.2574 171.503 70.2121C171.566 70.1669 171.641 70.1443 171.728 70.1443H172.709ZM183.2 70.1443L181.498 75.5H180.465C180.346 75.5 180.264 75.4234 180.219 75.2703L179.259 72.1749C179.227 72.0705 179.198 71.9678 179.17 71.8669C179.146 71.7625 179.125 71.6581 179.107 71.5537C179.086 71.6581 179.062 71.7642 179.034 71.8721C179.01 71.9765 178.982 72.0809 178.951 72.1853L177.975 75.2703C177.933 75.4234 177.841 75.5 177.698 75.5H176.706L175.01 70.1443H176.038C176.132 70.1443 176.212 70.1669 176.278 70.2121C176.344 70.2574 176.388 70.3148 176.409 70.3844L177.176 73.245C177.214 73.4016 177.247 73.5547 177.275 73.7043C177.306 73.854 177.333 74.0036 177.353 74.1532C177.392 74.0036 177.432 73.854 177.473 73.7043C177.519 73.5547 177.566 73.4016 177.614 73.245L178.502 70.374C178.523 70.3044 178.563 70.2469 178.622 70.2017C178.685 70.1565 178.759 70.1338 178.846 70.1338H179.415C179.506 70.1338 179.582 70.1565 179.645 70.2017C179.711 70.2469 179.755 70.3044 179.776 70.374L180.637 73.245C180.682 73.4016 180.724 73.5564 180.762 73.7095C180.804 73.8592 180.844 74.0088 180.882 74.1585C180.927 73.8627 180.992 73.5582 181.075 73.245L181.864 70.3844C181.888 70.3148 181.931 70.2574 181.994 70.2121C182.057 70.1669 182.131 70.1443 182.218 70.1443H183.2ZM185.269 70.1443V75.5H183.975V70.1443H185.269ZM185.447 68.5835C185.447 68.6949 185.424 68.7993 185.379 68.8967C185.334 68.9941 185.273 69.0794 185.196 69.1525C185.123 69.2256 185.036 69.2847 184.935 69.33C184.834 69.3717 184.727 69.3926 184.612 69.3926C184.5 69.3926 184.394 69.3717 184.293 69.33C184.196 69.2847 184.111 69.2256 184.037 69.1525C183.964 69.0794 183.905 68.9941 183.86 68.8967C183.818 68.7993 183.797 68.6949 183.797 68.5835C183.797 68.4687 183.818 68.3608 183.86 68.2599C183.905 68.1589 183.964 68.0719 184.037 67.9989C184.111 67.9258 184.196 67.8684 184.293 67.8266C184.394 67.7814 184.5 67.7587 184.612 67.7587C184.727 67.7587 184.834 67.7814 184.935 67.8266C185.036 67.8684 185.123 67.9258 185.196 67.9989C185.273 68.0719 185.334 68.1589 185.379 68.2599C185.424 68.3608 185.447 68.4687 185.447 68.5835ZM187.79 70.802C187.898 70.6941 188.011 70.5949 188.129 70.5045C188.251 70.4105 188.378 70.3322 188.51 70.2696C188.646 70.2034 188.79 70.153 188.943 70.1182C189.096 70.0799 189.263 70.0608 189.444 70.0608C189.737 70.0608 189.996 70.1112 190.222 70.2121C190.448 70.3096 190.636 70.4488 190.786 70.6297C190.939 70.8072 191.054 71.0212 191.13 71.2718C191.211 71.5189 191.251 71.7921 191.251 72.0913V75.5H189.961V72.0913C189.961 71.7642 189.886 71.5119 189.737 71.3344C189.587 71.1535 189.359 71.063 189.053 71.063C188.83 71.063 188.621 71.1135 188.427 71.2144C188.232 71.3153 188.047 71.4528 187.873 71.6268V75.5H186.584V70.1443H187.372C187.539 70.1443 187.649 70.2226 187.701 70.3792L187.79 70.802ZM195.838 71.5119C195.692 71.3344 195.532 71.2092 195.358 71.1361C195.188 71.063 195.003 71.0265 194.805 71.0265C194.61 71.0265 194.434 71.063 194.278 71.1361C194.121 71.2092 193.987 71.3205 193.876 71.4702C193.764 71.6163 193.679 71.8042 193.62 72.0339C193.561 72.2601 193.531 72.5281 193.531 72.8378C193.531 73.151 193.556 73.4172 193.604 73.6365C193.656 73.8522 193.73 74.0297 193.824 74.1689C193.917 74.3046 194.032 74.4038 194.168 74.4664C194.304 74.5256 194.455 74.5552 194.622 74.5552C194.89 74.5552 195.118 74.4995 195.306 74.3881C195.494 74.2768 195.671 74.1184 195.838 73.9131V71.5119ZM197.128 67.7431V75.5H196.34C196.169 75.5 196.061 75.4217 196.016 75.2651L195.906 74.7483C195.691 74.9954 195.442 75.1955 195.16 75.3486C194.881 75.5017 194.556 75.5783 194.184 75.5783C193.891 75.5783 193.623 75.5174 193.38 75.3956C193.136 75.2738 192.926 75.0981 192.748 74.8684C192.574 74.6352 192.438 74.3481 192.341 74.0071C192.247 73.666 192.2 73.2763 192.2 72.8378C192.2 72.4411 192.254 72.0722 192.362 71.7312C192.47 71.3901 192.625 71.0943 192.826 70.8438C193.028 70.5932 193.27 70.3983 193.552 70.2591C193.834 70.1164 194.151 70.0451 194.502 70.0451C194.801 70.0451 195.057 70.0921 195.269 70.186C195.482 70.28 195.671 70.407 195.838 70.5671V67.7431H197.128ZM200.77 70.0608C201.167 70.0608 201.527 70.1251 201.851 70.2539C202.178 70.3827 202.456 70.5654 202.686 70.802C202.919 71.0386 203.098 71.3275 203.224 71.6685C203.349 72.0096 203.411 72.3906 203.411 72.8117C203.411 73.2363 203.349 73.6191 203.224 73.9601C203.098 74.3011 202.919 74.5917 202.686 74.8318C202.456 75.072 202.178 75.2564 201.851 75.3852C201.527 75.5139 201.167 75.5783 200.77 75.5783C200.37 75.5783 200.006 75.5139 199.679 75.3852C199.352 75.2564 199.072 75.072 198.839 74.8318C198.609 74.5917 198.43 74.3011 198.301 73.9601C198.176 73.6191 198.113 73.2363 198.113 72.8117C198.113 72.3906 198.176 72.0096 198.301 71.6685C198.43 71.3275 198.609 71.0386 198.839 70.802C199.072 70.5654 199.352 70.3827 199.679 70.2539C200.006 70.1251 200.37 70.0608 200.77 70.0608ZM200.77 74.5865C201.216 74.5865 201.544 74.4369 201.757 74.1376C201.972 73.8383 202.08 73.3998 202.08 72.8221C202.08 72.2445 201.972 71.8042 201.757 71.5015C201.544 71.1987 201.216 71.0473 200.77 71.0473C200.318 71.0473 199.982 71.2005 199.763 71.5067C199.547 71.8095 199.439 72.2479 199.439 72.8221C199.439 73.3963 199.547 73.8348 199.763 74.1376C199.982 74.4369 200.318 74.5865 200.77 74.5865ZM211.951 70.1443L210.249 75.5H209.215C209.097 75.5 209.015 75.4234 208.97 75.2703L208.01 72.1749C207.978 72.0705 207.949 71.9678 207.921 71.8669C207.896 71.7625 207.876 71.6581 207.858 71.5537C207.837 71.6581 207.813 71.7642 207.785 71.8721C207.761 71.9765 207.733 72.0809 207.702 72.1853L206.725 75.2703C206.684 75.4234 206.591 75.5 206.449 75.5H205.457L203.76 70.1443H204.789C204.883 70.1443 204.963 70.1669 205.029 70.2121C205.095 70.2574 205.139 70.3148 205.159 70.3844L205.927 73.245C205.965 73.4016 205.998 73.5547 206.026 73.7043C206.057 73.854 206.083 74.0036 206.104 74.1532C206.142 74.0036 206.183 73.854 206.224 73.7043C206.27 73.5547 206.316 73.4016 206.365 73.245L207.253 70.374C207.273 70.3044 207.314 70.2469 207.373 70.2017C207.435 70.1565 207.51 70.1338 207.597 70.1338H208.166C208.257 70.1338 208.333 70.1565 208.396 70.2017C208.462 70.2469 208.505 70.3044 208.526 70.374L209.388 73.245C209.433 73.4016 209.475 73.5564 209.513 73.7095C209.555 73.8592 209.595 74.0088 209.633 74.1585C209.678 73.8627 209.743 73.5582 209.826 73.245L210.614 70.3844C210.639 70.3148 210.682 70.2574 210.745 70.2121C210.807 70.1669 210.882 70.1443 210.969 70.1443H211.951Z" fill="black"/>
<mask id="mask0" mask-type="alpha" maskUnits="userSpaceOnUse" x="16" y="0" width="212" height="44">
<rect x="16.9998" width="211" height="44" fill="white"/>
</mask>
<g mask="url(#mask0)">
<rect x="19.9998" y="2" width="202" height="34" rx="16.876" fill="#F1F3F4"/>
<path d="M38.8097 25H37.2853V16.0841H38.8097V25ZM37.1617 13.7191C37.1617 13.4719 37.2359 13.2631 37.3842 13.0929C37.538 12.9226 37.7632 12.8374 38.0599 12.8374C38.3565 12.8374 38.5818 12.9226 38.7356 13.0929C38.8894 13.2631 38.9663 13.4719 38.9663 13.7191C38.9663 13.9663 38.8894 14.1723 38.7356 14.3371C38.5818 14.5019 38.3565 14.5843 38.0599 14.5843C37.7632 14.5843 37.538 14.5019 37.3842 14.3371C37.2359 14.1723 37.1617 13.9663 37.1617 13.7191ZM42.6991 16.0841L42.7486 17.2047C43.4298 16.3477 44.3197 15.9193 45.4184 15.9193C47.3027 15.9193 48.2531 16.9822 48.2695 19.1082V25H46.7451V19.1C46.7396 18.4572 46.5913 17.9821 46.3001 17.6744C46.0145 17.3668 45.5667 17.213 44.957 17.213C44.4625 17.213 44.0286 17.3448 43.655 17.6085C43.2814 17.8722 42.9903 18.2183 42.7815 18.6468V25H41.2571V16.0841H42.6991ZM55.7599 22.6351C55.7599 22.223 55.6034 21.9044 55.2902 21.6792C54.9826 21.4485 54.4415 21.2507 53.6669 21.0859C52.8978 20.9211 52.2853 20.7233 51.8293 20.4926C51.3789 20.2619 51.0438 19.9872 50.824 19.6686C50.6098 19.3499 50.5026 18.9709 50.5026 18.5314C50.5026 17.8008 50.8103 17.1828 51.4255 16.6774C52.0463 16.172 52.8374 15.9193 53.7987 15.9193C54.8095 15.9193 55.6281 16.1802 56.2543 16.7021C56.8861 17.224 57.202 17.8914 57.202 18.7045H55.6693C55.6693 18.2869 55.4907 17.9271 55.1337 17.625C54.7821 17.3228 54.3371 17.1718 53.7987 17.1718C53.2439 17.1718 52.8099 17.2926 52.4968 17.5343C52.1837 17.7761 52.0271 18.0919 52.0271 18.482C52.0271 18.85 52.1727 19.1275 52.4638 19.3142C52.755 19.501 53.2796 19.6796 54.0377 19.8498C54.8013 20.0201 55.4193 20.2234 55.8918 20.4596C56.3642 20.6958 56.713 20.9815 56.9383 21.3166C57.169 21.6462 57.2844 22.05 57.2844 22.5279C57.2844 23.3245 56.9657 23.9645 56.3285 24.4479C55.6912 24.9258 54.8645 25.1648 53.8482 25.1648C53.134 25.1648 52.5023 25.0385 51.9529 24.7858C51.4036 24.5331 50.9723 24.1815 50.6592 23.731C50.3516 23.275 50.1978 22.7834 50.1978 22.256H51.7222C51.7497 22.7669 51.9529 23.1734 52.332 23.4756C52.7165 23.7722 53.2219 23.9205 53.8482 23.9205C54.425 23.9205 54.8865 23.8052 55.2325 23.5744C55.5841 23.3382 55.7599 23.0251 55.7599 22.6351ZM64.7747 24.1183C64.1814 24.816 63.3107 25.1648 62.1626 25.1648C61.2122 25.1648 60.4871 24.8901 59.9872 24.3408C59.4927 23.7859 59.2428 22.9674 59.2373 21.8852V16.0841H60.7617V21.844C60.7617 23.1954 61.3111 23.8711 62.4098 23.8711C63.5744 23.8711 64.349 23.4371 64.7335 22.5691V16.0841H66.258V25H64.8077L64.7747 24.1183ZM72.8914 17.4519C72.6607 17.4135 72.4107 17.3943 72.1415 17.3943C71.1417 17.3943 70.4633 17.82 70.1062 18.6715V25H68.5817V16.0841H70.065L70.0897 17.1141C70.5896 16.3175 71.2983 15.9193 72.2157 15.9193C72.5123 15.9193 72.7376 15.9577 72.8914 16.0346V17.4519ZM79.4753 25C79.3874 24.8242 79.316 24.5111 79.2611 24.0606C78.5524 24.7967 77.7064 25.1648 76.7231 25.1648C75.8441 25.1648 75.1217 24.9176 74.5559 24.4232C73.9956 23.9233 73.7154 23.2915 73.7154 22.5279C73.7154 21.5995 74.067 20.8799 74.7702 20.369C75.4788 19.8526 76.4731 19.5944 77.7531 19.5944H79.2364V18.894C79.2364 18.3611 79.0771 17.9381 78.7584 17.625C78.4398 17.3064 77.9701 17.147 77.3493 17.147C76.8055 17.147 76.3495 17.2844 75.9815 17.5591C75.6134 17.8337 75.4294 18.1661 75.4294 18.5561H73.8967C73.8967 18.1112 74.0533 17.6827 74.3664 17.2707C74.685 16.8531 75.1135 16.5235 75.6519 16.2818C76.1957 16.0401 76.7918 15.9193 77.44 15.9193C78.4673 15.9193 79.2721 16.1774 79.8544 16.6938C80.4367 17.2047 80.7388 17.9106 80.7608 18.8116V22.9152C80.7608 23.7337 80.8652 24.3847 81.0739 24.8682V25H79.4753ZM76.9456 23.8381C77.4235 23.8381 77.8767 23.7145 78.3052 23.4673C78.7337 23.2201 79.0441 22.8987 79.2364 22.5032V20.6739H78.0415C76.1737 20.6739 75.2398 21.2205 75.2398 22.3137C75.2398 22.7916 75.3992 23.1652 75.7178 23.4344C76.0364 23.7035 76.4457 23.8381 76.9456 23.8381ZM84.5925 16.0841L84.642 17.2047C85.3232 16.3477 86.2131 15.9193 87.3118 15.9193C89.1961 15.9193 90.1464 16.9822 90.1629 19.1082V25H88.6385V19.1C88.633 18.4572 88.4847 17.9821 88.1935 17.6744C87.9078 17.3668 87.4601 17.213 86.8503 17.213C86.3559 17.213 85.9219 17.3448 85.5484 17.6085C85.1748 17.8722 84.8837 18.2183 84.6749 18.6468V25H83.1505V16.0841H84.5925ZM96.0382 23.9205C96.5821 23.9205 97.0573 23.7557 97.4638 23.4261C97.8703 23.0965 98.0955 22.6845 98.1395 22.1901H99.5815C99.5541 22.701 99.3783 23.1871 99.0541 23.6486C98.73 24.1101 98.296 24.4781 97.7522 24.7528C97.2138 25.0275 96.6425 25.1648 96.0382 25.1648C94.8242 25.1648 93.8573 24.761 93.1377 23.9535C92.4235 23.1405 92.0664 22.0308 92.0664 20.6244V20.369C92.0664 19.501 92.2257 18.7292 92.5444 18.0535C92.863 17.3778 93.3189 16.8531 93.9122 16.4796C94.511 16.106 95.2169 15.9193 96.03 15.9193C97.0298 15.9193 97.8593 16.2186 98.5185 16.8174C99.1832 17.4162 99.5376 18.1936 99.5815 19.1494H98.1395C98.0955 18.5726 97.8758 18.1002 97.4803 17.7321C97.0902 17.3585 96.6068 17.1718 96.03 17.1718C95.2554 17.1718 94.6539 17.4519 94.2254 18.0123C93.8024 18.5671 93.5909 19.3719 93.5909 20.4267V20.7151C93.5909 21.7424 93.8024 22.5334 94.2254 23.0883C94.6484 23.6431 95.2526 23.9205 96.0382 23.9205ZM104.995 25.1648C103.787 25.1648 102.803 24.7693 102.045 23.9782C101.287 23.1817 100.908 22.1187 100.908 20.7892V20.5091C100.908 19.6246 101.076 18.8363 101.411 18.1441C101.751 17.4464 102.224 16.9026 102.828 16.5126C103.438 16.117 104.097 15.9193 104.806 15.9193C105.965 15.9193 106.866 16.3011 107.509 17.0646C108.151 17.8282 108.473 18.9214 108.473 20.3443V20.9788H102.433C102.455 21.8577 102.71 22.5691 103.199 23.113C103.693 23.6513 104.32 23.9205 105.078 23.9205C105.616 23.9205 106.072 23.8107 106.446 23.5909C106.819 23.3712 107.146 23.08 107.426 22.7175L108.357 23.4426C107.61 24.5907 106.49 25.1648 104.995 25.1648ZM104.806 17.1718C104.191 17.1718 103.674 17.397 103.257 17.8475C102.839 18.2924 102.581 18.9187 102.482 19.7262H106.948V19.6109C106.904 18.8363 106.696 18.2375 106.322 17.8145C105.948 17.386 105.443 17.1718 104.806 17.1718ZM110.195 27.3897L109.33 26.7964C109.846 26.0767 110.115 25.3351 110.137 24.5715V23.1954H111.629V24.3902C111.629 24.9451 111.491 25.4999 111.217 26.0548C110.948 26.6096 110.607 27.0546 110.195 27.3897Z" fill="#444444"/>
</g>
<circle cx="188" cy="89.0001" r="10.2667" fill="#46CFFB" fill-opacity="0.8"/>
<circle cx="188" cy="89" r="18" fill="#46CFFB" fill-opacity="0.45"/>
<path fill-rule="evenodd" clip-rule="evenodd" d="M187.285 100.309C187.001 99.95 186.656 99.216 186.042 98.325C185.694 97.821 184.831 96.872 184.574 96.39C184.351 95.964 184.375 95.773 184.428 95.42C184.522 94.792 185.166 94.303 185.853 94.369C186.372 94.418 186.812 94.761 187.208 95.085C187.447 95.28 187.741 95.659 187.918 95.873C188.081 96.069 188.121 96.15 188.295 96.382C188.525 96.689 188.597 96.841 188.509 96.503C188.438 96.007 188.322 95.16 188.154 94.411C188.026 93.843 187.995 93.754 187.873 93.318C187.744 92.854 187.678 92.529 187.557 92.037C187.473 91.689 187.322 90.978 187.281 90.578C187.224 90.031 187.194 89.139 187.545 88.729C187.82 88.408 188.451 88.311 188.842 88.509C189.354 88.768 189.645 89.512 189.778 89.809C190.017 90.343 190.165 90.96 190.294 91.77C190.458 92.801 190.76 94.232 190.77 94.533C190.794 94.164 190.702 93.387 190.766 93.033C190.824 92.712 191.094 92.339 191.432 92.238C191.718 92.153 192.053 92.122 192.348 92.183C192.661 92.247 192.991 92.471 193.114 92.682C193.476 93.306 193.483 94.581 193.498 94.513C193.584 94.137 193.569 93.284 193.782 92.929C193.922 92.695 194.279 92.484 194.469 92.45C194.763 92.398 195.124 92.382 195.433 92.442C195.682 92.491 196.019 92.787 196.11 92.929C196.328 93.273 196.452 94.246 196.489 94.587C196.504 94.728 196.563 94.195 196.782 93.851C197.188 93.212 198.625 93.088 198.68 94.49C198.705 95.144 198.7 95.114 198.7 95.554C198.7 96.071 198.688 96.382 198.66 96.756C198.629 97.156 198.543 98.06 198.418 98.498C198.332 98.799 198.047 99.476 197.766 99.882C197.766 99.882 196.692 101.132 196.575 101.695C196.457 102.257 196.496 102.261 196.473 102.66C196.45 103.058 196.594 103.582 196.594 103.582C196.594 103.582 195.792 103.686 195.36 103.617C194.969 103.554 194.485 102.776 194.36 102.538C194.188 102.21 193.821 102.273 193.678 102.515C193.453 102.898 192.969 103.585 192.627 103.628C191.959 103.712 190.573 103.659 189.488 103.648C189.488 103.648 189.673 102.637 189.261 102.29C188.956 102.031 188.431 101.506 188.117 101.23L187.285 100.309Z" fill="white"/>
<path fill-rule="evenodd" clip-rule="evenodd" d="M187.285 100.309C187.001 99.95 186.656 99.216 186.042 98.325C185.694 97.821 184.831 96.872 184.574 96.39C184.351 95.964 184.375 95.773 184.428 95.42C184.522 94.792 185.166 94.303 185.853 94.369C186.372 94.418 186.812 94.761 187.208 95.085C187.447 95.28 187.741 95.659 187.918 95.873C188.081 96.069 188.121 96.15 188.295 96.382C188.525 96.689 188.597 96.841 188.509 96.503C188.438 96.007 188.322 95.16 188.154 94.411C188.026 93.843 187.995 93.754 187.873 93.318C187.744 92.854 187.678 92.529 187.557 92.037C187.473 91.689 187.322 90.978 187.281 90.578C187.224 90.031 187.194 89.139 187.545 88.729C187.82 88.408 188.451 88.311 188.842 88.509C189.354 88.768 189.645 89.512 189.778 89.809C190.017 90.343 190.165 90.96 190.294 91.77C190.458 92.801 190.76 94.232 190.77 94.533C190.794 94.164 190.702 93.387 190.766 93.033C190.824 92.712 191.094 92.339 191.432 92.238C191.718 92.153 192.053 92.122 192.348 92.183C192.661 92.247 192.991 92.471 193.114 92.682C193.476 93.306 193.483 94.581 193.498 94.513C193.584 94.137 193.569 93.284 193.782 92.929C193.922 92.695 194.279 92.484 194.469 92.45C194.763 92.398 195.124 92.382 195.433 92.442C195.682 92.491 196.019 92.787 196.11 92.929C196.328 93.273 196.452 94.246 196.489 94.587C196.504 94.728 196.563 94.195 196.782 93.851C197.188 93.212 198.625 93.088 198.68 94.49C198.705 95.144 198.7 95.114 198.7 95.554C198.7 96.071 198.688 96.382 198.66 96.756C198.629 97.156 198.543 98.06 198.418 98.498C198.332 98.799 198.047 99.476 197.766 99.882C197.766 99.882 196.692 101.132 196.575 101.695C196.457 102.257 196.496 102.261 196.473 102.66C196.45 103.058 196.594 103.582 196.594 103.582C196.594 103.582 195.792 103.686 195.36 103.617C194.969 103.554 194.485 102.776 194.36 102.538C194.188 102.21 193.821 102.273 193.678 102.515C193.453 102.898 192.969 103.585 192.627 103.628C191.959 103.712 190.573 103.659 189.488 103.648C189.488 103.648 189.673 102.637 189.261 102.29C188.956 102.031 188.431 101.506 188.117 101.23L187.285 100.309Z" stroke="black" stroke-width="0.75" stroke-linecap="round" stroke-linejoin="round"/>
<path d="M195.52 100.664V97.2046" stroke="black" stroke-width="0.75" stroke-linecap="round"/>
<path d="M193.505 100.675L193.489 97.2021" stroke="black" stroke-width="0.75" stroke-linecap="round"/>
<path d="M191.509 97.2339L191.53 100.66" stroke="black" stroke-width="0.75" stroke-linecap="round"/>
<defs>
<filter id="filter0_ddd" x="0" y="12" width="242" height="115" filterUnits="userSpaceOnUse" color-interpolation-filters="sRGB">
<feFlood flood-opacity="0" result="BackgroundImageFix"/>
<feColorMatrix in="SourceAlpha" type="matrix" values="0 0 0 0 0 0 0 0 0 0 0 0 0 0 0 0 0 0 127 0"/>
<feOffset/>
<feGaussianBlur stdDeviation="0.5"/>
<feColorMatrix type="matrix" values="0 0 0 0 0 0 0 0 0 0 0 0 0 0 0 0 0 0 0.08 0"/>
<feBlend mode="normal" in2="BackgroundImageFix" result="effect1_dropShadow"/>
<feColorMatrix in="SourceAlpha" type="matrix" values="0 0 0 0 0 0 0 0 0 0 0 0 0 0 0 0 0 0 127 0"/>
<feOffset dy="2"/>
<feGaussianBlur stdDeviation="3"/>
<feColorMatrix type="matrix" values="0 0 0 0 0 0 0 0 0 0 0 0 0 0 0 0 0 0 0.08 0"/>
<feBlend mode="normal" in2="effect1_dropShadow" result="effect2_dropShadow"/>
<feColorMatrix in="SourceAlpha" type="matrix" values="0 0 0 0 0 0 0 0 0 0 0 0 0 0 0 0 0 0 127 0"/>
<feOffset dy="10"/>
<feGaussianBlur stdDeviation="10"/>
<feColorMatrix type="matrix" values="0 0 0 0 0 0 0 0 0 0 0 0 0 0 0 0 0 0 0.08 0"/>
<feBlend mode="normal" in2="effect2_dropShadow" result="effect3_dropShadow"/>
<feBlend mode="normal" in="SourceGraphic" in2="effect3_dropShadow" result="shape"/>
</filter>
</defs>
</svg>
