<svg width="219" height="157" viewBox="0 0 219 157" fill="none" xmlns="http://www.w3.org/2000/svg">
<mask id="mask0" mask-type="alpha" maskUnits="userSpaceOnUse" x="-1" y="0" width="215" height="148">
<rect x="-0.000366211" width="214" height="148" fill="#C4C4C4"/>
</mask>
<g mask="url(#mask0)">
<rect x="-0.000366211" y="1" width="214" height="147" rx="7.09667" fill="#36CAF5"/>
<path d="M1.04462 22.6954H213V140.903C213 144.27 210.27 147 206.903 147H7.14128C3.77419 147 1.04462 144.27 1.04462 140.903V22.6954Z" fill="white" stroke="#36CAF5" stroke-width="2"/>
<path d="M185.028 22.3552V8.78191C183.994 7.14657 181.755 5.8383 180.032 5.8383H65.0508C63.3282 5.8383 61.175 7.14657 60.2276 8.78191V22.3552H2.0976V45.904H211.824V22.3552H185.028Z" fill="#F1F3F4"/>
<rect x="61.9996" y="25" width="145" height="18" rx="9" fill="white"/>
<path d="M5.66077 33.8111L9.85547 38.3706L10.9403 37.1914C10.9403 37.1128 8.69831 34.7545 8.62598 34.6759H14.7011C14.7011 34.5186 14.7011 33.2609 14.7011 33.025C13.6162 33.025 9.6385 33.025 8.62598 33.025C8.69831 32.9464 10.9403 30.5881 10.9403 30.5095L9.85547 29.3303L5.66077 33.8111Z" fill="#222326"/>
<path d="M34.0732 33.8504L29.8785 38.3706L28.7937 37.1237C28.7937 37.0457 31.0357 34.7077 31.108 34.6298H25.0329C25.0329 34.4739 25.0329 33.227 25.0329 32.9932C26.1177 32.9932 30.0955 32.9932 31.108 32.9932C31.0357 32.9152 28.7937 30.5772 28.7937 30.4993L29.8785 29.3303L34.0732 33.8504Z" fill="#848484"/>
<path d="M18.5754 11.8616C18.5754 9.70919 16.8534 7.98723 14.701 7.98723C12.5485 7.98723 10.8265 9.70919 10.8265 11.8616C10.8265 14.0141 12.5485 15.7361 14.701 15.7361C16.7673 15.7361 18.5754 14.0141 18.5754 11.8616Z" fill="white"/>
<path d="M30.8167 11.8616C30.8167 9.70919 29.0947 7.98723 26.9423 7.98723C24.7898 7.98723 23.0679 9.70919 23.0679 11.8616C23.0679 14.0141 24.7898 15.7361 26.9423 15.7361C29.0947 15.7361 30.8167 14.0141 30.8167 11.8616Z" fill="white"/>
<path d="M42.5289 11.8616C42.5289 9.70919 40.8069 7.98723 38.6544 7.98723C36.502 7.98723 34.78 9.70919 34.78 11.8616C34.78 14.0141 36.502 15.7361 38.6544 15.7361C40.8069 15.7361 42.5289 14.0141 42.5289 11.8616Z" fill="white"/>
<path d="M47.5962 37.0476C45.8778 37.0476 44.4582 35.6512 44.4582 33.9607C44.4582 32.2702 45.8778 30.8738 47.5962 30.8738C48.6421 30.8738 49.6134 31.3882 50.2111 32.2702C49.6881 32.2702 48.2686 32.2702 48.1939 32.2702V33.2992L52.1537 33.2257L52.079 29.3303H51.033C51.033 29.4038 51.033 30.7268 51.1077 31.2412C50.2858 30.2123 48.941 29.5508 47.5962 29.5508C45.1306 29.5508 43.1134 31.5352 43.1134 33.9607C43.1134 36.3861 45.1306 38.3706 47.5962 38.3706C49.2399 38.3706 50.7341 37.4886 51.556 36.0921L50.3606 35.4307C49.7628 36.4596 48.7169 37.0476 47.5962 37.0476Z" fill="#222326"/>
<path d="M67.351 18.47V13.222H68.039L69.935 16.518L70.503 17.606H70.535C70.519 17.3394 70.5004 17.0647 70.479 16.782C70.463 16.494 70.455 16.2114 70.455 15.934V13.222H71.087V18.47H70.399L68.495 15.166L67.927 14.086H67.895C67.9164 14.3527 67.935 14.6247 67.951 14.902C67.9724 15.174 67.983 15.4487 67.983 15.726V18.47H67.351ZM74.0427 18.566C73.7814 18.566 73.5361 18.5207 73.3067 18.43C73.0827 18.334 72.8854 18.2007 72.7147 18.03C72.5494 17.854 72.4187 17.6407 72.3227 17.39C72.2267 17.1394 72.1787 16.854 72.1787 16.534C72.1787 16.214 72.2267 15.9287 72.3227 15.678C72.4241 15.422 72.5547 15.206 72.7147 15.03C72.8801 14.854 73.0667 14.7207 73.2747 14.63C73.4827 14.534 73.6987 14.486 73.9227 14.486C74.1681 14.486 74.3867 14.5287 74.5787 14.614C74.7761 14.6994 74.9387 14.822 75.0667 14.982C75.2001 15.142 75.3014 15.334 75.3707 15.558C75.4401 15.782 75.4747 16.0327 75.4747 16.31C75.4747 16.3794 75.4721 16.4487 75.4667 16.518C75.4667 16.582 75.4614 16.638 75.4507 16.686H72.8267C72.8534 17.102 72.9814 17.4327 73.2107 17.678C73.4454 17.918 73.7494 18.038 74.1227 18.038C74.3094 18.038 74.4801 18.0114 74.6347 17.958C74.7947 17.8994 74.9467 17.8247 75.0907 17.734L75.3227 18.166C75.1521 18.2727 74.9627 18.366 74.7547 18.446C74.5467 18.526 74.3094 18.566 74.0427 18.566ZM72.8187 16.214H74.8987C74.8987 15.8194 74.8134 15.5207 74.6427 15.318C74.4774 15.11 74.2427 15.006 73.9387 15.006C73.8001 15.006 73.6667 15.0327 73.5387 15.086C73.4161 15.1394 73.3041 15.2194 73.2027 15.326C73.1014 15.4274 73.0161 15.5527 72.9467 15.702C72.8827 15.8514 72.8401 16.022 72.8187 16.214ZM77.0905 18.47L76.0105 14.582H76.6825L77.2585 16.83C77.3012 17.0167 77.3412 17.198 77.3785 17.374C77.4159 17.55 77.4532 17.7287 77.4905 17.91H77.5225C77.5652 17.7287 77.6079 17.55 77.6505 17.374C77.6932 17.1927 77.7385 17.0114 77.7865 16.83L78.3865 14.582H79.0265L79.6345 16.83C79.6825 17.0167 79.7279 17.198 79.7705 17.374C79.8185 17.55 79.8639 17.7287 79.9065 17.91H79.9385C79.9812 17.7287 80.0212 17.55 80.0585 17.374C80.0959 17.198 80.1359 17.0167 80.1785 16.83L80.7465 14.582H81.3705L80.3305 18.47H79.5305L78.9705 16.382C78.9225 16.1954 78.8772 16.0114 78.8345 15.83C78.7972 15.6487 78.7545 15.4594 78.7065 15.262H78.6745C78.6319 15.4594 78.5892 15.6514 78.5465 15.838C78.5039 16.0194 78.4559 16.2034 78.4025 16.39L77.8585 18.47H77.0905ZM84.9703 18.47V13.782H83.3863V13.222H87.2263V13.782H85.6423V18.47H84.9703ZM88.4174 18.566C88.0921 18.566 87.8201 18.47 87.6014 18.278C87.3881 18.086 87.2814 17.814 87.2814 17.462C87.2814 17.0354 87.4708 16.71 87.8494 16.486C88.2281 16.2567 88.8334 16.0967 89.6654 16.006C89.6654 15.8834 89.6521 15.7634 89.6254 15.646C89.6041 15.5287 89.5641 15.4247 89.5054 15.334C89.4468 15.2434 89.3641 15.1714 89.2574 15.118C89.1561 15.0594 89.0254 15.03 88.8654 15.03C88.6414 15.03 88.4308 15.0727 88.2334 15.158C88.0361 15.2434 87.8601 15.3394 87.7054 15.446L87.4494 14.99C87.6308 14.8727 87.8521 14.7607 88.1134 14.654C88.3748 14.542 88.6628 14.486 88.9774 14.486C89.4521 14.486 89.7961 14.6327 90.0094 14.926C90.2228 15.214 90.3294 15.6007 90.3294 16.086V18.47H89.7854L89.7294 18.006H89.7054C89.5188 18.1607 89.3188 18.294 89.1054 18.406C88.8921 18.5127 88.6628 18.566 88.4174 18.566ZM88.6094 18.038C88.7961 18.038 88.9721 17.9954 89.1374 17.91C89.3028 17.8194 89.4788 17.6887 89.6654 17.518V16.438C89.3401 16.4807 89.0654 16.5314 88.8414 16.59C88.6228 16.6487 88.4441 16.718 88.3054 16.798C88.1721 16.878 88.0734 16.9714 88.0094 17.078C87.9508 17.1794 87.9214 17.2914 87.9214 17.414C87.9214 17.638 87.9881 17.798 88.1214 17.894C88.2548 17.99 88.4174 18.038 88.6094 18.038ZM93.2727 18.566C93.0913 18.566 92.902 18.5234 92.7047 18.438C92.5127 18.3474 92.3313 18.2247 92.1607 18.07H92.1367L92.0807 18.47H91.5527V12.774H92.2087V14.326L92.1927 15.03C92.3687 14.8754 92.5607 14.7474 92.7687 14.646C92.9767 14.5394 93.19 14.486 93.4087 14.486C93.6593 14.486 93.8807 14.534 94.0727 14.63C94.2647 14.7207 94.4247 14.854 94.5527 15.03C94.686 15.2007 94.7847 15.4087 94.8487 15.654C94.918 15.894 94.9527 16.1634 94.9527 16.462C94.9527 16.7927 94.9073 17.0887 94.8167 17.35C94.726 17.6114 94.6033 17.8327 94.4487 18.014C94.294 18.1954 94.1153 18.334 93.9127 18.43C93.71 18.5207 93.4967 18.566 93.2727 18.566ZM93.1607 18.014C93.3207 18.014 93.4673 17.9794 93.6007 17.91C93.7393 17.8354 93.8567 17.734 93.9527 17.606C94.054 17.4727 94.1313 17.31 94.1847 17.118C94.2433 16.926 94.2727 16.71 94.2727 16.47C94.2727 16.2567 94.254 16.062 94.2167 15.886C94.1793 15.71 94.118 15.5607 94.0327 15.438C93.9527 15.31 93.846 15.2114 93.7127 15.142C93.5847 15.0727 93.43 15.038 93.2487 15.038C92.934 15.038 92.5873 15.214 92.2087 15.566V17.606C92.3793 17.7554 92.5473 17.862 92.7127 17.926C92.8833 17.9847 93.0327 18.014 93.1607 18.014Z" fill="#222326"/>
<path d="M74.8312 38H73.8375V32.1885H74.8312V38ZM73.757 30.647C73.757 30.4858 73.8053 30.3498 73.902 30.2388C74.0022 30.1278 74.149 30.0723 74.3424 30.0723C74.5358 30.0723 74.6826 30.1278 74.7828 30.2388C74.8831 30.3498 74.9332 30.4858 74.9332 30.647C74.9332 30.8081 74.8831 30.9424 74.7828 31.0498C74.6826 31.1572 74.5358 31.2109 74.3424 31.2109C74.149 31.2109 74.0022 31.1572 73.902 31.0498C73.8053 30.9424 73.757 30.8081 73.757 30.647ZM77.5863 32.1885L77.6186 32.9189C78.0626 32.3604 78.6426 32.0811 79.3588 32.0811C80.587 32.0811 81.2065 32.7739 81.2172 34.1597V38H80.2235V34.1543C80.22 33.7354 80.1233 33.4256 79.9335 33.2251C79.7473 33.0246 79.4555 32.9243 79.058 32.9243C78.7357 32.9243 78.4529 33.0103 78.2094 33.1821C77.9659 33.354 77.7761 33.5796 77.64 33.8589V38H76.6464V32.1885H77.5863ZM86.3195 36.4585C86.3195 36.1899 86.2175 35.9823 86.0134 35.8354C85.8128 35.6851 85.4601 35.5562 84.9553 35.4487C84.454 35.3413 84.0547 35.2124 83.7575 35.062C83.4639 34.9116 83.2455 34.7326 83.1022 34.5249C82.9626 34.3172 82.8928 34.0701 82.8928 33.7837C82.8928 33.3075 83.0933 32.9046 83.4943 32.5752C83.8989 32.2458 84.4146 32.0811 85.0412 32.0811C85.7001 32.0811 86.2336 32.2511 86.6418 32.5913C87.0536 32.9315 87.2595 33.3665 87.2595 33.8965H86.2604C86.2604 33.6243 86.1441 33.3898 85.9113 33.1929C85.6821 32.9959 85.3921 32.8975 85.0412 32.8975C84.6795 32.8975 84.3967 32.9762 84.1926 33.1338C83.9885 33.2913 83.8864 33.4972 83.8864 33.7515C83.8864 33.9914 83.9813 34.1722 84.1711 34.2939C84.3609 34.4157 84.7028 34.5321 85.197 34.6431C85.6947 34.7541 86.0975 34.8866 86.4055 35.0405C86.7134 35.1945 86.9408 35.3807 87.0876 35.5991C87.238 35.814 87.3132 36.0771 87.3132 36.3887C87.3132 36.9079 87.1055 37.325 86.6901 37.6401C86.2748 37.9517 85.7359 38.1074 85.0734 38.1074C84.6079 38.1074 84.1961 38.0251 83.8381 37.8604C83.48 37.6956 83.1989 37.4665 82.9948 37.1729C82.7943 36.8757 82.694 36.5552 82.694 36.2114H83.6877C83.7056 36.5444 83.8381 36.8094 84.0851 37.0063C84.3358 37.1997 84.6652 37.2964 85.0734 37.2964C85.4494 37.2964 85.7502 37.2212 85.9758 37.0708C86.2049 36.9168 86.3195 36.7127 86.3195 36.4585ZM92.4155 37.4253C92.0288 37.88 91.4612 38.1074 90.7129 38.1074C90.0934 38.1074 89.6207 37.9284 89.2949 37.5703C88.9726 37.2087 88.8097 36.6751 88.8061 35.9697V32.1885H89.7998V35.9429C89.7998 36.8237 90.1578 37.2642 90.874 37.2642C91.6331 37.2642 92.138 36.9813 92.3886 36.4155V32.1885H93.3823V38H92.437L92.4155 37.4253ZM97.926 33.0801C97.7756 33.055 97.6127 33.0425 97.4373 33.0425C96.7856 33.0425 96.3433 33.32 96.1106 33.875V38H95.1169V32.1885H96.0837L96.0998 32.8599C96.4257 32.3407 96.8876 32.0811 97.4856 32.0811C97.6789 32.0811 97.8258 32.1061 97.926 32.1562V33.0801ZM102.438 38C102.38 37.8854 102.334 37.6813 102.298 37.3877C101.836 37.8675 101.285 38.1074 100.644 38.1074C100.071 38.1074 99.5998 37.9463 99.231 37.624C98.8657 37.2982 98.6831 36.8864 98.6831 36.3887C98.6831 35.7835 98.9123 35.3145 99.3706 34.9814C99.8325 34.6449 100.481 34.4766 101.315 34.4766H102.282V34.02C102.282 33.6727 102.178 33.397 101.97 33.1929C101.763 32.9852 101.456 32.8813 101.052 32.8813C100.697 32.8813 100.4 32.9709 100.16 33.1499C99.9203 33.3289 99.8003 33.5456 99.8003 33.7998H98.8013C98.8013 33.5098 98.9033 33.2305 99.1074 32.9619C99.3151 32.6898 99.5944 32.4749 99.9453 32.3174C100.3 32.1598 100.688 32.0811 101.111 32.0811C101.78 32.0811 102.305 32.2493 102.685 32.5859C103.064 32.9189 103.261 33.3791 103.275 33.9663V36.6411C103.275 37.1746 103.343 37.599 103.48 37.9141V38H102.438ZM100.789 37.2427C101.1 37.2427 101.396 37.1621 101.675 37.001C101.954 36.8398 102.156 36.6304 102.282 36.3726V35.1802H101.503C100.286 35.1802 99.6768 35.5365 99.6768 36.249C99.6768 36.5605 99.7806 36.804 99.9883 36.9795C100.196 37.1549 100.463 37.2427 100.789 37.2427ZM105.993 32.1885L106.025 32.9189C106.469 32.3604 107.049 32.0811 107.765 32.0811C108.994 32.0811 109.613 32.7739 109.624 34.1597V38H108.63V34.1543C108.627 33.7354 108.53 33.4256 108.34 33.2251C108.154 33.0246 107.862 32.9243 107.465 32.9243C107.142 32.9243 106.86 33.0103 106.616 33.1821C106.373 33.354 106.183 33.5796 106.047 33.8589V38H105.053V32.1885H105.993ZM113.673 37.2964C114.028 37.2964 114.338 37.189 114.603 36.9741C114.868 36.7593 115.014 36.4907 115.043 36.1685H115.983C115.965 36.5015 115.851 36.8184 115.639 37.1191C115.428 37.4199 115.145 37.6598 114.791 37.8389C114.44 38.0179 114.067 38.1074 113.673 38.1074C112.882 38.1074 112.252 37.8442 111.783 37.3179C111.317 36.7879 111.085 36.0646 111.085 35.1479V34.9814C111.085 34.4157 111.188 33.9126 111.396 33.4722C111.604 33.0317 111.901 32.6898 112.288 32.4463C112.678 32.2028 113.138 32.0811 113.668 32.0811C114.32 32.0811 114.86 32.2762 115.29 32.6665C115.723 33.0568 115.954 33.5635 115.983 34.1865H115.043C115.014 33.8105 114.871 33.5026 114.613 33.2627C114.359 33.0192 114.044 32.8975 113.668 32.8975C113.163 32.8975 112.771 33.0801 112.492 33.4453C112.216 33.807 112.078 34.3315 112.078 35.019V35.207C112.078 35.8766 112.216 36.3923 112.492 36.7539C112.767 37.1156 113.161 37.2964 113.673 37.2964ZM119.732 38.1074C118.944 38.1074 118.303 37.8496 117.809 37.334C117.315 36.8148 117.068 36.1219 117.068 35.2554V35.0728C117.068 34.4963 117.177 33.9824 117.395 33.5312C117.617 33.0765 117.925 32.722 118.319 32.4678C118.717 32.21 119.146 32.0811 119.608 32.0811C120.364 32.0811 120.951 32.3299 121.37 32.8276C121.789 33.3254 121.998 34.0379 121.998 34.9653V35.3789H118.061C118.076 35.9518 118.242 36.4155 118.561 36.77C118.883 37.1209 119.291 37.2964 119.786 37.2964C120.136 37.2964 120.434 37.2248 120.677 37.0815C120.921 36.9383 121.134 36.7485 121.316 36.5122L121.923 36.9849C121.436 37.7332 120.706 38.1074 119.732 38.1074ZM119.608 32.8975C119.207 32.8975 118.871 33.0443 118.598 33.3379C118.326 33.6279 118.158 34.0361 118.094 34.5625H121.005V34.4873C120.976 33.9824 120.84 33.5921 120.597 33.3164C120.353 33.0371 120.024 32.8975 119.608 32.8975Z" fill="#222326"/>
<rect opacity="0.2" x="21.9996" y="59.7333" width="174" height="15" fill="#848484"/>
<rect opacity="0.2" x="21.9996" y="84.7333" width="174" height="15" fill="#848484"/>
<rect opacity="0.2" x="21.9996" y="109.733" width="174" height="15" fill="#848484"/>
<rect opacity="0.3" x="0.00592041" y="0.98912" width="213.994" height="147.011" rx="7" fill="black"/>
<g filter="url(#filter0_d)">
<rect x="18.0963" y="12.9137" width="193.904" height="133.196" rx="6.43024" fill="#36CAF5"/>
</g>
<path d="M18.1371 31.6656H212V139.679C212 143.23 209.121 146.109 205.57 146.109H24.5673C21.016 146.109 18.1371 143.23 18.1371 139.679V31.6656Z" fill="white"/>
<path d="M187.143 31.6562V19.3576C186.188 17.8758 184.119 16.6904 182.527 16.6904H76.2784C74.6866 16.6904 72.697 17.8758 71.8215 19.3576V31.6562H18.1064V52.9936H211.905V31.6562H187.143Z" fill="#F1F3F4"/>
<rect x="74.274" y="34.6599" width="131.383" height="16.3097" rx="8.15483" fill="white"/>
<path d="M23.2258 42.6436L27.0266 46.7749L28.0096 45.7064C28.0096 45.6352 25.9781 43.4983 25.9126 43.4271H31.4172C31.4172 43.2846 31.4172 42.145 31.4172 41.9313C30.4342 41.9313 26.83 41.9313 25.9126 41.9313C25.9781 41.8601 28.0096 39.7232 28.0096 39.6519L27.0266 38.5835L23.2258 42.6436Z" fill="#222326"/>
<path d="M48.9701 42.6792L45.1693 46.7749L44.1863 45.645C44.1863 45.5744 46.2178 43.456 46.2833 43.3853H40.7787C40.7787 43.2441 40.7787 42.1143 40.7787 41.9024C41.7617 41.9024 45.3659 41.9024 46.2833 41.9024C46.2178 41.8318 44.1863 39.7134 44.1863 39.6427L45.1693 38.5835L48.9701 42.6792Z" fill="#848484"/>
<path d="M34.9277 22.7553C34.9277 20.805 33.3675 19.2447 31.4171 19.2447C29.4668 19.2447 27.9066 20.805 27.9066 22.7553C27.9066 24.7056 29.4668 26.2659 31.4171 26.2659C33.2894 26.2659 34.9277 24.7056 34.9277 22.7553Z" fill="white"/>
<path d="M46.0194 22.7553C46.0194 20.805 44.4592 19.2447 42.5088 19.2447C40.5585 19.2447 38.9983 20.805 38.9983 22.7553C38.9983 24.7056 40.5585 26.2659 42.5088 26.2659C44.4592 26.2659 46.0194 24.7056 46.0194 22.7553Z" fill="white"/>
<path d="M56.6317 22.7553C56.6317 20.805 55.0715 19.2447 53.1211 19.2447C51.1708 19.2447 49.6106 20.805 49.6106 22.7553C49.6106 24.7056 51.1708 26.2659 53.1211 26.2659C55.0715 26.2659 56.6317 24.7056 56.6317 22.7553Z" fill="white"/>
<path d="M61.2232 45.5761C59.6661 45.5761 58.3799 44.3108 58.3799 42.7791C58.3799 41.2474 59.6661 39.982 61.2232 39.982C62.1709 39.982 63.051 40.4482 63.5926 41.2474C63.1187 41.2474 61.8324 41.2474 61.7647 41.2474V42.1797L65.3527 42.1131L65.285 38.5835H64.3372C64.3372 38.6501 64.3372 39.8488 64.4049 40.315C63.6603 39.3827 62.4417 38.7833 61.2232 38.7833C58.9892 38.7833 57.1613 40.5814 57.1613 42.7791C57.1613 44.9768 58.9892 46.7749 61.2232 46.7749C62.7125 46.7749 64.0664 45.9757 64.8111 44.7104L63.728 44.111C63.1864 45.0434 62.2386 45.5761 61.2232 45.5761Z" fill="#222326"/>
<path d="M79.1229 28.4944V23.7392H79.7463L81.4642 26.7257L81.9789 27.7115H82.0079C81.9934 27.4699 81.9765 27.221 81.9572 26.9649C81.9427 26.7039 81.9354 26.4478 81.9354 26.1965V23.7392H82.5081V28.4944H81.8847L80.1595 25.5007L79.6448 24.5221H79.6158C79.6352 24.7637 79.6521 25.0102 79.6666 25.2614C79.6859 25.5079 79.6956 25.7568 79.6956 26.0081V28.4944H79.1229ZM85.1862 28.5814C84.9494 28.5814 84.7271 28.5403 84.5193 28.4581C84.3163 28.3712 84.1375 28.2503 83.9829 28.0957C83.8331 27.9362 83.7147 27.7429 83.6277 27.5158C83.5407 27.2887 83.4972 27.0301 83.4972 26.7402C83.4972 26.4502 83.5407 26.1917 83.6277 25.9646C83.7195 25.7326 83.8379 25.5369 83.9829 25.3774C84.1327 25.218 84.3018 25.0971 84.4903 25.015C84.6788 24.928 84.8745 24.8845 85.0775 24.8845C85.2998 24.8845 85.4979 24.9232 85.6719 25.0005C85.8507 25.0778 85.9981 25.189 86.114 25.3339C86.2348 25.4789 86.3267 25.6529 86.3895 25.8558C86.4523 26.0588 86.4837 26.2859 86.4837 26.5372C86.4837 26.6 86.4813 26.6629 86.4765 26.7257C86.4765 26.7837 86.4716 26.8344 86.462 26.8779H84.0844C84.1085 27.2549 84.2245 27.5545 84.4323 27.7768C84.645 27.9942 84.9204 28.103 85.2587 28.103C85.4278 28.103 85.5825 28.0788 85.7226 28.0305C85.8676 27.9773 86.0053 27.9097 86.1358 27.8275L86.346 28.2189C86.1914 28.3156 86.0198 28.4002 85.8313 28.4726C85.6429 28.5451 85.4278 28.5814 85.1862 28.5814ZM84.0771 26.4502H85.9618C85.9618 26.0926 85.8845 25.822 85.7298 25.6384C85.58 25.4499 85.3674 25.3557 85.092 25.3557C84.9663 25.3557 84.8455 25.3798 84.7295 25.4282C84.6184 25.4765 84.5169 25.549 84.4251 25.6456C84.3333 25.7374 84.2559 25.851 84.1931 25.9863C84.1351 26.1216 84.0965 26.2763 84.0771 26.4502ZM87.9478 28.4944L86.9692 24.9715H87.5781L88.1 27.0084C88.1387 27.1775 88.1749 27.3418 88.2087 27.5013C88.2426 27.6608 88.2764 27.8227 88.3102 27.987H88.3392C88.3779 27.8227 88.4165 27.6608 88.4552 27.5013C88.4939 27.337 88.5349 27.1727 88.5784 27.0084L89.1221 24.9715H89.702L90.2529 27.0084C90.2964 27.1775 90.3375 27.3418 90.3761 27.5013C90.4196 27.6608 90.4607 27.8227 90.4993 27.987H90.5283C90.567 27.8227 90.6032 27.6608 90.6371 27.5013C90.6709 27.3418 90.7071 27.1775 90.7458 27.0084L91.2605 24.9715H91.8259L90.8835 28.4944H90.1587L89.6512 26.6025C89.6078 26.4333 89.5667 26.2666 89.528 26.1023C89.4942 25.938 89.4555 25.7664 89.412 25.5876H89.383C89.3444 25.7664 89.3057 25.9404 89.2671 26.1095C89.2284 26.2739 89.1849 26.4406 89.1366 26.6097L88.6437 28.4944H87.9478ZM95.0876 28.4944V24.2466H93.6523V23.7392H97.1317V24.2466H95.6965V28.4944H95.0876ZM98.211 28.5814C97.9162 28.5814 97.6697 28.4944 97.4716 28.3204C97.2783 28.1464 97.1817 27.9 97.1817 27.581C97.1817 27.1944 97.3532 26.8997 97.6963 26.6967C98.0394 26.4889 98.5879 26.3439 99.3418 26.2618C99.3418 26.1506 99.3297 26.0419 99.3055 25.9356C99.2862 25.8293 99.25 25.735 99.1968 25.6529C99.1437 25.5707 99.0688 25.5055 98.9721 25.4572C98.8803 25.404 98.7619 25.3774 98.6169 25.3774C98.414 25.3774 98.2231 25.4161 98.0443 25.4934C97.8655 25.5707 97.706 25.6577 97.5658 25.7544L97.3339 25.3412C97.4982 25.2349 97.6987 25.1334 97.9355 25.0367C98.1723 24.9353 98.4333 24.8845 98.7184 24.8845C99.1485 24.8845 99.4602 25.0174 99.6535 25.2832C99.8468 25.5441 99.9434 25.8945 99.9434 26.3343V28.4944H99.4505L99.3998 28.074H99.378C99.2089 28.2141 99.0277 28.3349 98.8344 28.4364C98.6411 28.533 98.4333 28.5814 98.211 28.5814ZM98.385 28.103C98.5541 28.103 98.7136 28.0643 98.8634 27.987C99.0132 27.9048 99.1727 27.7864 99.3418 27.6318V26.6532C99.047 26.6919 98.7981 26.7378 98.5952 26.7909C98.397 26.8441 98.2351 26.9069 98.1095 26.9794C97.9887 27.0519 97.8993 27.1365 97.8413 27.2331C97.7881 27.3249 97.7616 27.4264 97.7616 27.5376C97.7616 27.7405 97.822 27.8855 97.9428 27.9725C98.0636 28.0595 98.211 28.103 98.385 28.103ZM102.61 28.5814C102.446 28.5814 102.274 28.5427 102.096 28.4654C101.922 28.3832 101.757 28.2721 101.603 28.1319H101.581L101.53 28.4944H101.052V23.3333H101.646V24.7395L101.632 25.3774C101.791 25.2373 101.965 25.1213 102.154 25.0295C102.342 24.9328 102.535 24.8845 102.734 24.8845C102.961 24.8845 103.161 24.928 103.335 25.015C103.509 25.0971 103.654 25.218 103.77 25.3774C103.891 25.5321 103.98 25.7205 104.038 25.9428C104.101 26.1603 104.133 26.4043 104.133 26.675C104.133 26.9746 104.091 27.2428 104.009 27.4796C103.927 27.7164 103.816 27.9169 103.676 28.0812C103.536 28.2455 103.374 28.3712 103.19 28.4581C103.007 28.5403 102.813 28.5814 102.61 28.5814ZM102.509 28.0812C102.654 28.0812 102.787 28.0498 102.907 27.987C103.033 27.9193 103.139 27.8275 103.226 27.7115C103.318 27.5907 103.388 27.4433 103.437 27.2693C103.49 27.0954 103.516 26.8997 103.516 26.6822C103.516 26.4889 103.499 26.3125 103.466 26.153C103.432 25.9936 103.376 25.8583 103.299 25.7471C103.226 25.6311 103.13 25.5417 103.009 25.4789C102.893 25.4161 102.753 25.3847 102.589 25.3847C102.303 25.3847 101.989 25.5441 101.646 25.8631V27.7115C101.801 27.8468 101.953 27.9435 102.103 28.0015C102.258 28.0546 102.393 28.0812 102.509 28.0812Z" fill="#222326"/>
<path d="M85.9006 46.566H85.0002V41.3002H85.9006V46.566ZM84.9272 39.9035C84.9272 39.7575 84.971 39.6342 85.0586 39.5336C85.1495 39.433 85.2825 39.3827 85.4577 39.3827C85.6329 39.3827 85.7659 39.433 85.8568 39.5336C85.9476 39.6342 85.993 39.7575 85.993 39.9035C85.993 40.0495 85.9476 40.1711 85.8568 40.2685C85.7659 40.3658 85.6329 40.4145 85.4577 40.4145C85.2825 40.4145 85.1495 40.3658 85.0586 40.2685C84.971 40.1711 84.9272 40.0495 84.9272 39.9035ZM88.397 41.3002L88.4262 41.9621C88.8285 41.4559 89.3541 41.2029 90.003 41.2029C91.1159 41.2029 91.6772 41.8307 91.6869 43.0863V46.566H90.7866V43.0814C90.7833 42.7018 90.6957 42.4212 90.5238 42.2395C90.355 42.0578 90.0906 41.9669 89.7305 41.9669C89.4385 41.9669 89.1822 42.0448 88.9615 42.2005C88.7409 42.3563 88.569 42.5607 88.4457 42.8137V46.566H87.5453V41.3002H88.397ZM96.3101 45.1692C96.3101 44.9259 96.2176 44.7377 96.0327 44.6047C95.851 44.4684 95.5314 44.3516 95.0739 44.2543C94.6197 44.157 94.2579 44.0402 93.9887 43.9039C93.7226 43.7676 93.5247 43.6054 93.3949 43.4172C93.2684 43.229 93.2051 43.0052 93.2051 42.7456C93.2051 42.3141 93.3868 41.9491 93.7502 41.6506C94.1168 41.3521 94.584 41.2029 95.1518 41.2029C95.7488 41.2029 96.2322 41.357 96.6021 41.6652C96.9752 41.9734 97.1617 42.3676 97.1617 42.8478H96.2565C96.2565 42.6012 96.1511 42.3887 95.9402 42.2103C95.7326 42.0318 95.4698 41.9426 95.1518 41.9426C94.8241 41.9426 94.5678 42.014 94.3829 42.1567C94.1979 42.2995 94.1055 42.4861 94.1055 42.7164C94.1055 42.9338 94.1914 43.0976 94.3634 43.208C94.5353 43.3183 94.8452 43.4237 95.2929 43.5243C95.7439 43.6249 96.1089 43.7449 96.3879 43.8844C96.667 44.0239 96.873 44.1926 97.006 44.3906C97.1423 44.5852 97.2104 44.8237 97.2104 45.106C97.2104 45.5764 97.0222 45.9544 96.6459 46.2399C96.2695 46.5222 95.7812 46.6633 95.181 46.6633C94.7592 46.6633 94.3861 46.5887 94.0617 46.4394C93.7372 46.2902 93.4825 46.0826 93.2976 45.8165C93.1159 45.5472 93.025 45.2568 93.025 44.9454H93.9254C93.9416 45.2471 94.0617 45.4872 94.2855 45.6656C94.5126 45.8408 94.8111 45.9284 95.181 45.9284C95.5217 45.9284 95.7942 45.8603 95.9986 45.724C96.2062 45.5845 96.3101 45.3996 96.3101 45.1692ZM101.834 46.0452C101.483 46.4573 100.969 46.6633 100.291 46.6633C99.7295 46.6633 99.3013 46.5011 99.006 46.1766C98.714 45.849 98.5664 45.3655 98.5632 44.7264V41.3002H99.4635V44.702C99.4635 45.5002 99.7879 45.8992 100.437 45.8992C101.125 45.8992 101.582 45.6429 101.809 45.1303V41.3002H102.71V46.566H101.853L101.834 46.0452ZM106.827 42.1081C106.69 42.0854 106.543 42.074 106.384 42.074C105.793 42.074 105.393 42.3255 105.182 42.8283V46.566H104.281V41.3002H105.157L105.172 41.9085C105.467 41.4381 105.886 41.2029 106.428 41.2029C106.603 41.2029 106.736 41.2256 106.827 41.271V42.1081ZM110.914 46.566C110.863 46.4622 110.82 46.2772 110.788 46.0112C110.369 46.4459 109.87 46.6633 109.289 46.6633C108.77 46.6633 108.343 46.5173 108.009 46.2253C107.678 45.9301 107.513 45.5569 107.513 45.106C107.513 44.5577 107.72 44.1326 108.136 43.8309C108.554 43.5259 109.141 43.3734 109.897 43.3734H110.773V42.9597C110.773 42.645 110.679 42.3952 110.491 42.2103C110.303 42.0221 110.025 41.928 109.659 41.928C109.338 41.928 109.068 42.0091 108.851 42.1713C108.634 42.3336 108.525 42.5299 108.525 42.7602H107.62C107.62 42.4974 107.712 42.2443 107.897 42.001C108.085 41.7544 108.338 41.5598 108.656 41.417C108.978 41.2742 109.33 41.2029 109.712 41.2029C110.319 41.2029 110.794 41.3554 111.138 41.6603C111.482 41.9621 111.661 42.379 111.674 42.9111V45.3347C111.674 45.8181 111.735 46.2026 111.859 46.4881V46.566H110.914ZM109.42 45.8798C109.703 45.8798 109.97 45.8068 110.223 45.6608C110.476 45.5148 110.66 45.325 110.773 45.0914V44.011H110.068C108.965 44.011 108.413 44.3338 108.413 44.9794C108.413 45.2617 108.507 45.4823 108.695 45.6413C108.883 45.8003 109.125 45.8798 109.42 45.8798ZM114.136 41.3002L114.165 41.9621C114.568 41.4559 115.093 41.2029 115.742 41.2029C116.855 41.2029 117.416 41.8307 117.426 43.0863V46.566H116.526V43.0814C116.522 42.7018 116.435 42.4212 116.263 42.2395C116.094 42.0578 115.83 41.9669 115.47 41.9669C115.178 41.9669 114.921 42.0448 114.701 42.2005C114.48 42.3563 114.308 42.5607 114.185 42.8137V46.566H113.284V41.3002H114.136ZM121.095 45.9284C121.416 45.9284 121.697 45.8311 121.937 45.6364C122.177 45.4418 122.31 45.1984 122.336 44.9064H123.188C123.172 45.2082 123.068 45.4953 122.876 45.7678C122.685 46.0404 122.429 46.2578 122.108 46.42C121.79 46.5822 121.452 46.6633 121.095 46.6633C120.378 46.6633 119.807 46.4248 119.382 45.9479C118.96 45.4677 118.749 44.8123 118.749 43.9818V43.8309C118.749 43.3183 118.844 42.8624 119.032 42.4633C119.22 42.0643 119.489 41.7544 119.84 41.5338C120.193 41.3132 120.61 41.2029 121.09 41.2029C121.681 41.2029 122.171 41.3797 122.56 41.7333C122.953 42.087 123.162 42.5461 123.188 43.1106H122.336C122.31 42.7699 122.181 42.4909 121.947 42.2735C121.717 42.0529 121.431 41.9426 121.09 41.9426C120.633 41.9426 120.278 42.1081 120.025 42.439C119.775 42.7667 119.65 43.242 119.65 43.865V44.0353C119.65 44.642 119.775 45.1092 120.025 45.4369C120.274 45.7646 120.631 45.9284 121.095 45.9284ZM126.585 46.6633C125.871 46.6633 125.29 46.4297 124.842 45.9625C124.395 45.4921 124.171 44.8643 124.171 44.0791V43.9136C124.171 43.3913 124.27 42.9257 124.468 42.5169C124.669 42.1048 124.948 41.7836 125.305 41.5533C125.665 41.3197 126.054 41.2029 126.473 41.2029C127.157 41.2029 127.689 41.4284 128.069 41.8793C128.449 42.3303 128.638 42.976 128.638 43.8163V44.191H125.071C125.084 44.7101 125.235 45.1303 125.524 45.4515C125.816 45.7695 126.186 45.9284 126.633 45.9284C126.951 45.9284 127.221 45.8636 127.441 45.7338C127.662 45.604 127.855 45.432 128.02 45.2179L128.57 45.6462C128.129 46.3243 127.467 46.6633 126.585 46.6633ZM126.473 41.9426C126.109 41.9426 125.804 42.0756 125.558 42.3417C125.311 42.6045 125.159 42.9743 125.1 43.4513H127.738V43.3832C127.712 42.9257 127.589 42.572 127.368 42.3222C127.148 42.0691 126.849 41.9426 126.473 41.9426Z" fill="#222326"/>
<rect opacity="0.2" x="38.0304" y="66.1315" width="157.66" height="13.5914" fill="#848484"/>
<rect opacity="0.2" x="38.0304" y="88.7838" width="157.66" height="13.5914" fill="#848484"/>
<rect opacity="0.2" x="38.0304" y="111.436" width="157.66" height="13.5914" fill="#848484"/>
<g filter="url(#filter1_d)">
<circle cx="185" cy="117" r="23" fill="white"/>
</g>
<path d="M188.838 104.969V106.808H194.892L183.366 118.341L184.658 119.634L196.192 108.108V114.162H198.03V104.969H188.838ZM179.646 108.646C177.613 108.646 175.969 110.291 175.969 112.323V123.354C175.969 125.386 177.613 127.031 179.646 127.031H190.677C192.709 127.031 194.353 125.386 194.353 123.354V114.162L192.515 116V123.354C192.515 124.366 191.689 125.192 190.677 125.192H179.646C178.633 125.192 177.807 124.366 177.807 123.354V112.323C177.807 111.311 178.633 110.485 179.646 110.485H187L188.838 108.646H179.646Z" fill="#1D6CE3"/>
</g>
<defs>
<filter id="filter0_d" x="7.2338" y="2.0512" width="215.629" height="154.92" filterUnits="userSpaceOnUse" color-interpolation-filters="sRGB">
<feFlood flood-opacity="0" result="BackgroundImageFix"/>
<feColorMatrix in="SourceAlpha" type="matrix" values="0 0 0 0 0 0 0 0 0 0 0 0 0 0 0 0 0 0 127 0"/>
<feOffset/>
<feGaussianBlur stdDeviation="5.43123"/>
<feColorMatrix type="matrix" values="0 0 0 0 0 0 0 0 0 0 0 0 0 0 0 0 0 0 0.15 0"/>
<feBlend mode="normal" in2="BackgroundImageFix" result="effect1_dropShadow"/>
<feBlend mode="normal" in="SourceGraphic" in2="effect1_dropShadow" result="shape"/>
</filter>
<filter id="filter1_d" x="152" y="84" width="66" height="66" filterUnits="userSpaceOnUse" color-interpolation-filters="sRGB">
<feFlood flood-opacity="0" result="BackgroundImageFix"/>
<feColorMatrix in="SourceAlpha" type="matrix" values="0 0 0 0 0 0 0 0 0 0 0 0 0 0 0 0 0 0 127 0"/>
<feOffset/>
<feGaussianBlur stdDeviation="5"/>
<feColorMatrix type="matrix" values="0 0 0 0 0 0 0 0 0 0 0 0 0 0 0 0 0 0 0.15 0"/>
<feBlend mode="normal" in2="BackgroundImageFix" result="effect1_dropShadow"/>
<feBlend mode="normal" in="SourceGraphic" in2="effect1_dropShadow" result="shape"/>
</filter>
</defs>
</svg>
