<svg width="152" height="48" viewBox="0 0 152 48" fill="none" xmlns="http://www.w3.org/2000/svg">
<path fill-rule="evenodd" clip-rule="evenodd" d="M75.2972 47.5622L71.2972 42.5622L72.7028 41.4378L76.7028 46.4378L75.2972 47.5622Z" fill="#1D6CE3"/>
<path d="M63.0055 8.81176C62.8867 9.00925 62.7637 9.15523 62.6364 9.24968C62.5177 9.33555 62.3608 9.37848 62.1656 9.37848C61.979 9.37848 61.7754 9.31408 61.5549 9.18528C61.3428 9.04789 61.0926 8.90192 60.8041 8.74736C60.5157 8.5928 60.1849 8.45112 59.8116 8.32232C59.4384 8.18493 59.0015 8.11624 58.501 8.11624C57.6188 8.11624 56.9571 8.31803 56.516 8.7216C56.0749 9.11659 55.8543 9.63608 55.8543 10.2801C55.8543 10.6922 55.9731 11.0357 56.2106 11.3105C56.4566 11.5767 56.7747 11.8085 57.1649 12.006C57.5636 12.2035 58.0132 12.3795 58.5137 12.5341C59.0142 12.6886 59.5274 12.8604 60.0534 13.0493C60.5793 13.2296 61.0926 13.4443 61.593 13.6933C62.0935 13.9423 62.5389 14.2557 62.9291 14.6335C63.3278 15.0113 63.6459 15.475 63.8834 16.0246C64.1294 16.5655 64.2525 17.2267 64.2525 18.0081C64.2525 18.8582 64.104 19.6567 63.8071 20.4038C63.5187 21.1422 63.0988 21.7905 62.5474 22.3486C61.996 22.8982 61.3131 23.3318 60.4987 23.6495C59.6929 23.9672 58.7767 24.1261 57.7503 24.1261C57.1649 24.1261 56.5796 24.066 55.9943 23.9458C55.4175 23.8255 54.8576 23.6581 54.3147 23.4434C53.7802 23.2288 53.2755 22.9712 52.8005 22.6706C52.3254 22.3701 51.9098 22.0352 51.5535 21.666L52.6732 19.837C52.7665 19.6997 52.8895 19.588 53.0422 19.5022C53.1949 19.4077 53.3561 19.3605 53.5258 19.3605C53.7548 19.3605 53.9966 19.4463 54.251 19.6181C54.5055 19.7898 54.7982 19.9787 55.129 20.1848C55.4599 20.3909 55.8416 20.5798 56.2742 20.7515C56.7153 20.9233 57.2413 21.0091 57.8521 21.0091C58.7428 21.0091 59.4299 20.803 59.9134 20.3909C60.4054 19.9787 60.6514 19.3648 60.6514 18.549C60.6514 18.0768 60.5284 17.6947 60.2824 17.4027C60.0449 17.1108 59.731 16.8661 59.3408 16.6686C58.9506 16.4711 58.5052 16.3036 58.0048 16.1662C57.5043 16.0203 56.991 15.8614 56.4651 15.6897C55.9392 15.5179 55.4259 15.3119 54.9254 15.0714C54.4249 14.831 53.9796 14.5133 53.5894 14.1183C53.1992 13.7233 52.881 13.2339 52.635 12.65C52.3975 12.0661 52.2788 11.3405 52.2788 10.4733C52.2788 9.77776 52.4145 9.10371 52.6859 8.45112C52.9574 7.79853 53.3561 7.21893 53.882 6.71232C54.408 6.20571 55.0527 5.79784 55.8162 5.48872C56.5881 5.1796 57.4703 5.02504 58.4628 5.02504C59.5741 5.02504 60.6005 5.20107 61.5421 5.55312C62.4922 5.89659 63.2939 6.37744 63.9471 6.99568L63.0055 8.81176Z" fill="#40B4FD"/>
<path d="M71.3726 8.25792V13.0622H77.5312V15.9859H71.3726V20.8932H79.2872V23.92H67.5298V5.23112H79.2872V8.25792H71.3726Z" fill="#40B4FD"/>
<path d="M92.3989 16.8231L90.4012 11.1044C90.2824 10.8039 90.1552 10.4518 90.0194 10.0482C89.8922 9.64467 89.7692 9.20675 89.6504 8.73448C89.5317 9.21533 89.4044 9.66184 89.2687 10.074C89.1414 10.4776 89.0184 10.8296 88.8997 11.1302L86.9147 16.8231H92.3989ZM98.812 23.92H95.8472C95.5164 23.92 95.2449 23.8427 95.0329 23.6882C94.8293 23.525 94.6766 23.3189 94.5748 23.0699L93.3278 19.5022H85.9731L84.7261 23.0699C84.6412 23.2846 84.4928 23.4821 84.2807 23.6624C84.0686 23.8341 83.8014 23.92 83.4791 23.92H80.4888L87.7036 5.23112H91.61L98.812 23.92Z" fill="#40B4FD"/>
<path d="M106.807 14.0797C107.426 14.0797 107.96 14.0024 108.41 13.8478C108.86 13.6847 109.229 13.4657 109.517 13.191C109.805 12.9076 110.018 12.577 110.153 12.1992C110.289 11.8214 110.357 11.4092 110.357 10.9627C110.357 10.0783 110.064 9.39136 109.479 8.90192C108.902 8.41248 108.02 8.16776 106.832 8.16776H104.847V14.0797H106.807ZM115.752 23.92H112.304C111.659 23.92 111.192 23.671 110.904 23.173L107.392 17.4414C107.248 17.2181 107.087 17.055 106.909 16.9519C106.739 16.8489 106.484 16.7974 106.145 16.7974H104.847V23.92H101.03V5.23112H106.832C108.122 5.23112 109.224 5.36851 110.141 5.64328C111.057 5.90947 111.807 6.28299 112.393 6.76384C112.978 7.24469 113.406 7.82 113.678 8.48976C113.949 9.15093 114.085 9.8808 114.085 10.6794C114.085 11.2976 113.996 11.8858 113.818 12.4439C113.648 12.9935 113.398 13.4958 113.067 13.9509C112.736 14.406 112.329 14.8095 111.846 15.1616C111.362 15.5137 110.811 15.797 110.191 16.0117C110.437 16.1491 110.666 16.3165 110.879 16.514C111.091 16.7029 111.281 16.9305 111.451 17.1966L115.752 23.92Z" fill="#40B4FD"/>
<path d="M130.339 19.3218C130.551 19.3218 130.729 19.3991 130.874 19.5537L132.388 21.1894C131.641 22.1511 130.712 22.881 129.601 23.379C128.498 23.8771 127.184 24.1261 125.657 24.1261C124.274 24.1261 123.031 23.8899 121.928 23.4177C120.826 22.9368 119.888 22.2714 119.116 21.4213C118.344 20.5712 117.75 19.5623 117.335 18.3945C116.919 17.2267 116.711 15.9516 116.711 14.5691C116.711 13.6418 116.809 12.7616 117.004 11.9287C117.208 11.0872 117.5 10.3144 117.882 9.61032C118.264 8.90621 118.722 8.2708 119.256 7.70408C119.799 7.13736 120.41 6.65651 121.089 6.26152C121.767 5.85795 122.505 5.55312 123.303 5.34704C124.108 5.13237 124.965 5.02504 125.873 5.02504C126.552 5.02504 127.192 5.08515 127.794 5.20536C128.405 5.32557 128.973 5.49301 129.499 5.70768C130.025 5.92235 130.509 6.18424 130.95 6.49336C131.4 6.79389 131.802 7.12448 132.159 7.48512L130.874 9.26256C130.797 9.37419 130.7 9.47293 130.581 9.5588C130.462 9.64467 130.301 9.6876 130.097 9.6876C129.894 9.6876 129.686 9.61461 129.474 9.46864C129.27 9.32267 129.016 9.15952 128.71 8.9792C128.414 8.79888 128.036 8.63573 127.578 8.48976C127.128 8.34379 126.556 8.2708 125.86 8.2708C125.088 8.2708 124.38 8.41248 123.735 8.69584C123.09 8.9792 122.535 9.39136 122.068 9.93232C121.61 10.4647 121.254 11.1216 120.999 11.903C120.745 12.6843 120.618 13.5731 120.618 14.5691C120.618 15.5738 120.753 16.4711 121.025 17.261C121.305 18.0424 121.682 18.7036 122.157 19.2446C122.641 19.7855 123.201 20.1977 123.837 20.481C124.482 20.7558 125.169 20.8932 125.898 20.8932C126.331 20.8932 126.721 20.8717 127.069 20.8288C127.425 20.7859 127.752 20.7129 128.049 20.6098C128.354 20.5068 128.638 20.3737 128.901 20.2106C129.173 20.0474 129.444 19.8413 129.716 19.5923C129.809 19.515 129.907 19.4506 130.008 19.3991C130.11 19.3476 130.22 19.3218 130.339 19.3218Z" fill="#40B4FD"/>
<path d="M150.868 5.23112V23.92H147.025V15.87H138.895V23.92H135.052V5.23112H138.895V13.1652H147.025V5.23112H150.868Z" fill="#40B4FD"/>
<path d="M60.7225 40.6898C60.8206 40.6898 60.9052 40.7284 60.976 40.8057L61.6632 41.5675C61.1833 42.1415 60.597 42.5859 59.9045 42.9005C59.2173 43.2152 58.3884 43.3725 57.4177 43.3725C56.567 43.3725 55.7954 43.2235 55.1028 42.9254C54.4157 42.6273 53.8267 42.2105 53.3359 41.6751C52.8506 41.1397 52.4743 40.4993 52.2071 39.7541C51.9399 39.0089 51.8063 38.1892 51.8063 37.295C51.8063 36.4007 51.9453 35.581 52.2235 34.8358C52.507 34.0906 52.9024 33.4503 53.4096 32.9149C53.9167 32.3794 54.522 31.9627 55.2255 31.6646C55.9344 31.3665 56.717 31.2175 57.5732 31.2175C58.4075 31.2175 59.1492 31.3555 59.7981 31.6315C60.4471 31.9075 61.0115 32.2745 61.4914 32.7327L60.9188 33.5524C60.8806 33.6131 60.8315 33.6628 60.7715 33.7015C60.717 33.7401 60.6434 33.7594 60.5507 33.7594C60.4471 33.7594 60.3244 33.707 60.1826 33.6021C60.0463 33.4972 59.8636 33.3813 59.6345 33.2543C59.4109 33.1219 59.1328 33.0032 58.8002 32.8983C58.4675 32.7934 58.0531 32.741 57.5568 32.741C56.9733 32.741 56.4389 32.8459 55.9535 33.0556C55.4682 33.2599 55.0483 33.5579 54.6938 33.9499C54.3448 34.3363 54.0721 34.8137 53.8758 35.3823C53.6849 35.9453 53.5895 36.5829 53.5895 37.295C53.5895 38.0181 53.6904 38.6612 53.8922 39.2242C54.0939 39.7873 54.3721 40.2647 54.7265 40.6567C55.081 41.0486 55.4982 41.3467 55.9781 41.5509C56.458 41.7551 56.976 41.8573 57.5323 41.8573C57.8704 41.8573 58.173 41.8379 58.4402 41.7993C58.7129 41.7551 58.961 41.6917 59.1846 41.6089C59.4137 41.5261 59.6291 41.4212 59.8308 41.2942C60.0326 41.1617 60.2317 41.0044 60.428 40.8223C60.4716 40.7836 60.518 40.7533 60.567 40.7312C60.6161 40.7036 60.6679 40.6898 60.7225 40.6898Z" fill="#1D6CE3"/>
<path d="M74.4623 37.295C74.4623 38.1837 74.3205 39.0007 74.0369 39.7459C73.7588 40.4855 73.3635 41.1259 72.8508 41.6668C72.3382 42.2023 71.7247 42.619 71.0103 42.9171C70.296 43.2152 69.5025 43.3642 68.63 43.3642C67.7629 43.3642 66.9694 43.2152 66.2496 42.9171C65.5352 42.619 64.9217 42.2023 64.4091 41.6668C63.9019 41.1259 63.5066 40.4855 63.223 39.7459C62.9394 39.0007 62.7976 38.1837 62.7976 37.295C62.7976 36.4118 62.9394 35.5976 63.223 34.8524C63.5066 34.1072 63.9019 33.4669 64.4091 32.9314C64.9217 32.3905 65.5352 31.9709 66.2496 31.6729C66.9694 31.3693 67.7629 31.2175 68.63 31.2175C69.5025 31.2175 70.296 31.3693 71.0103 31.6729C71.7247 31.9709 72.3382 32.3905 72.8508 32.9314C73.3635 33.4669 73.7588 34.1072 74.0369 34.8524C74.3205 35.5976 74.4623 36.4118 74.4623 37.295ZM72.6791 37.295C72.6791 36.5884 72.5836 35.9536 72.3928 35.3906C72.2019 34.8275 71.9292 34.3501 71.5748 33.9581C71.2257 33.5662 70.8004 33.2654 70.2987 33.0556C69.8024 32.8459 69.2462 32.741 68.63 32.741C68.0137 32.741 67.4548 32.8459 66.9531 33.0556C66.4568 33.2654 66.0315 33.5662 65.677 33.9581C65.3225 34.3501 65.0499 34.8275 64.859 35.3906C64.6681 35.9536 64.5727 36.5884 64.5727 37.295C64.5727 38.0071 64.6681 38.6446 64.859 39.2077C65.0499 39.7652 65.3225 40.2399 65.677 40.6318C66.0315 41.0237 66.4568 41.3246 66.9531 41.5343C67.4548 41.7386 68.0137 41.8407 68.63 41.8407C69.2462 41.8407 69.8024 41.7386 70.2987 41.5343C70.8004 41.3246 71.2257 41.0237 71.5748 40.6318C71.9292 40.2399 72.2019 39.7652 72.3928 39.2077C72.5836 38.6446 72.6791 38.0071 72.6791 37.295Z" fill="#1D6CE3"/>
<path d="M89.3292 31.3499V43.24H87.8077V34.7779C87.8077 34.6509 87.8104 34.5157 87.8159 34.3721C87.8268 34.2286 87.8377 34.0823 87.8486 33.9333L83.9386 41.1949C83.8022 41.4653 83.5923 41.6006 83.3087 41.6006H83.0633C82.7797 41.6006 82.5725 41.4653 82.4416 41.1949L78.458 33.9085C78.4907 34.2176 78.507 34.5074 78.507 34.7779V43.24H76.9774V31.3499H78.2698C78.4225 31.3499 78.5398 31.3665 78.6216 31.3996C78.7088 31.4272 78.7906 31.51 78.867 31.648L82.7934 38.7688C82.8697 38.9123 82.9406 39.0641 83.006 39.2242C83.0715 39.3843 83.1342 39.5444 83.1942 39.7045C83.3087 39.3788 83.4423 39.0641 83.595 38.7605L87.4478 31.648C87.5187 31.51 87.595 31.4272 87.6768 31.3996C87.7641 31.3665 87.884 31.3499 88.0367 31.3499H89.3292Z" fill="#1D6CE3"/>
<path d="M104.914 31.3499V43.24H103.393V34.7779C103.393 34.6509 103.395 34.5157 103.401 34.3721C103.412 34.2286 103.422 34.0823 103.433 33.9333L99.5234 41.1949C99.387 41.4653 99.1771 41.6006 98.8935 41.6006H98.6481C98.3645 41.6006 98.1573 41.4653 98.0264 41.1949L94.0428 33.9085C94.0755 34.2176 94.0919 34.5074 94.0919 34.7779V43.24H92.5622V31.3499H93.8546C94.0073 31.3499 94.1246 31.3665 94.2064 31.3996C94.2936 31.4272 94.3754 31.51 94.4518 31.648L98.3782 38.7688C98.4545 38.9123 98.5254 39.0641 98.5908 39.2242C98.6563 39.3843 98.719 39.5444 98.779 39.7045C98.8935 39.3788 99.0271 39.0641 99.1798 38.7605L103.033 31.648C103.103 31.51 103.18 31.4272 103.262 31.3996C103.349 31.3665 103.469 31.3499 103.622 31.3499H104.914Z" fill="#1D6CE3"/>
<path d="M114.388 38.8102L112.646 34.1983C112.521 33.8836 112.395 33.4862 112.27 33.0059C112.21 33.2433 112.147 33.4641 112.082 33.6683C112.022 33.8726 111.962 34.0547 111.902 34.2148L110.167 38.8102H114.388ZM117.832 43.24H116.491C116.338 43.24 116.212 43.2014 116.114 43.1241C116.016 43.0468 115.945 42.9475 115.902 42.826L114.863 40.0688H109.685L108.646 42.826C108.608 42.9309 108.537 43.0275 108.433 43.1158C108.33 43.1986 108.204 43.24 108.057 43.24H106.715L111.394 31.3499H113.153L117.832 43.24Z" fill="#1D6CE3"/>
<path d="M129.245 31.3499V43.24H128.362C128.226 43.24 128.111 43.2152 128.019 43.1655C127.931 43.1158 127.841 43.0358 127.749 42.9254L121.115 34.2397C121.125 34.3887 121.134 34.535 121.139 34.6785C121.15 34.822 121.155 34.9573 121.155 35.0842V43.24H119.626V31.3499H120.526C120.678 31.3499 120.793 31.3693 120.869 31.4079C120.946 31.441 121.03 31.5211 121.123 31.648L127.773 40.342C127.757 40.1819 127.743 40.0274 127.732 39.8783C127.727 39.7238 127.724 39.5803 127.724 39.4478V31.3499H129.245Z" fill="#1D6CE3"/>
<path d="M142.728 37.295C142.728 38.1837 142.586 38.9924 142.303 39.721C142.025 40.4497 141.629 41.0762 141.117 41.6006C140.604 42.1195 139.991 42.5224 139.276 42.8095C138.562 43.0965 137.768 43.24 136.896 43.24H132.479V31.3499H136.896C137.768 31.3499 138.562 31.4935 139.276 31.7805C139.991 32.0675 140.604 32.4733 141.117 32.9977C141.629 33.5165 142.025 34.1431 142.303 34.8772C142.586 35.6059 142.728 36.4118 142.728 37.295ZM140.945 37.295C140.945 36.5884 140.849 35.9564 140.659 35.3989C140.468 34.8358 140.195 34.3611 139.841 33.9747C139.492 33.5828 139.066 33.2847 138.565 33.0805C138.068 32.8762 137.512 32.7741 136.896 32.7741H134.229V41.8159H136.896C137.512 41.8159 138.068 41.7137 138.565 41.5095C139.066 41.3053 139.492 41.0099 139.841 40.6235C140.195 40.2316 140.468 39.7569 140.659 39.1994C140.849 38.6419 140.945 38.0071 140.945 37.295Z" fill="#1D6CE3"/>
<path d="M151.329 33.2875C151.275 33.3813 151.218 33.4503 151.158 33.4945C151.098 33.5386 151.021 33.5607 150.928 33.5607C150.83 33.5607 150.719 33.5165 150.593 33.4282C150.468 33.3344 150.31 33.2323 150.119 33.1219C149.933 33.0059 149.71 32.9038 149.448 32.8155C149.186 32.7217 148.873 32.6747 148.507 32.6747C148.164 32.6747 147.861 32.7217 147.599 32.8155C147.343 32.9038 147.128 33.028 146.953 33.1881C146.778 33.3427 146.645 33.5276 146.552 33.7429C146.465 33.9526 146.421 34.1817 146.421 34.4301C146.421 34.7503 146.5 35.0152 146.659 35.225C146.822 35.4347 147.035 35.6141 147.297 35.7632C147.558 35.9122 147.856 36.0419 148.188 36.1523C148.521 36.2627 148.862 36.3787 149.211 36.5001C149.56 36.616 149.901 36.7513 150.233 36.9058C150.566 37.0604 150.863 37.2563 151.125 37.4937C151.387 37.7255 151.597 38.0126 151.755 38.3548C151.918 38.6915 152 39.1055 152 39.5968C152 40.1212 151.91 40.6125 151.73 41.0707C151.556 41.5288 151.299 41.929 150.961 42.2713C150.623 42.6135 150.206 42.884 149.71 43.0827C149.219 43.2759 148.66 43.3725 148.033 43.3725C147.656 43.3725 147.291 43.3339 146.937 43.2566C146.582 43.1848 146.247 43.0827 145.931 42.9502C145.614 42.8122 145.317 42.6494 145.039 42.4617C144.766 42.2685 144.521 42.0532 144.303 41.8159L144.802 40.9713C144.851 40.9051 144.908 40.8499 144.973 40.8057C145.044 40.7615 145.123 40.7395 145.211 40.7395C145.325 40.7395 145.456 40.8002 145.603 40.9216C145.756 41.0431 145.941 41.1783 146.16 41.3273C146.383 41.4709 146.648 41.6033 146.953 41.7248C147.264 41.8462 147.64 41.9069 148.082 41.9069C148.442 41.9069 148.764 41.86 149.047 41.7662C149.331 41.6668 149.568 41.5288 149.759 41.3522C149.955 41.17 150.105 40.952 150.209 40.6981C150.312 40.4441 150.364 40.1626 150.364 39.8535C150.364 39.5057 150.285 39.2215 150.127 39.0007C149.969 38.7799 149.759 38.5949 149.497 38.4459C149.235 38.2969 148.938 38.1699 148.605 38.065C148.273 37.9601 147.932 37.8525 147.583 37.7421C147.234 37.6262 146.893 37.4937 146.56 37.3447C146.228 37.1956 145.931 37.0024 145.669 36.7651C145.407 36.5222 145.197 36.2213 145.039 35.8625C144.881 35.4982 144.802 35.0511 144.802 34.5212C144.802 34.0961 144.883 33.6849 145.047 33.2875C145.211 32.89 145.448 32.5395 145.759 32.2359C146.075 31.9268 146.462 31.6811 146.92 31.499C147.378 31.3113 147.902 31.2175 148.491 31.2175C149.151 31.2175 149.756 31.3251 150.307 31.5404C150.863 31.7501 151.346 32.0537 151.755 32.4512L151.329 33.2875Z" fill="#1D6CE3"/>
<path fill-rule="evenodd" clip-rule="evenodd" d="M42.2405 6.9434C37.9198 6.66424 28.2061 4.9844 22.8051 0.500367C22.6087 0.337309 22.418 0.170542 22.2335 0V21.3667V25.926V46C27.6651 44.3664 39.1141 37.9111 42.2405 25.4487L36.4393 28.762C34.6893 32.4706 31.7914 34.5751 26.8715 37.7779V28.8214L26.8575 23.6827L26.8715 19.6259V9.22919C28.7512 10.5925 33.2098 11.8481 36.4393 11.8481V15.1112L42.2405 16.6223V6.9434Z" fill="url(#paint0_linear)"/>
<path d="M19.4353 0.500367C14.0344 4.9844 4.32063 6.66424 0 6.9434V22.566L15.4263 29.2149V38.4062C9.52917 34.7215 7.69594 32.7774 5.80117 28.762L0 25.4487C3.1264 37.9111 14.5754 44.3664 20.007 46V25.926L5.80117 20.3607V11.8481C9.03067 11.8481 13.5466 10.43 15.4263 9.06671V19.4634L20.007 21.3667V0C19.8224 0.170542 19.6317 0.337309 19.4353 0.500367Z" fill="url(#paint1_linear)"/>
<defs>
<linearGradient id="paint0_linear" x1="43.3451" y1="0.761343" x2="14.873" y2="7.76358" gradientUnits="userSpaceOnUse">
<stop stop-color="#13529A"/>
<stop offset="1" stop-color="#2C8CFB"/>
</linearGradient>
<linearGradient id="paint1_linear" x1="-1.2946" y1="-3.37707e-07" x2="24.5784" y2="2.88041" gradientUnits="userSpaceOnUse">
<stop stop-color="#40B4FD"/>
<stop offset="1" stop-color="#73C9FF"/>
</linearGradient>
</defs>
</svg>
