<svg xmlns="http://www.w3.org/2000/svg" width="570" height="280"><path d="M534 204c0 4.4-3.6 8-8 8h-52c-4.4 0-8-3.6-8-8v-6c0-4.4 3.6-8 8-8h52c4.4 0 8 3.6 8 8v6zM98 177c0-4.4-3.6-8-8-8H38c-4.4 0-8 3.6-8 8s3.6 8 8 8h-2l4.5 27h47.1l4.5-27h-2c4.3 0 7.9-3.6 7.9-8zM475.9 42.7c1.1-1.1 2.1-2.3 2.9-3.7 4.4-7.7 1.8-17.4-5.9-21.9-7.7-4.4-17.4-1.8-21.9 5.9-.8 1.4-1.4 2.9-1.7 4.4-12.4-.7-24.7 5.5-31.4 16.9l58.9 34c6.7-11.5 5.9-25.2-.9-35.6z" opacity=".5" fill="#ced83b"/><path d="M213 199h-80V93h80v106zM327 79h-90v120h90V79zm104 14h-80v106h80V93z" opacity=".2" fill="#ced83b"/><path d="M431 201h-4c-1.1 0-2-.9-2-2s.9-2 2-2h2v-2c0-1.1.9-2 2-2s2 .9 2 2v4c0 1.1-.9 2-2 2zm-14-2c0-1.1-.9-2-2-2h-8c-1.1 0-2 .9-2 2s.9 2 2 2h8c1.1 0 2-.9 2-2zm-20 0c0-1.1-.9-2-2-2h-8c-1.1 0-2 .9-2 2s.9 2 2 2h8c1.1 0 2-.9 2-2zm-20 0c0-1.1-.9-2-2-2h-8c-1.1 0-2 .9-2 2s.9 2 2 2h8c1.1 0 2-.9 2-2zm-20 0c0-1.1-.9-2-2-2h-2v-2c0-1.1-.9-2-2-2s-2 .9-2 2v4c0 1.1.9 2 2 2h4c1.1 0 2-.9 2-2zm-4-16.8v-8.5c0-1.1-.9-2-2-2s-2 .9-2 2v8.5c0 1.1.9 2 2 2s2-.9 2-2zm0-21.3v-8.5c0-1.1-.9-2-2-2s-2 .9-2 2v8.5c0 1.1.9 2 2 2s2-.9 2-2zm0-21.3v-8.5c0-1.1-.9-2-2-2s-2 .9-2 2v8.5c0 1.1.9 2 2 2s2-.9 2-2zm0-21.3v-8.5c0-1.1-.9-2-2-2s-2 .9-2 2v8.5c0 1.1.9 2 2 2s2-.9 2-2zm0-21.3v-2h2c1.1 0 2-.9 2-2s-.9-2-2-2h-4c-1.1 0-2 .9-2 2v4c0 1.1.9 2 2 2s2-.9 2-2zm64-4c0-1.1-.9-2-2-2h-8c-1.1 0-2 .9-2 2s.9 2 2 2h8c1.1 0 2-.9 2-2zm-20 0c0-1.1-.9-2-2-2h-8c-1.1 0-2 .9-2 2s.9 2 2 2h8c1.1 0 2-.9 2-2zm-20 0c0-1.1-.9-2-2-2h-8c-1.1 0-2 .9-2 2s.9 2 2 2h8c1.1 0 2-.9 2-2zm56 4v-4c0-1.1-.9-2-2-2h-4c-1.1 0-2 .9-2 2s.9 2 2 2h2v2c0 1.1.9 2 2 2s2-.9 2-2zm0 85.2v-8.5c0-1.1-.9-2-2-2s-2 .9-2 2v8.5c0 1.1.9 2 2 2s2-.9 2-2zm0-21.3v-8.5c0-1.1-.9-2-2-2s-2 .9-2 2v8.5c0 1.1.9 2 2 2s2-.9 2-2zm0-21.3v-8.5c0-1.1-.9-2-2-2s-2 .9-2 2v8.5c0 1.1.9 2 2 2s2-.9 2-2zm0-21.3v-8.5c0-1.1-.9-2-2-2s-2 .9-2 2v8.5c0 1.1.9 2 2 2s2-.9 2-2zM215 199v-4c0-1.1-.9-2-2-2s-2 .9-2 2v2h-2c-1.1 0-2 .9-2 2s.9 2 2 2h4c1.1 0 2-.9 2-2zm-16 0c0-1.1-.9-2-2-2h-8c-1.1 0-2 .9-2 2s.9 2 2 2h8c1.1 0 2-.9 2-2zm-20 0c0-1.1-.9-2-2-2h-8c-1.1 0-2 .9-2 2s.9 2 2 2h8c1.1 0 2-.9 2-2zm-20 0c0-1.1-.9-2-2-2h-8c-1.1 0-2 .9-2 2s.9 2 2 2h8c1.1 0 2-.9 2-2zm-20 0c0-1.1-.9-2-2-2h-2v-2c0-1.1-.9-2-2-2s-2 .9-2 2v4c0 1.1.9 2 2 2h4c1.1 0 2-.9 2-2zm-4-16.8v-8.5c0-1.1-.9-2-2-2s-2 .9-2 2v8.5c0 1.1.9 2 2 2s2-.9 2-2zm0-21.3v-8.5c0-1.1-.9-2-2-2s-2 .9-2 2v8.5c0 1.1.9 2 2 2s2-.9 2-2zm0-21.3v-8.5c0-1.1-.9-2-2-2s-2 .9-2 2v8.5c0 1.1.9 2 2 2s2-.9 2-2zm0-21.3v-8.5c0-1.1-.9-2-2-2s-2 .9-2 2v8.5c0 1.1.9 2 2 2s2-.9 2-2zm0-21.3v-2h2c1.1 0 2-.9 2-2s-.9-2-2-2h-4c-1.1 0-2 .9-2 2v4c0 1.1.9 2 2 2s2-.9 2-2zm64-4c0-1.1-.9-2-2-2h-8c-1.1 0-2 .9-2 2s.9 2 2 2h8c1.1 0 2-.9 2-2zm-20 0c0-1.1-.9-2-2-2h-8c-1.1 0-2 .9-2 2s.9 2 2 2h8c1.1 0 2-.9 2-2zm-20 0c0-1.1-.9-2-2-2h-8c-1.1 0-2 .9-2 2s.9 2 2 2h8c1.1 0 2-.9 2-2zm56 4v-4c0-1.1-.9-2-2-2h-4c-1.1 0-2 .9-2 2s.9 2 2 2h2v2c0 1.1.9 2 2 2s2-.9 2-2zm0 85.2v-8.5c0-1.1-.9-2-2-2s-2 .9-2 2v8.5c0 1.1.9 2 2 2s2-.9 2-2zm0-21.3v-8.5c0-1.1-.9-2-2-2s-2 .9-2 2v8.5c0 1.1.9 2 2 2s2-.9 2-2zm0-21.3v-8.5c0-1.1-.9-2-2-2s-2 .9-2 2v8.5c0 1.1.9 2 2 2s2-.9 2-2zm0-21.3v-8.5c0-1.1-.9-2-2-2s-2 .9-2 2v8.5c0 1.1.9 2 2 2s2-.9 2-2zM329 199v-4c0-1.1-.9-2-2-2s-2 .9-2 2v2h-2c-1.1 0-2 .9-2 2s.9 2 2 2h4c1.1 0 2-.9 2-2zm-14.7 0c0-1.1-.9-2-2-2h-7.1c-1.1 0-2 .9-2 2s.9 2 2 2h7.1c1.1 0 2-.9 2-2zm-17.8 0c0-1.1-.9-2-2-2h-7.1c-1.1 0-2 .9-2 2s.9 2 2 2h7.1c1.1 0 2-.9 2-2zm-17.8 0c0-1.1-.9-2-2-2h-7.1c-1.1 0-2 .9-2 2s.9 2 2 2h7.1c1.1 0 2-.9 2-2zm-17.9 0c0-1.1-.9-2-2-2h-7.1c-1.1 0-2 .9-2 2s.9 2 2 2h7.1c1.1 0 2-.9 2-2zm-17.8 0c0-1.1-.9-2-2-2h-2v-2c0-1.1-.9-2-2-2s-2 .9-2 2v4c0 1.1.9 2 2 2h4c1.1 0 2-.9 2-2zm-4-16v-8c0-1.1-.9-2-2-2s-2 .9-2 2v8c0 1.1.9 2 2 2s2-.9 2-2zm0-20v-8c0-1.1-.9-2-2-2s-2 .9-2 2v8c0 1.1.9 2 2 2s2-.9 2-2zm0-20v-8c0-1.1-.9-2-2-2s-2 .9-2 2v8c0 1.1.9 2 2 2s2-.9 2-2zm0-20v-8c0-1.1-.9-2-2-2s-2 .9-2 2v8c0 1.1.9 2 2 2s2-.9 2-2zm0-20v-8c0-1.1-.9-2-2-2s-2 .9-2 2v8c0 1.1.9 2 2 2s2-.9 2-2zm0-20v-2h2c1.1 0 2-.9 2-2s-.9-2-2-2h-4c-1.1 0-2 .9-2 2v4c0 1.1.9 2 2 2s2-.9 2-2zm75.3-4c0-1.1-.9-2-2-2h-7.1c-1.1 0-2 .9-2 2s.9 2 2 2h7.1c1.1 0 2-.9 2-2zm-17.8 0c0-1.1-.9-2-2-2h-7.1c-1.1 0-2 .9-2 2s.9 2 2 2h7.1c1.1 0 2-.9 2-2zm-17.8 0c0-1.1-.9-2-2-2h-7.1c-1.1 0-2 .9-2 2s.9 2 2 2h7.1c1.1 0 2-.9 2-2zm-17.9 0c0-1.1-.9-2-2-2h-7.1c-1.1 0-2 .9-2 2s.9 2 2 2h7.1c1.1 0 2-.9 2-2zm68.2 4v-4c0-1.1-.9-2-2-2h-4c-1.1 0-2 .9-2 2s.9 2 2 2h2v2c0 1.1.9 2 2 2s2-.9 2-2zm0 100v-8c0-1.1-.9-2-2-2s-2 .9-2 2v8c0 1.1.9 2 2 2s2-.9 2-2zm0-20v-8c0-1.1-.9-2-2-2s-2 .9-2 2v8c0 1.1.9 2 2 2s2-.9 2-2zm0-20v-8c0-1.1-.9-2-2-2s-2 .9-2 2v8c0 1.1.9 2 2 2s2-.9 2-2zm0-20v-8c0-1.1-.9-2-2-2s-2 .9-2 2v8c0 1.1.9 2 2 2s2-.9 2-2zm0-20v-8c0-1.1-.9-2-2-2s-2 .9-2 2v8c0 1.1.9 2 2 2s2-.9 2-2zM66 159v-32c0-1.1-.9-2-2-2s-2 .9-2 2v32c0 1.1.9 2 2 2s2-.9 2-2zm12.3.9C80.7 155 82 149.2 82 143s-1.3-12-3.7-16.9c-.5-1-1.7-1.4-2.7-.9-1 .5-1.4 1.7-.9 2.7 2.1 4.3 3.3 9.6 3.3 15.1s-1.2 10.9-3.3 15.1c-.5 1-.1 2.2.9 2.7.3.1.6.2.9.2.8 0 1.5-.4 1.8-1.1zm-26 .9c1-.5 1.4-1.7.9-2.7-2.1-4.3-3.3-9.6-3.3-15.1s1.2-10.9 3.3-15.1c.5-1 .1-2.2-.9-2.7s-2.2-.1-2.7.9C47.3 131 46 136.8 46 143s1.3 12 3.7 16.9c.3.7 1.1 1.1 1.8 1.1.3 0 .6-.1.8-.2zM550 212v18c0 1.1-.9 2-2 2h-18v28c0 1.1-.9 2-2 2h-14c-1 0-1.8-.7-2-1.7l-3.8-28.3H55.8L52 260.3c-.1 1-1 1.7-2 1.7H36c-1.1 0-2-.9-2-2v-28H16c-1.1 0-2-.9-2-2v-18c0-1.1.9-2 2-2h22.1l-3.9-23.8c-3.6-1.5-6.2-5.1-6.2-9.2 0-5.5 4.5-10 10-10h6.4c-2-1.6-3.8-3.5-5.4-5.6l-5 3.3c-.3.2-.7.3-1.1.3-.6 0-1.3-.3-1.7-.9-.6-.9-.4-2.2.6-2.8l5-3.3c-2.5-4.4-3.9-9.6-3.9-15 0-1.5.1-3 .3-4.4l-5.9-1.7c-1.1-.3-1.7-1.4-1.4-2.5.3-1.1 1.4-1.7 2.5-1.4l5.6 1.6c1.9-6.9 6.2-12.8 11.8-16.9l-3.9-3.9c-.8-.8-.8-2 0-2.8s2-.8 2.8 0l4.5 4.5c4.3-2.3 9.3-3.6 14.5-3.6h.2l.9-4.4c.2-1.1 1.3-1.8 2.4-1.6 1.1.2 1.8 1.3 1.6 2.4l-.8 3.9c3.5.5 6.8 1.5 9.9 3.1.2-2.3 1.4-4.4 3.1-5.7l-1-3c-.3-1 .2-2.2 1.3-2.5 1.1-.4 2.2.2 2.5 1.3l.9 2.7c.4-.1.8-.1 1.2-.1 2.6 0 4.9 1.2 6.3 3.1l3-1c1-.4 2.2.2 2.5 1.3.3 1-.2 2.2-1.3 2.5l-2.7.9c.1.4.1.8.1 1.2 0 3.6-2.5 6.7-5.8 7.7 2.4 3 4.3 6.4 5.4 10.2l5-.8c1.1-.2 2.1.6 2.3 1.6.2 1.1-.6 2.1-1.6 2.3l-4.8.8c.3 1.7.5 3.4.5 5.2 0 4.5-1 8.7-2.7 12.5l3.9 2.9c.9.7 1.1 1.9.4 2.8-.4.5-1 .8-1.6.8-.4 0-.8-.1-1.2-.4l-3.3-2.5c-1.8 3-4.2 5.7-6.9 7.9H90c5.5 0 10 4.5 10 10 0 4.2-2.6 7.7-6.2 9.2L89.9 210H466c-1.3-1.7-2-3.7-2-6v-6c0-5.5 4.5-10 10-10h2v-6c0-1.1.9-2 2-2h6c1.1 0 2 .9 2 2v6h4v-6c0-5.5 4.5-10 10-10 .5 0 1 .1 1.5.1L530 113c-2.4-1.8-4-4.7-4-8 0-2.4.8-4.5 2.2-6.3l-48.2-58c-.5.8-1.1 1.5-1.7 2.2 6.4 10.8 7 24.7.2 36.4-.3.5-.7.8-1.2.9-.2 0-.3.1-.5.1-.3 0-.7-.1-1-.3l-16.6-9.6c-1.7 1.3-3.6 2.3-5.7 2.8-1.4.4-2.8.6-4.2.6-2.8 0-5.5-.7-8-2.2-3.7-2.1-6.3-5.6-7.5-9.7-.6-2.1-.7-4.3-.4-6.4L417 46c-1-.6-1.3-1.8-.7-2.7 4.8-8.3 12.6-14.3 21.9-16.8 3.2-.9 6.5-1.3 9.8-1.2.4-1.1.9-2.2 1.5-3.3 2.4-4.2 6.3-7.1 10.9-8.4 4.6-1.2 9.5-.6 13.7 1.8 4.2 2.4 7.1 6.3 8.4 10.9.9 3.5.8 7.1-.4 10.5l49.3 59.3c1.4-.8 3-1.2 4.7-1.2 5.5 0 10 4.5 10 10s-4.5 10-10 10c-.8 0-1.7-.1-2.4-.3l-28.3 58.8c2.8 1.8 4.7 4.9 4.7 8.5v6h16c5.5 0 10 4.5 10 10v6c0 2.3-.8 4.3-2 6h14c1 .1 1.9 1 1.9 2.1zM455.4 68.2l-18-10.4c0 1 .1 2.1.4 3.1.8 3.1 2.8 5.7 5.6 7.3 2.8 1.6 6 2 9.1 1.2 1.1-.2 2-.7 2.9-1.2zm8-34.6c-7.4-4.3-16-5.4-24.3-3.2-7.6 2-14.1 6.7-18.4 13.2L476 75.5c7.6-14.9 2.1-33.4-12.6-41.9zm15.1-6.2c-1-3.6-3.3-6.6-6.5-8.5-2.2-1.2-4.6-1.9-7-1.9-1.2 0-2.4.2-3.6.5-3.6 1-6.6 3.3-8.5 6.5-.3.5-.6 1-.8 1.6 4.7.6 9.2 2.1 13.4 4.5 4.3 2.5 7.8 5.7 10.6 9.3.4-.5.7-1 1-1.5 1.8-3.1 2.3-6.9 1.4-10.5zM530 105c0 3.3 2.7 6 6 6s6-2.7 6-6-2.7-6-6-6-6 2.7-6 6zm-36 83h12v-6c0-3.3-2.7-6-6-6s-6 2.7-6 6v6zm-14 0h2v-4h-2v4zm-12 16c0 3.3 2.7 6 6 6h52c3.3 0 6-2.7 6-6v-6c0-3.3-2.7-6-6-6h-52c-3.3 0-6 2.7-6 6v6zM82.8 118.4l1.5 1.2c.5.2 1.1.4 1.7.4 2.2 0 4-1.8 4-4s-1.8-4-4-4-4 1.8-4 4c0 .9.3 1.7.8 2.4zM51.7 167h24.6C85 162.5 91 153.5 91 143c0-7.9-3.4-15.1-8.9-20-.8-.4-1.5-1-2.1-1.7-4.5-3.3-10-5.3-16-5.3-14.9 0-27 12.1-27 27 0 10.5 6 19.5 14.7 24zM90 183c3.3 0 6-2.7 6-6s-2.7-6-6-6H38c-3.3 0-6 2.7-6 6s2.7 6 6 6h52zm-51.6 4l3.8 23h43.7l3.8-23H38.4zm13.3 45H38v26h10.2l3.5-26zm474.3 0h-13.7l3.5 26H526v-26zm20-18H18v14h528v-14z" fill="#707070"/></svg>