<?xml version="1.0" encoding="utf-8"?>
<!-- Generator: Adobe Illustrator 21.0.2, SVG Export Plug-In . SVG Version: 6.00 Build 0)  -->
<svg version="1.1" id="Layer_1" xmlns="http://www.w3.org/2000/svg" xmlns:xlink="http://www.w3.org/1999/xlink" x="0px" y="0px"
	 width="570px" height="280px" viewBox="0 0 570 280" style="enable-background:new 0 0 570 280;" xml:space="preserve">
<style type="text/css">
	.st0{opacity:0.5;fill:#CED83B;enable-background:new    ;}
	.st1{opacity:0.2;fill:#FFFFFF;enable-background:new    ;}
	.st2{fill:#FFFFFF;}
</style>
<path class="st0" d="M534,204c0,4.4-3.6,8-8,8h-52c-4.4,0-8-3.6-8-8v-6c0-4.4,3.6-8,8-8h52c4.4,0,8,3.6,8,8V204z M98,177
	c0-4.4-3.6-8-8-8H38c-4.4,0-8,3.6-8,8s3.6,8,8,8h-2l4.5,27h47.1l4.5-27h-2C94.4,185,98,181.4,98,177z M475.9,42.7
	c1.1-1.1,2.1-2.3,2.9-3.7c4.4-7.7,1.8-17.4-5.9-21.9c-7.7-4.4-17.4-1.8-21.9,5.9c-0.8,1.4-1.4,2.9-1.7,4.4
	c-12.4-0.7-24.7,5.5-31.4,16.9l58.9,34C483.5,66.8,482.7,53.1,475.9,42.7z"/>
<path class="st1" d="M213,199h-80V93h80V199z M327,79h-90v120h90V79z M431,93h-80v106h80V93z"/>
<path class="st2" d="M431,201h-4c-1.1,0-2-0.9-2-2s0.9-2,2-2h2v-2c0-1.1,0.9-2,2-2s2,0.9,2,2v4C433,200.1,432.1,201,431,201z
	 M417,199c0-1.1-0.9-2-2-2h-8c-1.1,0-2,0.9-2,2s0.9,2,2,2h8C416.1,201,417,200.1,417,199z M397,199c0-1.1-0.9-2-2-2h-8
	c-1.1,0-2,0.9-2,2s0.9,2,2,2h8C396.1,201,397,200.1,397,199z M377,199c0-1.1-0.9-2-2-2h-8c-1.1,0-2,0.9-2,2s0.9,2,2,2h8
	C376.1,201,377,200.1,377,199z M357,199c0-1.1-0.9-2-2-2h-2v-2c0-1.1-0.9-2-2-2s-2,0.9-2,2v4c0,1.1,0.9,2,2,2h4
	C356.1,201,357,200.1,357,199z M353,182.2v-8.5c0-1.1-0.9-2-2-2s-2,0.9-2,2v8.5c0,1.1,0.9,2,2,2S353,183.3,353,182.2z M353,160.9
	v-8.5c0-1.1-0.9-2-2-2s-2,0.9-2,2v8.5c0,1.1,0.9,2,2,2S353,162,353,160.9z M353,139.6v-8.5c0-1.1-0.9-2-2-2s-2,0.9-2,2v8.5
	c0,1.1,0.9,2,2,2S353,140.7,353,139.6z M353,118.3v-8.5c0-1.1-0.9-2-2-2s-2,0.9-2,2v8.5c0,1.1,0.9,2,2,2S353,119.4,353,118.3z
	 M353,97v-2h2c1.1,0,2-0.9,2-2s-0.9-2-2-2h-4c-1.1,0-2,0.9-2,2v4c0,1.1,0.9,2,2,2S353,98.1,353,97z M417,93c0-1.1-0.9-2-2-2h-8
	c-1.1,0-2,0.9-2,2s0.9,2,2,2h8C416.1,95,417,94.1,417,93z M397,93c0-1.1-0.9-2-2-2h-8c-1.1,0-2,0.9-2,2s0.9,2,2,2h8
	C396.1,95,397,94.1,397,93z M377,93c0-1.1-0.9-2-2-2h-8c-1.1,0-2,0.9-2,2s0.9,2,2,2h8C376.1,95,377,94.1,377,93z M433,97v-4
	c0-1.1-0.9-2-2-2h-4c-1.1,0-2,0.9-2,2s0.9,2,2,2h2v2c0,1.1,0.9,2,2,2S433,98.1,433,97z M433,182.2v-8.5c0-1.1-0.9-2-2-2s-2,0.9-2,2
	v8.5c0,1.1,0.9,2,2,2S433,183.3,433,182.2z M433,160.9v-8.5c0-1.1-0.9-2-2-2s-2,0.9-2,2v8.5c0,1.1,0.9,2,2,2S433,162,433,160.9z
	 M433,139.6v-8.5c0-1.1-0.9-2-2-2s-2,0.9-2,2v8.5c0,1.1,0.9,2,2,2S433,140.7,433,139.6z M433,118.3v-8.5c0-1.1-0.9-2-2-2s-2,0.9-2,2
	v8.5c0,1.1,0.9,2,2,2S433,119.4,433,118.3z M215,199v-4c0-1.1-0.9-2-2-2s-2,0.9-2,2v2h-2c-1.1,0-2,0.9-2,2s0.9,2,2,2h4
	C214.1,201,215,200.1,215,199z M199,199c0-1.1-0.9-2-2-2h-8c-1.1,0-2,0.9-2,2s0.9,2,2,2h8C198.1,201,199,200.1,199,199z M179,199
	c0-1.1-0.9-2-2-2h-8c-1.1,0-2,0.9-2,2s0.9,2,2,2h8C178.1,201,179,200.1,179,199z M159,199c0-1.1-0.9-2-2-2h-8c-1.1,0-2,0.9-2,2
	s0.9,2,2,2h8C158.1,201,159,200.1,159,199z M139,199c0-1.1-0.9-2-2-2h-2v-2c0-1.1-0.9-2-2-2s-2,0.9-2,2v4c0,1.1,0.9,2,2,2h4
	C138.1,201,139,200.1,139,199z M135,182.2v-8.5c0-1.1-0.9-2-2-2s-2,0.9-2,2v8.5c0,1.1,0.9,2,2,2S135,183.3,135,182.2z M135,160.9
	v-8.5c0-1.1-0.9-2-2-2s-2,0.9-2,2v8.5c0,1.1,0.9,2,2,2S135,162,135,160.9z M135,139.6v-8.5c0-1.1-0.9-2-2-2s-2,0.9-2,2v8.5
	c0,1.1,0.9,2,2,2S135,140.7,135,139.6z M135,118.3v-8.5c0-1.1-0.9-2-2-2s-2,0.9-2,2v8.5c0,1.1,0.9,2,2,2S135,119.4,135,118.3z
	 M135,97v-2h2c1.1,0,2-0.9,2-2s-0.9-2-2-2h-4c-1.1,0-2,0.9-2,2v4c0,1.1,0.9,2,2,2S135,98.1,135,97z M199,93c0-1.1-0.9-2-2-2h-8
	c-1.1,0-2,0.9-2,2s0.9,2,2,2h8C198.1,95,199,94.1,199,93z M179,93c0-1.1-0.9-2-2-2h-8c-1.1,0-2,0.9-2,2s0.9,2,2,2h8
	C178.1,95,179,94.1,179,93z M159,93c0-1.1-0.9-2-2-2h-8c-1.1,0-2,0.9-2,2s0.9,2,2,2h8C158.1,95,159,94.1,159,93z M215,97v-4
	c0-1.1-0.9-2-2-2h-4c-1.1,0-2,0.9-2,2s0.9,2,2,2h2v2c0,1.1,0.9,2,2,2S215,98.1,215,97z M215,182.2v-8.5c0-1.1-0.9-2-2-2s-2,0.9-2,2
	v8.5c0,1.1,0.9,2,2,2S215,183.3,215,182.2z M215,160.9v-8.5c0-1.1-0.9-2-2-2s-2,0.9-2,2v8.5c0,1.1,0.9,2,2,2S215,162,215,160.9z
	 M215,139.6v-8.5c0-1.1-0.9-2-2-2s-2,0.9-2,2v8.5c0,1.1,0.9,2,2,2S215,140.7,215,139.6z M215,118.3v-8.5c0-1.1-0.9-2-2-2s-2,0.9-2,2
	v8.5c0,1.1,0.9,2,2,2S215,119.4,215,118.3z M329,199v-4c0-1.1-0.9-2-2-2s-2,0.9-2,2v2h-2c-1.1,0-2,0.9-2,2s0.9,2,2,2h4
	C328.1,201,329,200.1,329,199z M314.3,199c0-1.1-0.9-2-2-2h-7.1c-1.1,0-2,0.9-2,2s0.9,2,2,2h7.1C313.4,201,314.3,200.1,314.3,199z
	 M296.5,199c0-1.1-0.9-2-2-2h-7.1c-1.1,0-2,0.9-2,2s0.9,2,2,2h7.1C295.6,201,296.5,200.1,296.5,199z M278.7,199c0-1.1-0.9-2-2-2
	h-7.1c-1.1,0-2,0.9-2,2s0.9,2,2,2h7.1C277.8,201,278.7,200.1,278.7,199z M260.8,199c0-1.1-0.9-2-2-2h-7.1c-1.1,0-2,0.9-2,2
	s0.9,2,2,2h7.1C259.9,201,260.8,200.1,260.8,199z M243,199c0-1.1-0.9-2-2-2h-2v-2c0-1.1-0.9-2-2-2s-2,0.9-2,2v4c0,1.1,0.9,2,2,2h4
	C242.1,201,243,200.1,243,199z M239,183v-8c0-1.1-0.9-2-2-2s-2,0.9-2,2v8c0,1.1,0.9,2,2,2S239,184.1,239,183z M239,163v-8
	c0-1.1-0.9-2-2-2s-2,0.9-2,2v8c0,1.1,0.9,2,2,2S239,164.1,239,163z M239,143v-8c0-1.1-0.9-2-2-2s-2,0.9-2,2v8c0,1.1,0.9,2,2,2
	S239,144.1,239,143z M239,123v-8c0-1.1-0.9-2-2-2s-2,0.9-2,2v8c0,1.1,0.9,2,2,2S239,124.1,239,123z M239,103v-8c0-1.1-0.9-2-2-2
	s-2,0.9-2,2v8c0,1.1,0.9,2,2,2S239,104.1,239,103z M239,83v-2h2c1.1,0,2-0.9,2-2s-0.9-2-2-2h-4c-1.1,0-2,0.9-2,2v4c0,1.1,0.9,2,2,2
	S239,84.1,239,83z M314.3,79c0-1.1-0.9-2-2-2h-7.1c-1.1,0-2,0.9-2,2s0.9,2,2,2h7.1C313.4,81,314.3,80.1,314.3,79z M296.5,79
	c0-1.1-0.9-2-2-2h-7.1c-1.1,0-2,0.9-2,2s0.9,2,2,2h7.1C295.6,81,296.5,80.1,296.5,79z M278.7,79c0-1.1-0.9-2-2-2h-7.1
	c-1.1,0-2,0.9-2,2s0.9,2,2,2h7.1C277.8,81,278.7,80.1,278.7,79z M260.8,79c0-1.1-0.9-2-2-2h-7.1c-1.1,0-2,0.9-2,2s0.9,2,2,2h7.1
	C259.9,81,260.8,80.1,260.8,79z M329,83v-4c0-1.1-0.9-2-2-2h-4c-1.1,0-2,0.9-2,2s0.9,2,2,2h2v2c0,1.1,0.9,2,2,2S329,84.1,329,83z
	 M329,183v-8c0-1.1-0.9-2-2-2s-2,0.9-2,2v8c0,1.1,0.9,2,2,2S329,184.1,329,183z M329,163v-8c0-1.1-0.9-2-2-2s-2,0.9-2,2v8
	c0,1.1,0.9,2,2,2S329,164.1,329,163z M329,143v-8c0-1.1-0.9-2-2-2s-2,0.9-2,2v8c0,1.1,0.9,2,2,2S329,144.1,329,143z M329,123v-8
	c0-1.1-0.9-2-2-2s-2,0.9-2,2v8c0,1.1,0.9,2,2,2S329,124.1,329,123z M329,103v-8c0-1.1-0.9-2-2-2s-2,0.9-2,2v8c0,1.1,0.9,2,2,2
	S329,104.1,329,103z M66,159v-32c0-1.1-0.9-2-2-2s-2,0.9-2,2v32c0,1.1,0.9,2,2,2S66,160.1,66,159z M78.3,159.9
	C80.7,155,82,149.2,82,143s-1.3-12-3.7-16.9c-0.5-1-1.7-1.4-2.7-0.9s-1.4,1.7-0.9,2.7c2.1,4.3,3.3,9.6,3.3,15.1s-1.2,10.9-3.3,15.1
	c-0.5,1-0.1,2.2,0.9,2.7c0.3,0.1,0.6,0.2,0.9,0.2C77.3,161,78,160.6,78.3,159.9z M52.3,160.8c1-0.5,1.4-1.7,0.9-2.7
	c-2.1-4.3-3.3-9.6-3.3-15.1s1.2-10.9,3.3-15.1c0.5-1,0.1-2.2-0.9-2.7s-2.2-0.1-2.7,0.9C47.3,131,46,136.8,46,143s1.3,12,3.7,16.9
	c0.3,0.7,1.1,1.1,1.8,1.1C51.8,161,52.1,160.9,52.3,160.8L52.3,160.8z M550,212v18c0,1.1-0.9,2-2,2h-18v28c0,1.1-0.9,2-2,2h-14
	c-1,0-1.8-0.7-2-1.7l-3.8-28.3H55.8L52,260.3c-0.1,1-1,1.7-2,1.7H36c-1.1,0-2-0.9-2-2v-28H16c-1.1,0-2-0.9-2-2v-18c0-1.1,0.9-2,2-2
	h22.1l-3.9-23.8c-3.6-1.5-6.2-5.1-6.2-9.2c0-5.5,4.5-10,10-10h6.4c-2-1.6-3.8-3.5-5.4-5.6l-5,3.3c-0.3,0.2-0.7,0.3-1.1,0.3
	c-0.6,0-1.3-0.3-1.7-0.9c-0.6-0.9-0.4-2.2,0.6-2.8l5-3.3c-2.5-4.4-3.9-9.6-3.9-15c0-1.5,0.1-3,0.3-4.4l-5.9-1.7
	c-1.1-0.3-1.7-1.4-1.4-2.5c0.3-1.1,1.4-1.7,2.5-1.4l5.6,1.6c1.9-6.9,6.2-12.8,11.8-16.9l-3.9-3.9c-0.8-0.8-0.8-2,0-2.8s2-0.8,2.8,0
	l4.5,4.5c4.3-2.3,9.3-3.6,14.5-3.6h0.2l0.9-4.4c0.2-1.1,1.3-1.8,2.4-1.6c1.1,0.2,1.8,1.3,1.6,2.4l-0.8,3.9c3.5,0.5,6.8,1.5,9.9,3.1
	c0.2-2.3,1.4-4.4,3.1-5.7l-1-3c-0.3-1,0.2-2.2,1.3-2.5c1.1-0.4,2.2,0.2,2.5,1.3l0.9,2.7c0.4-0.1,0.8-0.1,1.2-0.1
	c2.6,0,4.9,1.2,6.3,3.1l3-1c1-0.4,2.2,0.2,2.5,1.3c0.3,1-0.2,2.2-1.3,2.5l-2.7,0.9c0.1,0.4,0.1,0.8,0.1,1.2c0,3.6-2.5,6.7-5.8,7.7
	c2.4,3,4.3,6.4,5.4,10.2l5-0.8c1.1-0.2,2.1,0.6,2.3,1.6c0.2,1.1-0.6,2.1-1.6,2.3l-4.8,0.8c0.3,1.7,0.5,3.4,0.5,5.2
	c0,4.5-1,8.7-2.7,12.5l3.9,2.9c0.9,0.7,1.1,1.9,0.4,2.8c-0.4,0.5-1,0.8-1.6,0.8c-0.4,0-0.8-0.1-1.2-0.4l-3.3-2.5
	c-1.8,3-4.2,5.7-6.9,7.9H90c5.5,0,10,4.5,10,10c0,4.2-2.6,7.7-6.2,9.2L89.9,210H466c-1.3-1.7-2-3.7-2-6v-6c0-5.5,4.5-10,10-10h2v-6
	c0-1.1,0.9-2,2-2h6c1.1,0,2,0.9,2,2v6h4v-6c0-5.5,4.5-10,10-10c0.5,0,1,0.1,1.5,0.1L530,113c-2.4-1.8-4-4.7-4-8
	c0-2.4,0.8-4.5,2.2-6.3l-48.2-58c-0.5,0.8-1.1,1.5-1.7,2.2c6.4,10.8,7,24.7,0.2,36.4c-0.3,0.5-0.7,0.8-1.2,0.9
	c-0.2,0-0.3,0.1-0.5,0.1c-0.3,0-0.7-0.1-1-0.3l-16.6-9.6c-1.7,1.3-3.6,2.3-5.7,2.8c-1.4,0.4-2.8,0.6-4.2,0.6c-2.8,0-5.5-0.7-8-2.2
	c-3.7-2.1-6.3-5.6-7.5-9.7c-0.6-2.1-0.7-4.3-0.4-6.4L417,46c-1-0.6-1.3-1.8-0.7-2.7c4.8-8.3,12.6-14.3,21.9-16.8
	c3.2-0.9,6.5-1.3,9.8-1.2c0.4-1.1,0.9-2.2,1.5-3.3c2.4-4.2,6.3-7.1,10.9-8.4c4.6-1.2,9.5-0.6,13.7,1.8s7.1,6.3,8.4,10.9
	c0.9,3.5,0.8,7.1-0.4,10.5l49.3,59.3c1.4-0.8,3-1.2,4.7-1.2c5.5,0,10,4.5,10,10s-4.5,10-10,10c-0.8,0-1.7-0.1-2.4-0.3l-28.3,58.8
	c2.8,1.8,4.7,4.9,4.7,8.5v6h16c5.5,0,10,4.5,10,10v6c0,2.3-0.8,4.3-2,6h14C549.1,210,550,210.9,550,212z M455.4,68.2l-18-10.4
	c0,1,0.1,2.1,0.4,3.1c0.8,3.1,2.8,5.7,5.6,7.3c2.8,1.6,6,2,9.1,1.2C453.6,69.2,454.5,68.7,455.4,68.2z M463.4,33.6
	c-7.4-4.3-16-5.4-24.3-3.2c-7.6,2-14.1,6.7-18.4,13.2L476,75.5C483.6,60.6,478.1,42.1,463.4,33.6z M478.5,27.4
	c-1-3.6-3.3-6.6-6.5-8.5c-2.2-1.2-4.6-1.9-7-1.9c-1.2,0-2.4,0.2-3.6,0.5c-3.6,1-6.6,3.3-8.5,6.5c-0.3,0.5-0.6,1-0.8,1.6
	c4.7,0.6,9.2,2.1,13.4,4.5c4.3,2.5,7.8,5.7,10.6,9.3c0.4-0.5,0.7-1,1-1.5C478.9,34.8,479.4,31,478.5,27.4z M530,105c0,3.3,2.7,6,6,6
	s6-2.7,6-6s-2.7-6-6-6S530,101.7,530,105z M494,188h12v-6c0-3.3-2.7-6-6-6s-6,2.7-6,6V188z M480,188h2v-4h-2V188z M468,204
	c0,3.3,2.7,6,6,6h52c3.3,0,6-2.7,6-6v-6c0-3.3-2.7-6-6-6h-52c-3.3,0-6,2.7-6,6V204z M82.8,118.4l1.5,1.2c0.5,0.2,1.1,0.4,1.7,0.4
	c2.2,0,4-1.8,4-4s-1.8-4-4-4s-4,1.8-4,4C82,116.9,82.3,117.7,82.8,118.4z M51.7,167h24.6C85,162.5,91,153.5,91,143
	c0-7.9-3.4-15.1-8.9-20c-0.8-0.4-1.5-1-2.1-1.7c-4.5-3.3-10-5.3-16-5.3c-14.9,0-27,12.1-27,27C37,153.5,43,162.5,51.7,167z M90,183
	c3.3,0,6-2.7,6-6s-2.7-6-6-6H38c-3.3,0-6,2.7-6,6s2.7,6,6,6H90z M38.4,187l3.8,23h43.7l3.8-23H38.4z M51.7,232H38v26h10.2L51.7,232z
	 M526,232h-13.7l3.5,26H526V232z M546,214H18v14h528V214z"/>
</svg>
